<mxfile host="app.diagrams.net" agent="Mozilla/5.0 (Windows NT 10.0; Win64; x64) AppleWebKit/537.36 (KHTML, like Gecko) Chrome/134.0.0.0 Safari/537.36 Edg/134.0.0.0" version="26.1.0">
  <diagram name="ModeloAnemico" id="DW86p0jcR_0Umov8iWPy">
    <mxGraphModel dx="3394" dy="713" grid="1" gridSize="10" guides="1" tooltips="1" connect="1" arrows="1" fold="1" page="1" pageScale="1" pageWidth="827" pageHeight="1169" math="0" shadow="0">
      <root>
        <mxCell id="0" />
        <mxCell id="1" parent="0" />
        <mxCell id="dTqFi1dfQPmzT-X44cD1-1" style="edgeStyle=orthogonalEdgeStyle;rounded=0;orthogonalLoop=1;jettySize=auto;html=1;exitX=0.5;exitY=1;exitDx=0;exitDy=0;entryX=0.5;entryY=0;entryDx=0;entryDy=0;endArrow=none;endFill=0;" edge="1" parent="1" source="dTqFi1dfQPmzT-X44cD1-3" target="dTqFi1dfQPmzT-X44cD1-5">
          <mxGeometry relative="1" as="geometry" />
        </mxCell>
        <mxCell id="dTqFi1dfQPmzT-X44cD1-2" style="edgeStyle=orthogonalEdgeStyle;rounded=0;orthogonalLoop=1;jettySize=auto;html=1;exitX=1;exitY=0.5;exitDx=0;exitDy=0;entryX=0.5;entryY=0;entryDx=0;entryDy=0;endArrow=none;endFill=0;" edge="1" parent="1" source="dTqFi1dfQPmzT-X44cD1-3" target="dTqFi1dfQPmzT-X44cD1-4">
          <mxGeometry relative="1" as="geometry" />
        </mxCell>
        <mxCell id="dTqFi1dfQPmzT-X44cD1-3" value="ConjuntoResidencial" style="rounded=0;whiteSpace=wrap;html=1;fillColor=#ffe6cc;strokeColor=#d79b00;" vertex="1" parent="1">
          <mxGeometry x="-1215" y="885" width="120" height="60" as="geometry" />
        </mxCell>
        <mxCell id="dTqFi1dfQPmzT-X44cD1-4" value="ZonaComun" style="rounded=0;whiteSpace=wrap;html=1;fillColor=#ffe6cc;strokeColor=#d79b00;" vertex="1" parent="1">
          <mxGeometry x="-975" y="1079" width="120" height="60" as="geometry" />
        </mxCell>
        <mxCell id="dTqFi1dfQPmzT-X44cD1-5" value="Administrador" style="rounded=0;whiteSpace=wrap;html=1;fillColor=#ffe6cc;strokeColor=#d79b00;" vertex="1" parent="1">
          <mxGeometry x="-1215" y="1079" width="120" height="60" as="geometry" />
        </mxCell>
        <mxCell id="dTqFi1dfQPmzT-X44cD1-6" style="edgeStyle=orthogonalEdgeStyle;rounded=0;orthogonalLoop=1;jettySize=auto;html=1;entryX=0.5;entryY=0;entryDx=0;entryDy=0;endArrow=none;endFill=0;" edge="1" parent="1" source="dTqFi1dfQPmzT-X44cD1-8" target="dTqFi1dfQPmzT-X44cD1-19">
          <mxGeometry relative="1" as="geometry" />
        </mxCell>
        <mxCell id="dTqFi1dfQPmzT-X44cD1-7" style="edgeStyle=orthogonalEdgeStyle;rounded=0;orthogonalLoop=1;jettySize=auto;html=1;endArrow=none;endFill=0;" edge="1" parent="1" source="dTqFi1dfQPmzT-X44cD1-8" target="dTqFi1dfQPmzT-X44cD1-63">
          <mxGeometry relative="1" as="geometry" />
        </mxCell>
        <mxCell id="dTqFi1dfQPmzT-X44cD1-8" value="Inmueble" style="rounded=0;whiteSpace=wrap;html=1;fillColor=#e1d5e7;strokeColor=#9673a6;" vertex="1" parent="1">
          <mxGeometry x="-1445" y="1079" width="120" height="60" as="geometry" />
        </mxCell>
        <mxCell id="dTqFi1dfQPmzT-X44cD1-9" value="1...1" style="text;html=1;align=center;verticalAlign=middle;whiteSpace=wrap;rounded=0;rotation=0;" vertex="1" parent="1">
          <mxGeometry x="-1175" y="1049" width="100" height="30" as="geometry" />
        </mxCell>
        <mxCell id="dTqFi1dfQPmzT-X44cD1-10" value="Tiene -&amp;gt;&amp;nbsp;" style="text;html=1;align=center;verticalAlign=middle;whiteSpace=wrap;rounded=0;rotation=90;" vertex="1" parent="1">
          <mxGeometry x="-1165" y="999" width="60" height="30" as="geometry" />
        </mxCell>
        <mxCell id="dTqFi1dfQPmzT-X44cD1-11" value="1...*" style="text;html=1;align=center;verticalAlign=middle;whiteSpace=wrap;rounded=0;rotation=0;" vertex="1" parent="1">
          <mxGeometry x="-945" y="1049" width="100" height="30" as="geometry" />
        </mxCell>
        <mxCell id="dTqFi1dfQPmzT-X44cD1-12" value="Tiene -&amp;gt;&amp;nbsp;" style="text;html=1;align=center;verticalAlign=middle;whiteSpace=wrap;rounded=0;rotation=90;" vertex="1" parent="1">
          <mxGeometry x="-925" y="999" width="60" height="30" as="geometry" />
        </mxCell>
        <mxCell id="dTqFi1dfQPmzT-X44cD1-13" value="1...*" style="text;html=1;align=center;verticalAlign=middle;whiteSpace=wrap;rounded=0;rotation=0;" vertex="1" parent="1">
          <mxGeometry x="-1405" y="1049" width="100" height="30" as="geometry" />
        </mxCell>
        <mxCell id="dTqFi1dfQPmzT-X44cD1-14" value="Tiene -&amp;gt;&amp;nbsp;" style="text;html=1;align=center;verticalAlign=middle;whiteSpace=wrap;rounded=0;rotation=90;" vertex="1" parent="1">
          <mxGeometry x="-1395" y="994" width="60" height="30" as="geometry" />
        </mxCell>
        <mxCell id="dTqFi1dfQPmzT-X44cD1-15" value="1...1" style="text;html=1;align=center;verticalAlign=middle;whiteSpace=wrap;rounded=0;rotation=0;" vertex="1" parent="1">
          <mxGeometry x="-1180" y="940" width="20" height="30" as="geometry" />
        </mxCell>
        <mxCell id="dTqFi1dfQPmzT-X44cD1-16" value="Gestiona&lt;span style=&quot;background-color: initial;&quot;&gt;&amp;nbsp;-&amp;gt;&lt;/span&gt;" style="text;html=1;align=center;verticalAlign=middle;whiteSpace=wrap;rounded=0;rotation=-90;" vertex="1" parent="1">
          <mxGeometry x="-1215" y="1004" width="100" height="30" as="geometry" />
        </mxCell>
        <mxCell id="dTqFi1dfQPmzT-X44cD1-17" value="Reserva" style="rounded=0;whiteSpace=wrap;html=1;fillColor=#dae8fc;strokeColor=#6c8ebf;" vertex="1" parent="1">
          <mxGeometry x="-1215" y="1294" width="120" height="60" as="geometry" />
        </mxCell>
        <mxCell id="dTqFi1dfQPmzT-X44cD1-18" style="edgeStyle=orthogonalEdgeStyle;rounded=0;orthogonalLoop=1;jettySize=auto;html=1;entryX=0;entryY=0.5;entryDx=0;entryDy=0;endArrow=none;endFill=0;" edge="1" parent="1" source="dTqFi1dfQPmzT-X44cD1-19" target="dTqFi1dfQPmzT-X44cD1-17">
          <mxGeometry relative="1" as="geometry" />
        </mxCell>
        <mxCell id="dTqFi1dfQPmzT-X44cD1-19" value="Residente" style="rounded=0;whiteSpace=wrap;html=1;fillColor=#e1d5e7;strokeColor=#9673a6;" vertex="1" parent="1">
          <mxGeometry x="-1445" y="1294" width="120" height="60" as="geometry" />
        </mxCell>
        <mxCell id="dTqFi1dfQPmzT-X44cD1-20" style="edgeStyle=orthogonalEdgeStyle;rounded=0;orthogonalLoop=1;jettySize=auto;html=1;endArrow=none;endFill=0;" edge="1" parent="1" source="dTqFi1dfQPmzT-X44cD1-21" target="dTqFi1dfQPmzT-X44cD1-17">
          <mxGeometry relative="1" as="geometry" />
        </mxCell>
        <mxCell id="dTqFi1dfQPmzT-X44cD1-21" value="Turno" style="rounded=0;whiteSpace=wrap;html=1;fillColor=#d5e8d4;strokeColor=#82b366;" vertex="1" parent="1">
          <mxGeometry x="-1215" y="1449" width="120" height="60" as="geometry" />
        </mxCell>
        <mxCell id="dTqFi1dfQPmzT-X44cD1-22" value="1...1" style="text;html=1;align=center;verticalAlign=middle;whiteSpace=wrap;rounded=0;rotation=0;" vertex="1" parent="1">
          <mxGeometry x="-1275" y="880" width="100" height="30" as="geometry" />
        </mxCell>
        <mxCell id="dTqFi1dfQPmzT-X44cD1-23" value="&amp;lt;- Esta en" style="text;html=1;align=center;verticalAlign=middle;whiteSpace=wrap;rounded=0;rotation=90;" vertex="1" parent="1">
          <mxGeometry x="-1455" y="1004" width="100" height="30" as="geometry" />
        </mxCell>
        <mxCell id="dTqFi1dfQPmzT-X44cD1-24" value="Pertenece&lt;span style=&quot;background-color: initial;&quot;&gt;&amp;nbsp;-&amp;gt;&lt;/span&gt;" style="text;html=1;align=center;verticalAlign=middle;whiteSpace=wrap;rounded=0;rotation=-90;" vertex="1" parent="1">
          <mxGeometry x="-985" y="994" width="100" height="30" as="geometry" />
        </mxCell>
        <mxCell id="dTqFi1dfQPmzT-X44cD1-25" value="1...1" style="text;html=1;align=center;verticalAlign=middle;whiteSpace=wrap;rounded=0;rotation=0;" vertex="1" parent="1">
          <mxGeometry x="-1125" y="915" width="100" height="30" as="geometry" />
        </mxCell>
        <mxCell id="dTqFi1dfQPmzT-X44cD1-26" value="Es propietario de&amp;nbsp;" style="text;html=1;align=center;verticalAlign=middle;whiteSpace=wrap;rounded=0;rotation=-90;" vertex="1" parent="1">
          <mxGeometry x="-1462.5" y="1221.5" width="115" height="30" as="geometry" />
        </mxCell>
        <mxCell id="dTqFi1dfQPmzT-X44cD1-27" value="1...1" style="text;html=1;align=center;verticalAlign=middle;whiteSpace=wrap;rounded=0;rotation=0;" vertex="1" parent="1">
          <mxGeometry x="-1455" y="1139" width="100" height="30" as="geometry" />
        </mxCell>
        <mxCell id="dTqFi1dfQPmzT-X44cD1-28" value="1...*" style="text;html=1;align=center;verticalAlign=middle;whiteSpace=wrap;rounded=0;rotation=0;" vertex="1" parent="1">
          <mxGeometry x="-1415" y="1264" width="100" height="30" as="geometry" />
        </mxCell>
        <mxCell id="dTqFi1dfQPmzT-X44cD1-29" value="Pertenece&lt;span style=&quot;background-color: initial;&quot;&gt;&amp;nbsp;-&amp;gt;&lt;/span&gt;" style="text;html=1;align=center;verticalAlign=middle;whiteSpace=wrap;rounded=0;rotation=90;" vertex="1" parent="1">
          <mxGeometry x="-1415" y="1194" width="100" height="30" as="geometry" />
        </mxCell>
        <mxCell id="dTqFi1dfQPmzT-X44cD1-30" value="1...*" style="text;html=1;align=center;verticalAlign=middle;whiteSpace=wrap;rounded=0;rotation=0;" vertex="1" parent="1">
          <mxGeometry x="-945" y="1259" width="100" height="30" as="geometry" />
        </mxCell>
        <mxCell id="dTqFi1dfQPmzT-X44cD1-31" value="identificador&lt;div&gt;nombre&lt;/div&gt;&lt;div&gt;direccion&lt;/div&gt;&lt;div&gt;numeroDeContacto&lt;/div&gt;&lt;div&gt;descripcion&lt;/div&gt;&lt;div&gt;administrador&lt;/div&gt;" style="rounded=0;whiteSpace=wrap;html=1;align=left;" vertex="1" parent="1">
          <mxGeometry x="-1205" y="790" width="120" height="90" as="geometry" />
        </mxCell>
        <mxCell id="dTqFi1dfQPmzT-X44cD1-32" value="&lt;div&gt;identificador&lt;/div&gt;&lt;div&gt;nombre&lt;/div&gt;&lt;div&gt;apellido&lt;/div&gt;&lt;div&gt;numeroContacto&lt;/div&gt;&lt;div&gt;email&lt;/div&gt;&lt;div&gt;contraseña&lt;/div&gt;" style="rounded=0;whiteSpace=wrap;html=1;align=left;" vertex="1" parent="1">
          <mxGeometry x="-1115" y="1079" width="90" height="95" as="geometry" />
        </mxCell>
        <mxCell id="dTqFi1dfQPmzT-X44cD1-33" value="&lt;div&gt;identificador&lt;/div&gt;&lt;div&gt;TipoInmueble&lt;/div&gt;&lt;div&gt;numeroVivienda&lt;/div&gt;&lt;div&gt;ZonaInmueble&lt;/div&gt;" style="rounded=0;whiteSpace=wrap;html=1;align=left;" vertex="1" parent="1">
          <mxGeometry x="-1570" y="1076.5" width="120" height="65" as="geometry" />
        </mxCell>
        <mxCell id="dTqFi1dfQPmzT-X44cD1-34" value="identificador&lt;div&gt;nombre&lt;/div&gt;&lt;div&gt;imagen&lt;/div&gt;&lt;div&gt;descripcion&lt;/div&gt;&lt;div&gt;capacidad&lt;/div&gt;&lt;div&gt;tiempoUsoDia&lt;/div&gt;&lt;div&gt;normas&lt;/div&gt;&lt;div&gt;conjuntoResidencial&lt;/div&gt;" style="rounded=0;whiteSpace=wrap;html=1;align=left;" vertex="1" parent="1">
          <mxGeometry x="-862.5" y="1034" width="120" height="135" as="geometry" />
        </mxCell>
        <mxCell id="dTqFi1dfQPmzT-X44cD1-35" value="identificador&lt;div&gt;nombre&lt;/div&gt;&lt;div&gt;apellido&lt;/div&gt;&lt;div&gt;tipoDocumento&lt;/div&gt;&lt;div&gt;numeroID&lt;/div&gt;&lt;div&gt;fechaDeNacimiento&lt;/div&gt;&lt;div&gt;numeroContacto&lt;/div&gt;&lt;div&gt;email&lt;/div&gt;&lt;div&gt;contraseña&lt;/div&gt;&lt;div&gt;inmueble&lt;/div&gt;" style="rounded=0;whiteSpace=wrap;html=1;align=left;" vertex="1" parent="1">
          <mxGeometry x="-1565" y="1264" width="120" height="140" as="geometry" />
        </mxCell>
        <mxCell id="dTqFi1dfQPmzT-X44cD1-36" style="edgeStyle=orthogonalEdgeStyle;rounded=0;orthogonalLoop=1;jettySize=auto;html=1;endArrow=none;endFill=0;" edge="1" parent="1" source="dTqFi1dfQPmzT-X44cD1-39" target="dTqFi1dfQPmzT-X44cD1-4">
          <mxGeometry relative="1" as="geometry" />
        </mxCell>
        <mxCell id="dTqFi1dfQPmzT-X44cD1-37" style="edgeStyle=orthogonalEdgeStyle;rounded=0;orthogonalLoop=1;jettySize=auto;html=1;endArrow=none;endFill=0;" edge="1" parent="1" source="dTqFi1dfQPmzT-X44cD1-39" target="dTqFi1dfQPmzT-X44cD1-21">
          <mxGeometry relative="1" as="geometry">
            <Array as="points">
              <mxPoint x="-915" y="1474" />
            </Array>
          </mxGeometry>
        </mxCell>
        <mxCell id="dTqFi1dfQPmzT-X44cD1-38" style="edgeStyle=orthogonalEdgeStyle;rounded=0;orthogonalLoop=1;jettySize=auto;html=1;endArrow=none;endFill=0;" edge="1" parent="1" source="dTqFi1dfQPmzT-X44cD1-39" target="dTqFi1dfQPmzT-X44cD1-55">
          <mxGeometry relative="1" as="geometry" />
        </mxCell>
        <mxCell id="dTqFi1dfQPmzT-X44cD1-39" value="Agenda" style="rounded=0;whiteSpace=wrap;html=1;fillColor=#d5e8d4;strokeColor=#82b366;" vertex="1" parent="1">
          <mxGeometry x="-975" y="1294" width="120" height="60" as="geometry" />
        </mxCell>
        <mxCell id="dTqFi1dfQPmzT-X44cD1-40" value="identificador&lt;div&gt;turno&lt;br&gt;&lt;div&gt;residente&lt;/div&gt;&lt;div&gt;fechaReserva&lt;/div&gt;&lt;div&gt;estado&lt;/div&gt;&lt;div&gt;numeroInvitados&lt;/div&gt;&lt;/div&gt;" style="rounded=0;whiteSpace=wrap;html=1;align=left;" vertex="1" parent="1">
          <mxGeometry x="-1150" y="1215.25" width="110" height="91" as="geometry" />
        </mxCell>
        <mxCell id="dTqFi1dfQPmzT-X44cD1-41" value="Tiene -&amp;gt;&amp;nbsp;" style="text;html=1;align=center;verticalAlign=middle;whiteSpace=wrap;rounded=0;rotation=90;" vertex="1" parent="1">
          <mxGeometry x="-925" y="1215.25" width="60" height="17.5" as="geometry" />
        </mxCell>
        <mxCell id="dTqFi1dfQPmzT-X44cD1-42" value="Pertenece&lt;span style=&quot;background-color: initial;&quot;&gt;&amp;nbsp;-&amp;gt;&lt;/span&gt;" style="text;html=1;align=center;verticalAlign=middle;whiteSpace=wrap;rounded=0;rotation=-90;" vertex="1" parent="1">
          <mxGeometry x="-975" y="1209" width="100" height="30" as="geometry" />
        </mxCell>
        <mxCell id="dTqFi1dfQPmzT-X44cD1-43" value="1...1" style="text;html=1;align=center;verticalAlign=middle;whiteSpace=wrap;rounded=0;rotation=0;" vertex="1" parent="1">
          <mxGeometry x="-985" y="1134" width="100" height="30" as="geometry" />
        </mxCell>
        <mxCell id="dTqFi1dfQPmzT-X44cD1-44" value="1...*" style="text;html=1;align=center;verticalAlign=middle;whiteSpace=wrap;rounded=0;rotation=0;" vertex="1" parent="1">
          <mxGeometry x="-1120" y="1441.5" width="100" height="30" as="geometry" />
        </mxCell>
        <mxCell id="dTqFi1dfQPmzT-X44cD1-45" value="&amp;lt;- Tiene" style="text;html=1;align=center;verticalAlign=middle;whiteSpace=wrap;rounded=0;rotation=0;" vertex="1" parent="1">
          <mxGeometry x="-1020" y="1441.5" width="60" height="30" as="geometry" />
        </mxCell>
        <mxCell id="dTqFi1dfQPmzT-X44cD1-46" value="Pertenece&lt;span style=&quot;background-color: initial;&quot;&gt;&amp;nbsp;-&amp;gt;&lt;/span&gt;" style="text;html=1;align=center;verticalAlign=middle;whiteSpace=wrap;rounded=0;rotation=0;" vertex="1" parent="1">
          <mxGeometry x="-1015" y="1474" width="100" height="30" as="geometry" />
        </mxCell>
        <mxCell id="dTqFi1dfQPmzT-X44cD1-47" value="1...1" style="text;html=1;align=center;verticalAlign=middle;whiteSpace=wrap;rounded=0;rotation=0;" vertex="1" parent="1">
          <mxGeometry x="-945" y="1354" width="100" height="30" as="geometry" />
        </mxCell>
        <mxCell id="dTqFi1dfQPmzT-X44cD1-48" value="Tiene -&amp;gt;&amp;nbsp;" style="text;html=1;align=center;verticalAlign=middle;whiteSpace=wrap;rounded=0;rotation=90;" vertex="1" parent="1">
          <mxGeometry x="-1150" y="1384" width="60" height="30" as="geometry" />
        </mxCell>
        <mxCell id="dTqFi1dfQPmzT-X44cD1-49" value="1...1" style="text;html=1;align=center;verticalAlign=middle;whiteSpace=wrap;rounded=0;rotation=0;" vertex="1" parent="1">
          <mxGeometry x="-1175" y="1414" width="100" height="30" as="geometry" />
        </mxCell>
        <mxCell id="dTqFi1dfQPmzT-X44cD1-50" value="Pertenece&lt;span style=&quot;background-color: initial;&quot;&gt;&amp;nbsp;-&amp;gt;&lt;/span&gt;" style="text;html=1;align=center;verticalAlign=middle;whiteSpace=wrap;rounded=0;rotation=-90;" vertex="1" parent="1">
          <mxGeometry x="-1265" y="1404" width="100" height="20" as="geometry" />
        </mxCell>
        <mxCell id="dTqFi1dfQPmzT-X44cD1-51" value="1...1" style="text;html=1;align=center;verticalAlign=middle;whiteSpace=wrap;rounded=0;rotation=0;" vertex="1" parent="1">
          <mxGeometry x="-1225" y="1354" width="100" height="30" as="geometry" />
        </mxCell>
        <mxCell id="dTqFi1dfQPmzT-X44cD1-52" style="edgeStyle=orthogonalEdgeStyle;rounded=0;orthogonalLoop=1;jettySize=auto;html=1;exitX=0.75;exitY=0;exitDx=0;exitDy=0;entryX=0.5;entryY=0;entryDx=0;entryDy=0;" edge="1" parent="1" source="dTqFi1dfQPmzT-X44cD1-55" target="dTqFi1dfQPmzT-X44cD1-68">
          <mxGeometry relative="1" as="geometry">
            <Array as="points">
              <mxPoint x="-585" y="1250" />
              <mxPoint x="160" y="1250" />
            </Array>
          </mxGeometry>
        </mxCell>
        <mxCell id="dTqFi1dfQPmzT-X44cD1-53" style="edgeStyle=orthogonalEdgeStyle;rounded=0;orthogonalLoop=1;jettySize=auto;html=1;exitX=0.25;exitY=0;exitDx=0;exitDy=0;entryX=0.5;entryY=0;entryDx=0;entryDy=0;" edge="1" parent="1" source="dTqFi1dfQPmzT-X44cD1-55" target="dTqFi1dfQPmzT-X44cD1-69">
          <mxGeometry relative="1" as="geometry">
            <Array as="points">
              <mxPoint x="-645" y="1220" />
              <mxPoint x="435" y="1220" />
            </Array>
          </mxGeometry>
        </mxCell>
        <mxCell id="dTqFi1dfQPmzT-X44cD1-54" style="edgeStyle=orthogonalEdgeStyle;rounded=0;orthogonalLoop=1;jettySize=auto;html=1;exitX=0;exitY=0;exitDx=0;exitDy=0;entryX=0.5;entryY=0;entryDx=0;entryDy=0;" edge="1" parent="1" source="dTqFi1dfQPmzT-X44cD1-55" target="dTqFi1dfQPmzT-X44cD1-70">
          <mxGeometry relative="1" as="geometry">
            <Array as="points">
              <mxPoint x="-675" y="1180" />
              <mxPoint x="751" y="1180" />
            </Array>
          </mxGeometry>
        </mxCell>
        <mxCell id="dTqFi1dfQPmzT-X44cD1-55" value="ConfiguracionAgenda" style="rounded=0;whiteSpace=wrap;html=1;fillColor=#d5e8d4;strokeColor=#82b366;" vertex="1" parent="1">
          <mxGeometry x="-675" y="1294" width="120" height="60" as="geometry" />
        </mxCell>
        <mxCell id="dTqFi1dfQPmzT-X44cD1-56" value="Esta entidad nos permite reunir los datos para que se pueda repetir dada agenda en otras fechas" style="rounded=0;whiteSpace=wrap;html=1;align=left;" vertex="1" parent="1">
          <mxGeometry x="-810" y="1194" width="100" height="85" as="geometry" />
        </mxCell>
        <mxCell id="dTqFi1dfQPmzT-X44cD1-57" value="Tiene -&amp;gt;&amp;nbsp;" style="text;html=1;align=center;verticalAlign=middle;whiteSpace=wrap;rounded=0;rotation=0;" vertex="1" parent="1">
          <mxGeometry x="-795" y="1289" width="60" height="30" as="geometry" />
        </mxCell>
        <mxCell id="dTqFi1dfQPmzT-X44cD1-58" value="&amp;lt;- Pertenece" style="text;html=1;align=center;verticalAlign=middle;whiteSpace=wrap;rounded=0;rotation=0;" vertex="1" parent="1">
          <mxGeometry x="-725" y="1490" width="100" height="30" as="geometry" />
        </mxCell>
        <mxCell id="dTqFi1dfQPmzT-X44cD1-59" value="1...1" style="text;html=1;align=center;verticalAlign=middle;whiteSpace=wrap;rounded=0;rotation=0;" vertex="1" parent="1">
          <mxGeometry x="-745" y="1299" width="100" height="30" as="geometry" />
        </mxCell>
        <mxCell id="dTqFi1dfQPmzT-X44cD1-60" value="1...1" style="text;html=1;align=center;verticalAlign=middle;whiteSpace=wrap;rounded=0;rotation=0;" vertex="1" parent="1">
          <mxGeometry x="-885" y="1324" width="100" height="30" as="geometry" />
        </mxCell>
        <mxCell id="dTqFi1dfQPmzT-X44cD1-61" value="identificador&lt;div&gt;nombre&lt;/div&gt;&lt;div&gt;estaDisponible&lt;/div&gt;&lt;div&gt;fecha&lt;/div&gt;&lt;div&gt;horaInicio&lt;/div&gt;&lt;div&gt;horaFin&lt;/div&gt;&lt;div&gt;hacerPeriodo/repetir&lt;/div&gt;&lt;div&gt;zonaComun&lt;/div&gt;" style="rounded=0;whiteSpace=wrap;html=1;align=left;" vertex="1" parent="1">
          <mxGeometry x="-875" y="1349" width="125" height="121" as="geometry" />
        </mxCell>
        <mxCell id="dTqFi1dfQPmzT-X44cD1-62" style="edgeStyle=orthogonalEdgeStyle;rounded=0;orthogonalLoop=1;jettySize=auto;html=1;endArrow=none;endFill=0;" edge="1" parent="1" source="dTqFi1dfQPmzT-X44cD1-63" target="dTqFi1dfQPmzT-X44cD1-3">
          <mxGeometry relative="1" as="geometry" />
        </mxCell>
        <mxCell id="dTqFi1dfQPmzT-X44cD1-63" value="ZonaInmueble" style="rounded=0;whiteSpace=wrap;html=1;fillColor=#e1d5e7;strokeColor=#9673a6;" vertex="1" parent="1">
          <mxGeometry x="-1445" y="884" width="120" height="60" as="geometry" />
        </mxCell>
        <mxCell id="dTqFi1dfQPmzT-X44cD1-64" value="&lt;div&gt;identificador&lt;/div&gt;&lt;div&gt;TipoZonaInmueble&lt;/div&gt;&lt;div&gt;NumeroZonaInmueble&lt;/div&gt;&lt;div&gt;conjuntoResidencial&lt;/div&gt;" style="rounded=0;whiteSpace=wrap;html=1;align=left;" vertex="1" parent="1">
          <mxGeometry x="-1445" y="819" width="120" height="65" as="geometry" />
        </mxCell>
        <mxCell id="dTqFi1dfQPmzT-X44cD1-65" style="edgeStyle=orthogonalEdgeStyle;rounded=0;orthogonalLoop=1;jettySize=auto;html=1;entryX=0.5;entryY=1;entryDx=0;entryDy=0;" edge="1" parent="1" source="dTqFi1dfQPmzT-X44cD1-66" target="dTqFi1dfQPmzT-X44cD1-61">
          <mxGeometry relative="1" as="geometry" />
        </mxCell>
        <mxCell id="dTqFi1dfQPmzT-X44cD1-66" value="" style="shape=image;verticalLabelPosition=bottom;labelBackgroundColor=default;verticalAlign=top;aspect=fixed;imageAspect=0;image=data:image/png,iVBORw0KGgoAAAANSUhEUgAAAvQAAAEOCAYAAADmPYP0AAAAAXNSR0IArs4c6QAAAARnQU1BAACxjwv8YQUAAAAJcEhZcwAADsMAAA7DAcdvqGQAAHACSURBVHhe7Z0JfBXV2f+fhCxkg4TFBBEIQbagiCgulEXcRcVda624VEsrb8UKbV3qW/271mKrvMW6lbrUuuGCtiiibFoUUESUTQQCyBKWkH0lyX9+585J5t7ce3Pv3P3m9/18Jrmzn5l5ZuZ3nnnOcxJ69OjRLIQQQgghhJCYJNH8TwghhBBCCIlBEsaOHUsPPSGEEEIIITFKwtChQynoCSGEEEIIiVEYckMIIYQQQkgMQ0FPCCGEEEJIDENBTwghhBBCSAzDGHpCCCGEEDc0N1fKkxt3ygRz3Dey5a4hefJOQoI5Tvw6j+m5cnnfHFnP8+cX9NATQgghhBASw1DQE0IIIYQQEsNQ0BNCCCGEEBLDUNATQgghhBASw1DQE0IIIYQQEsNQ0BNCCCGEEBLDUNATQgghhBASw1DQE0IIIYQQEsP41bFU+qDTJXPE5ZJy5HBJTO5sTiWxSlNDrdTvXiuVa+ZK9XeLzKmEEEIIAexYKjiwY6nQ47Ogzx57i3Q55UZzjMQb5Z/PkdJPnjTHCCGEkPBz8Z4N8lCpOeIji/sMkamZoRF/FPTBgYI+9PgUcgPPPMV8fIPri+tMCCGEEEJiC58EPcJsSPzD60wIIYQQEnv4JOgRM0/iH15nQgghhJDYw6cY+r6/+cL8ReKdHX860fxFCCGEhJdoi6EnwYEx9KGHaSsJIYQQQgiJYSjoCSGEEEIIiWEo6AkhhBBCCIlhKOgJIYQQQgiJYcIj6BvKpK6s2PehstZckRBCCCGEEOKN0Ge52TNLVtxzp5Q2meO+MuBhGXPnrZLBbwhhhVluCCGERApmuYlPmOUm9IRYLhfLDy/dKZWn/EvOeK5KznnkYcmQwTL4EeP3nLbDyNHGKqPfknNmvSV9K+6UTx+YJVX+VgQIiUfG3y0vvfmmzLzeHA8X18+UN998Se4eb44Txbg7XjLOy0yZbI7HIpMfe1Pe/MfdMs4cJ4QQEruEWNCvkbKNIj1PvEiS/NlT5jky9H/nS9/qDirq982ST2/MkAX3zJIacxKJZSbLTEOMv+k6PBbLctAeIRGRZmXnpTsoTaMBR2XHxdbbuT6wC3eVVWUvTtvxXolyXd6rTZh2Y12+3XWIbRzXJrYrwYREMyEPaGk0//tN+nhD1L8lvfbdKes/KTYnBkhDsZR8dIusuvtIWQDBrIbusuTuibJu6dfCjwEk2DheYheJvHeZXHaZZZi1WqrNZUggjJO7rx8psuoJufaRZeY0EnHKV8sTVns3BvfXx1HZvSjfHHVisgyXeZZtPCGry/vLRW5FoWEH/zC20815v+736Vj2zVuHyMZZrcvqfWwcPM24ZzvGVylV+QrTV5oXp18m84qM69cBHRmEhIPwRqgbe+skpVK1u8hNY9ivpWK7SMZRg82FDdLPkV4jREq2rDEnBMCeF2T1bwtk1b9ekJI9ZZLYNVdSc4whuVbq9iyVHz5aKnXmooQEA7wsL8rfJvMMoTDjeXOiZumDcu30F82RjgNe6pfd8KC4k1m2uH6SjOyyTRZSzMcYpqg2Krv9zSlteVFmON0jy+TB51ER7i/DXbz5kx+bJiPFEPPt2hb2ayxbgorCtfLgUnNyC8Y+bjBs9L1iGXkrQ82CzYvvGtcv/6zwndfMvtK3p/mbkDgnvIK+x89l2GX5snvWMFny6wKXYbRsbrpVCse5cdUE6jqvXiBrH7xF9peJpI56Usb8rUrO+stWOe0xY3ja+P3gW1IwrKu5MIkffiSp4+dK3m1fqIbdfW5bIj3GT5OwNLMZf7fcPCpdtr03w5AlJFRMPtaQg0VreY6jiPye6SIlO9sR1vmS00WM+wNe8XmyzZzaLkt3StvvtZNluPHa2GZUktur1o2742aH8G+vMv38DHlilcjI69nGIKgs/UQ2lqfLkFPDcFYzB8tZ54+S/Mw0cwIh8U2Is9wYQvrGS0VurZLhI8xJfrL/uQzj8fuWnHPTOeYUf6mVPX/tLmtXiySNfkvGG9tJMudELYihv+NOqer9sIy7/1YJ5+MofrLcnChplz8hPfunmuOtNG2bJ7vm3i/tGn4AwDs/bfBGHzyGDtTyRgWglWpZPcviQUS8760jpdgQQFZvv+t61S6hJ63l2CmTrN7QonlyWRtRg/AHq8d0m8x7T+SiC3Ody4KGshc6+1UhzFrL5dgOwozWHmuGU5j7QwiSCotwOi+m19QQeCB1xyfS5a2/yzf//Fb6V1cb0s+F9HQpMv5tSzlGapYbO3U5J+2XDx5doxwI53i3jzqv+gy6nj+Fee5bznL5apm3KUOuzF0r3173F8mqE+nfuafk9dosnb8yl3FlyPFShxt54ECpHzBAthS/Jg8sSZH1qWb1sk2Z8WWnbWXQ/fkzcGMf7dmG+225sQFLOdQ6bsNjWu215dz6/AUK+zxeMmfeLN+/VSH96+uN/RvX3V1MWt5Aqe2VJvvqdshHFVkyPzlZ1k/5P+Pcidvz5Qz2c5Yc8mTLxnVdXTJShuzX58l1ece5yW1jIxavv9Mxu55L12vgbPcKt/clMoTUybD6BhnUa6D8pne2JC77QA5nV0v3jeYCrpj3SNb4CyRlxAApzx8vdf36ysavTftwtWmFyzPHlTY26rp8e8froL1nY1Cy3Cgxf4zUrZwvy7axJZqvFNZVysQq4x6sMO5Br8/eFJnaq5djmo8wy03oCa+HPhKUvSY/GGLekCVSeK1vYr7mg5GO+PrnFphTHOjpn34Akwa1UrPqPln9/wpkoY7JnzJM1nywQg6bSwBUSjBv7ZoyKX37dLVsyzYqV0jRX4e1rP/x/7tTSiocs5wwltvxwkT59H/M/ahlb5HiQ+Z8sOYGxzyj3Ie33Ccrphi/O2rD2vxbJMeNmAeJ/c+Vrm5FSbAYJ2MHG6/Kdr2UmskyCS84SyzvvKJ0GXlr+w0Ap40qViE9ar1ZhqGPmta2UV+XkTLtzeGy1rJcdf5FzsvhBW+KFV2Gy5SYt76egSFCxkM8mcsYwxOrqqX/hW3DE3LHvyTDvzGX8yTu1H4NUbNujrw02qiEFRZKwblTpMczK2WCuxcKwHRjmFC6UnINwbnWKub9KJ8Y5+DN60We1cu+t03SjfPn1DgTIsYUyvdccI58ZpQx55Sfyh3XXWKU8w8yqbjUKEep5O/1IubBxq8k9StjeP11yXr4YRkxZ6vM3bpR1m/YIPOz+smy7HrZOuvSljLP048YF178ZptxPYfIWJdjGXfqEEOctZ4Ln23DihsbUDHPlph1FTKlt2luF7q7etWzprAbJ326Gf9wblsamroPXYFILazcI/O33ykTC8+VcXN2yo3GuVTX3VMDE3We10rf9aVy486dxjncKut/d74UXPWYjOh/k8xt2acxuMZqXz9c+pdvlE+cxDwqq+axLM2RkYbBFe/Vd22RHLLrTTbPZX8IdMu5avm6oO1ehf6Y8/GlAufNjGmHuJqxZ7vMN2xkw0bYy0556L+LJOf1t6Tr3mrPYh6Y90j39x321nvKuYa9FsrE322QlVl7ZMZ//lcevvRSdW+0tnfwLOYhwiHmHV9UHMMTqyzfSnAuXZ8fps25Xodle431uuS4v7eDAcW8XzTX1RmVKIedwcZuxDMN9mPOd8K0KzzzSPQRVkHftG+p7PngTln3wi1ehjulaPlSqWkwVwqUbUukBP9HXCy57vVdACyVzX97VA42jZAjx18nR40/RzIai6T49dPlq6VtPwwf/uI2WfXeitYIoroFsu6O02XT6iJpSj5OehrbyGl6Rlb95ZE2Irzm01/Khk82Suqx2M910mtgrhwuekHW3HN72xz/1a/K+kcfldJgncMYJGlAgZfKW6p0HnCl+TsaeFFmuHirVKypIVf7uBFCCkMQnGU8cZ1CepY+KM8aL+j0UZNcKgLwpDkvt9AQjOmDxyrhACZPGinphvhw8qapsAOHssr+ZrsSn+s3PC3XnHK+3KF+O4anrjtRhhaeKNc8padBoBXKMXNedfacu2HypB6SN/08GfqzmfJQqYeXiBecPYwAMdDOntpljyw0pG66UcEzJ7SwTeZZz/vz78rqcpH+x+qzZ1QOBnSS1KkTpNAQQuplZ5Qxz5wbLPJXfiA9plwi5z+10RC3e+Ri4wX74nQP3ubn16pjcRaZjgpk9ap3Hev4ZRutKBswxN2zpg0UlmyXOyYWGtfW+Xo7DU/9VE4wrvUJ1z2txueXLHTEoGtRZwyOymlrFhsIeQiI9yFSdxqVIU/i3Q9Sv1kk586fLoVGWdJGnyP33O+otFrFpArPaqlko+LX31IRMVDn1soy2aleHv5ibPt6x/3kVJE1rsEM89zq+825ovuiTL//fUn982My0ziX2t6CLXwzV6IyZJz7jRvl3gceki4/tH1XOWHYkyN80Pkr17JHZrRU4hzn0sUbbxzvtUYlWSwx8/C+owLmzab89c6DCTsdlWM1rHpHnrj3AXlq/mqn7bYO22VGne/fZ+FZnu12O94G4z5uDs43YNyH7vfheZhf0n6LQH0fbjAqxXaevST6CJ+g33WffHrHRFm/8DXZv/YDL8NrUvSvibLs7vukylw1KKR3dTrYFi98yzBSivaZM31msPS9c7ecde9bMuy6J43hLRlzi0Molqz4oE0j2/2fb5d8Y3nk3B9zbr5Uzb9dfsDLbMif5bS/LZeRxjZG3rtLxpyT16bZQOKQv8m4v22VUVOwnydl+J3vy0B88ap+QfZscSzTwprXpebsRY7c/2EO2SEBoLxcpndRfQ53J0IdKI+sIb7edRHMyvvlWhGweiVNivYbhtfiJTNjkL9pKyEd27NHc9Uu85d7CisHyP9MPFd6v7/dnGKD8kPqE3AblAdUe2sdYQC5eS6e1jax96aA69ZHxsE7mrBIrrn8XClYXBy2l11+dak8BK+zIexnVLp7Kb8o77oK8/FjZUiXatn4mSlV/bGNFnyPQ/cXR3YTo6I0/iaZUbJHCflQCoj80p0y95WfSu+pCyXVpQFm9X5tLYjhbz1nrVTLIZ8D+j2grof7+8lB2/ut2fTGb3hluhS8/pVkmtNDTd7mt6T35dPlKY/2ZtqT5etPG1zszwm3FVASaQorS1ruQxI/hE3Q132/Qmp6Pyyj0RC1veF/H5aMAyvkUJm5cjBorDV/mKTmO7LcGIP9k5Av2b2KpBhfHWaNliXTj5QFf33dMauirK0oH/8HGThQN74tkv3f4OXSWfpeMkVSWwrRWTJOvl4yzDFNav5xIluels0v3CCr7i6QJVNGyuY9mFMrDa41n+QpMvCSk/3L/R9nHN6y1SnsyZk6qd1iXqeQYBGGjgne0eJTxQG3fq729qhVDQ9VKI0WrebQJkTGB8b3MWRe8DlcvsL81ZaTDPEyd+e/QyBcEMdrnAenlIR+NLqUHdLlj/fJU/COrt9sTosAhrCHFxXC/mIXb+KyzzYattGa6cXhWW+ttNmyDdMG+l/YuvyjN1oyjgVI0bcL5ahfTlef88NVOcpbPE0KCm+WM+pbhWp6T3Pv6niLZaeHEBMHZviQv/TPMSSsl4qB5X5r9ZI6vPERw4u9KXvyVHEG6nhJrAB7m7szfE4KEj7CJvmaavaav3xlrxxu/6tR+2Qbwh3/Vy+VEovCTpvwllmBWCQDe5sT/WXPLPns1tGy5vVn5GDtYOk55g8y4tyTzZltyR3m4hpTITH9JK3dBDtlsv+5Aln26O2yddUm6TToKsm/7s/Sy9N6I8dLtw4s5hVFTxovVPcG1LjtAynz+HYKDp5indti+TzfbqO+VpSHvSX21XXw0rDNHW4zh4SKHdLz5p8GT7y4xOJOfuwi6a/Oi5/nwABeq5vxxeDtCAp5V5THfqPM31MphfoTvsoUokOD2nrWbdmGaQPWGOnfztnkmBcgiJO/97fTJMtbG4OQ8ZXkzdmqzl8DzosTLl8rEGNv/nTg6sVHTL350xvbDnmtjOtznbkpCr2kbuxN2ZM32jteEhWg8jhjO0KaeLXilfiXffk/lt49jP8NT8uWADuoaqiyBvfVyp437hQ833veuFXG/fYfMuySKZI7qJ9jtjvcnu1SaXC9v6oPOXuXix6XdcvLRLreKifPQmjOw5I/+hzp4sm92amz+aMj84XUzP2tFK8sknqzLUFzQ6VUr3xJdoc4w41CxWOn20575/jM7RlHwzJfKgy+4BAqrbHjrai44yCBF8q428+VHt+YE4KAT6+mNkLNGeUlLXF4rbqb06INFUayY6/pPV1miHLEJg+XyerYnMMh7NmGZxsIBMT/Ik4+2O0O/AXn757fPS7NOGeYYKZPHDlJH+9kmWmcr23GNB3mpiqHRQvbVIBavPwaM8SmBSXYPYeZNDevlS7PXiPj5kSvl9Rqb+3ak7fjVfbpIRyHhA08436zY6vcSC0f13QAP+5g6f+TK1UDyZIXTpU1n26SJmssTEOZNLjExqQdcZzjx3efS7meV71AihZbKwR7pW6/41dSunaVl8n+L5wz43gmXzKU9i+WogXzLALe2MZHTzvH35cWOcbTcyRZX7E978oe7yHKRP4rdUsvl72Pn6jSce58/DQ5sPSJ0It5BRpnzpNtKvTBTbYaxMurBntmeI4WGsBshOYVXWFwzYRjrDvT767rtUB0yXxjlNF9ikL/0S+U0d4yc9ig2BJ6AhxtA6ziwxBqXkJNdLkeKo6BN53ynu6Q2ZWGBavY5P4qC1FLY1iNLdvwYAN+c6nMNBuiqk/70XRe9/5TCq/6VCap4zPvz5ZsPMNl7Q0z5N1NyIjkCDlqm3pzmXxizMc5as2EZH5hM8ccvCgzzIxJrpmkZt4xwrC3V2TMXyLyucI/tL39dbrZsNk5W9G4O2aa456P9yVln5aGxyTsUMx3HEIu6DuZ/wMiwFImjfiHnHLdeEPUF0vxnJGy8KbusmR6gSPmfcpo2api0S0MO88R43jgUfnsNxNl7QuXyme//qVUHWGNNM6XbLMzqj1PjpTVL9wiax8+Xtb50altz0kPCxw7TSt+Ih9Px35ukFVGmdbuNsOENP1PExXKuec+WfXwDbLOKM+n9z4i1clqLolajBfdZUjvlisXmXHJLYPxotON4l6crru0N+cZYuHZdmLoHYJEpxW0bPfWHFnrkvfZJ56f0ZK2sWVbx65V04LBJXtD80JZi8aWFq/yskeubcmq4jgOpOv0FEO/SZ6MuRddtcroMbvyWXXsGG/r/bRpG7ABnWrQWN52DL0heP99cefo/LT/zcNS+Hg3eep6VOsd96cjxMgR7gb7aQlPcpNq1WFfhs21tDW42ThvuH/NBTQu59Jx/g/KMb97JSbt7eQpFxjPMbHcV2/KtMGHWhvbuz1eR7pX1zz0JLyE6tlLoo8QdyxVLD88WiCbuv1LTuh1n6z4/HrfOkpSHSs9L0fe+QepfOInUnfFVhk1PvBme037FsiOd++TolVfS51O6ZieK10GXSd9Lr5NjurbGpR+eMss+fbJOx153pPzJfcnb8nAmqvl09c3ScaV61SWGmnaJD88ealsQNpJ6Sxdxs+Rkce+I0vQMNbSKZTqHGu5SC83HWyp/Tx7nxTvqzUqLl2ly9i/ycizt8uqu507ljq88U5Z9ddZUo4bM+ciGXzLNOMherps2mXZLvLQzzL2Pdp+R1zx07EUCSYqdMJPb2tRboFM7JZqa11fKfzjf8zGxL63PwCqk5MdO2VCDL/oFvcpkKmZQc/F24Ldaz5D9kaXZ94dVz4tG+49yq3dIIc/+k9oL+WqP9DeHFycsEEeWm+ORIx0mVPQV2bqTt3awa8OkVrIlruG5Mk7QegYKWqfvUOHmr98gx1LhZ4QC3qDPbNkxT13ts2V7isDHpYxd94qGR0gOCgaoKAn7rD7Ujkvo0re3xq6WOHCoVNUb5tDNrXtkdITQf8EnZ4ti7OyZGFGsnwnlt5fTdBxyzBpkEFV9XJWRYXqtCVYtOkhM4jYuubp6arjGf9Jl6LsLHkmK0O+SxbjHDoLR3UOGxpkYsVBOb00OCkviy58Tmr+ONocs9AmP3xg0N5aeSR/g0x63xyJGB1D0If+2UtBH22EXtCDhjKpq3ZJG+kTnSW5q3P+eBJaKOiJO+y9VHJlW3Gxny9C/1AvFcTq3jpSxE03864ETVwZwnVx9zyZnWEIKhsvHWR+mXkwGJ0q+SdO/CGU3j1NUXauPNMtR97xs/zISDT1oGFbARUvdOdOQ3trBV8+rn2+UHqHMmOwT/h3DLEp6MP07PUDCvrQEx5BT2IGCnrijnCIOzv4+1IJ/DgMYdUnL2ihLkpoobdUc9wewRMPVkJ5ze0KeVcCPn8hFg60N/9Bb7L+9hYbyi9VsSjowwEFffRBQU+coKAn7gjLSyU9W+ZkZcn3CCVIce+JLKxz5H8a1NAgR1dUyMxe6C7ZN5oNMbPBEDO2CdFLBl7cS/buDawRaXYfKewV3G66QnPNgytQQXNdSUChBTreONjQ3uxBQe9MPDx7AQV96GE0CyEkghgCL7ePXD5kiBT26yUzu2XKO6mpHh/kiK3G8E5mpn9iHi+TAMQVRF9hv24hecEkJBjH06ufXJ4bQH+bpTsd6SyjGUM03FXQN6hiHiSkdpPzCvrIYnPcX/KLS+Ri3WlXkKC9kegnPM9eEj4o6AkhEUC/TAyBZ7xIQu2JGXbooJ8etlZC5cF1ZX03Q2T1yTbH/GfCzr1BF6ZBI9u41n3zAg6x8URCaqbcUpAr9jqALpWfH6o3fwcH2huJXsL77CXhg4KeEBJetKc2TC8ThGTMtPnJOlziSrM+s1cAntPgC9OgYIZnhPpaw1M/w+a5C6aXnvZGopYwP3tJeKGgJ4SEDxUbGTpPrTsuKbEZX20I0XCKKw08p3fZdJyGInwkIEIYa+2OdTl5MseWPg2eOKW9kagkAs9eEl58EvRNDXZSTpJYg9eZhBQVdhHehk7wlv7cVihzttyVl2H+Dj9v59mNCY8irykERJjPIeLD/5RnL/Qmv6JKCgMUp7Q3EpVE4NlLwo9Pgr5+91rzF4lneJ1JyDA9teF+odj1liITS6jS8vlCQkKm3GIzvjkYwjRgIpilAqE3z9g5ddUVMjFAbUp7I1FHhJ69JPz4JOgr18w1f5F4hteZhIQIeGoBMo2cZcdbapR3duScpa1kdLMXPlJdLFOrzN8RIV3m5EXWG/h2Nzte+mq5scT+iaO9kagjQs9eEhl8EvTV3y2S8s/nmGMkHsH1xXUmJLhky12R+tRbVWEr08ji7tHxaVqFj3S35zWdUBE5hbW4T2h7X/WJlAxZZEec1tfb9zbT3khUEcFnL4kIPjeKLf3kSTkw77dSu30lY63jBFxHXE9cV1xfQoILuliPXCjBJRU23KXR4i3V2PWallZEprFidp+QdfDjDxCn87NsnLgAwm5obwy7iR4i++wlkcGnnmIJIR0bO70VhjsFnxW/eiW0EMkye8JuT5GB9p4Za9fcFbs9yNo5Btpb4PamYU+xzsT6fajx6zwiVIhfF/zGZw89IYTEDLbCH9JlUUaK+Tt6WJeRZStrS//6Dp59xGbYTX5dg/nLD2hvtDdCIgwFPSEk7rAX/pAl86NPX9kXph08+wjCbr63cz1txNHT3mhvhEQaCnpCSFzR3FwnR9txFqakROUnXvvx4HUyyPzZUXk7y0YjTz/j6GlvJrQ3QiIKBT0hJM5okP7+hwDL4qzoTe+2zhB//lNvT2jGE8mpttJX9vcr6ob25oD2RkgkoaAnhMQX9fXS3/zpO+myLdn8GY1kZNnoydNfYRqHGMJ0m/nTH/yKB6e9mdDeCIkkFPSEkPiioc5Gb50p9uKtw0aybLMRBcGGivbOm1/Q3lqgvRESOSjoCSFxxTA7oiI9Vb4zf0Yjdht42srYQvw6b7S3VmhvhEQO5qEnhLRLLOVCtpPHOm4JIJ9zvOS/tmUPfpw32puFIOQPZx56Z5iHnvgKPfSEkLjBdsYRErd8lxq6mBvaGyEkWqCgJ4SQeIWpBO3B82YPnjdCIgYFPSEkjrCXQpAQe9DeCCHRAQU9IYSQuMVeTnVCCIktEsaOHctGsYQQrwzc9bX8fWu5OeYbOwpOlJ/2TjPHwsUheeiTb2WMOUby5MGxA2WBOeYPsXPN2+HQZln27V5zxFd8PW+0N2fs25vmnM2fyN1+Xq5Pjxkrd+WYI0HHzjUO/Dxo4uY+9Oc8dimQnx3XWzabo8Q3OkSWmy1btkivXr0kPT3UCYkJiU9iJdOCvYwU8Yz9bBtxk12jco9s2OlvGhrfzhvtzZXAs7swy40zzHJDfKVDhNxQzBNCCCGEkHilQwh6inlCCCGEEBKvsFEsIYQQQgghMQx7iiWEtEu8x9BHY8xppImX2F07xxHqGHram2cYQ+8MY+iJr9BDTwghhBBCSAxDQU8IiSOSZZuNJjP5dQ3mL0IM0lPlO/Ond2hvhJDogIKeEELq66WwmdGH8cigOn/DbcIA7Y0QEmQo6AkhcUNCQqp8z45BiUlzc50cXW+O+ENKik/xu7Q3Qki0QEFPCIkrvku1EQNRXSeDzJ+EFKUmm7/ah/ZGCIkGvGa56dKli2RnZ0taWpokJkZO+zc1NUlNTY2UlpZKebl/XSATQgInljIt2OsZNF3mFPSVmanMqqCJh+wadrPQ+JM1hfYWXJjlxhlmuSG+4lHQ9+zZU7KysmT//v1SVVWlRHWkQGUiIyNDlamiokKViRASPmJK0NeVyPtbiyXfHPeVaHwJRpK4EPS2bME/sU17Cy4U9M5Q0BNfcet2h2ceYr6oqEgJ6EiKeYD9oxwoD8qF8hFCiFtSUmSb+dMfmHkkDmmo81toGwbkX1w87Y0QEgW4FfQIs4EXPNJC3hWUB+VC+QghxD32UglKaYVczMwjccWwehstYn1OWamhvRFCIo9bQY+YeYTZRCMoF8pHCCHuQOaR+Vl2FFa9vYwoJCpBhpuJFf6FKih8zHCjob0RQqIBt4IeMevR5p3XoFyRbKBLCIl+1hmizH+q5fQqKqz4oUH629Dzi7MyzF++Q3sjhEQaKmNCSPyRkSWLzZ/+kF9cEnVhEPA0z9i+QdZv8HPYU2luoYNSVeF3dhs0Zlzov56nvWHo6PZGSIShoCeExB0JCZmy0FZTm1I5KzqjDf3Gn1zq8cglFf6mkjTwO37eAe2N9kZIpKGgJ4TEJW9n2Ws8P+HgoSjrlt9e6Mg2W2Eg8QFSSf7chp4vysqwnSqP9sYucwmJJBT0hJD4xGYYhFQXy9Ro8pqGM3QkThhmnDP/01VmyzM5AYhS2hshJIJQ0BNC4hKEQczOtZN9RGTCzr1RE9scztCReAAd2Ez1syMeRXZWQB0B0d6Cw3ep/p/D/nbSkxISZwRN0KcWjJXuVz0rPW94S3pc97p0Of23ktC5qzlXkyDJRx4naYUTpVPXIyWpx9GSNuxC9Z+QeGLcuHEybdo0ue2222TSpElhy8yEfWGfer8dnXU53e15TaVUHtobebcpxOlZYQ4dCYT8isg38hx26KAND7O97Dau0N4IIZEiKCojrfAC6TJumtTv/lpK3rpVyhY+KImZPSX73HslMU2L+gTJPPUm6XrmnYaInyTdLpklORc8rMR99sQH1DYiwRlnnNEigDBceuml5hxC7HH00UdLYWGhJBgvuB07dshHH30UtWlg451AvKZSulNmV0ZWnF6y198u50G6LMqIUDxztSFMd0TO24zY+Zl2vPPpuTI7CCEjtLfIwF53CRHp1LNnz3vN3y0Y0+TAgQPmmHcg2LNOvVmaasokuedAadjzrTTs+krqd6yUtEFnSEJKpjFtrSRm5UnG8VdLxaezpfKzZ6W5plRqNn4glZ//XRISO0nqgHFSt/VTkcb2b0x/yueNzp07yymnnCLp6a0P4OTkZPnhhx+itmMtEjm6dOkio0aNkvHjxyvB/u2335pzWjniiCPkrLPOkoyMDCkuLpb//Oc/Ul3dKjD69Okjp556qqpIwu4g+IPJ4MGDJScnR/0+dOiQbNq0Sf0OlJ7G/X1llX8vzdLMHHk5Lckcixz7OifJsAPl0t8c94f+5dVSaDzj5qeE3/vYXLlH3t5Xa475QXaeXJOdao7Yx841VzTUyhnVh2VXWqZsTArfeUO6xd/s+kEm2Cjy4rw+8kJqcMpKewuMfY018j/lfpYjMU0Wd+0s+0PylaBezvf7enaWj3sY9h+E8ti5DyvzR8iqwUcprRSuoUePHuodiY4/8UW6rq7OLI3Gj/OYnCmvd00L0fWMXwL20HfKyRdJSpWKpX+W2i1Lpcv42yTlqBOUwK83xD1EPkhobjT+NhsCH+K5WWo2fSj1u9ZgjnHx0qS56bAxGcuED3hSu3Z1DguCMQ4c6CgzIVZGjBghJ554onTv3l06depkTm0FAh1CHQ81iPl58+Y5iXkwbtw4GTp0qFoWHnwSegLymkq1TNi5Q2bUhddzCk/z+zttxD4YBCN0JGDgqd8a3vN2yd6tcqMN53ywvPMa2lsEqK6TQeZPItJYVizfffedbNiwIWwD9rd7926pqalR70DoKIh8Ej6CFtjb3NSkvO1WUS8JraKnsXK/1BUtl6xTbpbUvqPMqQmSdswkSRt4htSseV2aG2x4BwKgb9++kpTk8CBWVjo6xYDI6t27N3ujJX4D8f7KK6/I448/rv67inkSOdbl5MkcuxrLEFk3GuJ0dqWrxyk0FFbukfe3FtvI0mIQZHEaGDhvG2V+SWXI0zIWlmyXh2zp0XSZk5cT9Phv2lsAJKdKkfnTd+Inn38wgJYKd5gn9ldbW6u+DO/cuVMNKSkpkp+fr6IhSOgJWLU2HiqS5sYG6TzoDDXeIuonzJDOBWNML7yDqi9elprvPpKssbdKSp9RSsxnHHe5VK6YI3U7VplLhQeERhx55JHq9+HDh2XLli3qP4AHdsCAAeo3IST2SUhIlT/l5doQChp4TrfK/D2hE6cIGbl4z3aZu7PUnrgKkTgNlPzinTIXcfUh8Dq3nDM7cfMGRbl5MjNIoTZWaG/hJ/ry+XdsIO7hsS8rK1OiPjOToj7UJAwdOrTNHYCQAHxC8RV43CHS6/d8I9XfvCNJOX0l/fgfqzj5sgX3SVNdhbkkSJCMUZMlrfB8FS9f+flzUvu9f3kB/C2fOxA6MXr0aOWJLy0tlQ8++EDOPfdcyc52dA7yzTffyMcff6x+e+KYY46RE044Qa0Dz36z8TDZv3+//Pe//5XjjjtOCgoK1HKY9vLLL6vf4JprrlExZ2D16tUqFhtx13l5edLY2CjLli2TtWvXqvkA8drHH3+8dOvWTYV6YD+IT0N89KeffioNDe7j6+yWD6BCgxATlDM1NbVlfex369atsmLFCnWjWvH3uFzBTT9x4kRVq8fyOLavvvrKnOvA2zLWefX19TJ//nx1fdFOAuXCMWCdffv2yaJFi9Rx+4L1uNyh91VUVKQyy+jzivP07rvvOpXLE/oaICRn5MiRalpFRYW8/fbbUlJSosY13pZxt39XEO4D+x80aJCK9cd5ATgOlGPVqlXqWKzAA+qvaCrKLZCJ3YIXWxsMECe8wWZoQSvpsrhPnkzNDN6xwUs607awMsnuI4W9Ms2RwLFzzdujKDtXnumWI+8EQUQ311XKk2jEabeI6blyed/QClLam/8g086TG+00zjUIwTW1V55suWtIXkBpUDV2n70X9EhTXnN4xyGuI0lWVpb07p0kt729XMaZ07zi4TpCt+B93L9/f49RFNAp5eXlsmDBAnnjjTc6VEKKoMSVwLte9tGDkpCcLl3PvEuJ+fptn0rpB//rIuZBs1StelGqv35DKpY/5beYDxYQPdogEO+8d+9e9V+DxouIA3MH1oNAQ7w0GiBqQYT/8Pyfd955Sij5AgT6OeecI7169VLrY9Dx2WigC4EGUQxBqadjGdykMO4rrriiTTuAQMs3ZswYueCCC9Q5wH6s62McFQxs39qY2BVvxxUuEFKFShqOWR8DyoAyXXjhhWp6RwNxjT/96U9VhSAzM7PlvABUOBBuhnODSkM8kpDZSy63Hd+scXhP12/frsIi7HoFlYe0ZI/M37AhAC+pCV6AeVETa+OR/NJieWjrRuPc7ZEZNkNKmuscnuUNWwMQ82HyLtPe7JAs2+yesupimbtxh8xGmJebL0I4B4WG/RRWVhrnIvShYJEi64SL5fe//7088MADcuutt8rkyZOVYwttBCMBHE/FxaUSSC6kY489Vh0LNM1rr72mjs3dMGvWLNlu3CuXXHKJ3HDDDebaDqCJnnjiCbnnnns86rtYJmiB4g3FG6Vswb1y8JXrpeS1m6Ry5fPSXO/padss1WvekLqtn5jj4QVCVWcCQZiNzjSC/zrsBmIHgtAduDEgjLQYgtd627Ztsm7dOuW1hkc7NzdXzWsPiEtPwhJiFBUP7AflQqOT999/X309gDcVYF1X8RVo+VAhwLqIAcdXAHjWMeDzGWq/AOsjW4snvB1XOIBwxxcKHAtubn3sGtzM8FL7wsaNG+Xrr79WMYEatLnANAy4Hogb9ATmYRksq9tqAGxPbwP7CDVoBK6z6wB8rUAlFmVDWbRN4dwNHz685StAvLG+Wz+5y14v/c4Y9weE1lzj2imxVVIiF0NwGfebO7SQmLHHEFXbN8iGjVvlIeMlF5CwUkRnqI1XqkvlRohUQ1xC3EOAeTp3DhEGAVYis3HethrnrTSwLweL+/QNSaiNO2hv/oFwpflZgVSCjPOEMC9UHGFflgHnYK5hP3ON591DxRVx25A2Jbeg5Ysw3nX4Ggsn3ZVXXqkiHCJBSUmFBOIrP/3005W3/bHHHpO5c+eqL/PuBmiV+++/X71XTz75ZKWhoFfuuOMOmTJlijovcEpedNFF5pb9ZZzc/Y835c03XYeX5O7x5iIRImiCPpbA5xpdU0V6SqSpBBA1WnChsawOXbACbzhSA2qxjPCNf/3rXyqjycKFC+WFF15QAkkL3/aA5x2fw5YsWaJqlv/3f/+njBK1UV2hgJhfvny5CuuAwEYo0CeffNISaoMKCsI6QDDKh1bqK1eulOeee05VIBA+gwE3kVXUIpRGf+VwxdNxhQuIUtz8CKVCSAqOHbV6a5gNKhy+1NK//PJLWbx4sdO6OEeYhgHXwjX8yArmYRksi/U02J7eBvYRSnCdEH6lGyfBzhGOg8a7sCc8kBDyA3sBsH98AXL9+hMvvJ1XEByRpYHYMipHD0FwGYLBVUhg0ELixlJDVAWmRy0gHCN84jQkGOIeAszTuXOIMAiw4gA88q0gHGFqZnjPF+3NP9Z5CU8k9oGjD04dOHcigcNdag/oIYSW+uL8wrsf4b14j40aNUp57iHi8Z774x//qN7JnrSLzxTNk8suu6xleGKVyMhb35SZ15vzI0BQBX1CSobqJKrz0Z6jzTpl95GuZ98j3a9+Xrpd9Zxkjf1VS+dSWD/UQND069fPHHOE22gxhrgra9gNBJ+rlxkiH957AI8m4o2tYg6GBPHtGvfsCS3W16xZ4xTrhUoHQm7Anj171HwrVo8zapwQ9SAY5cM6WMZaHoBxVH50ZQDnUrc5cMXTcYWTzZs3y/fff2+O4R1Yrabp8qNSF6+C1RU8DNHYG+B6oFKHLxdWYCeouOmKIsKyjjrqKPU73oAX8J1eQw2RFWg4RCRxiKtwi9NYJlLtOmhvfpLRLYAsQcQbcMT96Ec/ankfhJNAE5N7+xLuDrzjIbbhuIWoh1MPX6ZDwbJHnpXV5YZ2O3ayOSX8BFfQJyRKQmqWJCS5f2Cm9DpWcibebyyYKBVLZkrVyn9IUvcBknnyzxzrGdNDDRp7ahEH0enasY817AaCRnu+NcirqmPBUQFAdhxX4Jm2imhvoEEuxLkVq1CG+ISgdyeusX+NDiEKZvlQSTjttNPk8ssvVzF4U6dOVWE22vvvDXfHFU5wDdEuwhXc2PqGxnHocxXvoGKqK4io2LizC4CwKt2pGrwbkXjoh5N3evULQoxzJEiXOQUU8/4QDY20aW++obIEdQ/mJw1iBZ56DPEO3vX4An377berkOXQskx2+ubHDRmhV9AaQ6ynHXuR1P3wlZQt+H+q06nElAxpqiuX5sOO2N1wAO+8zj0P4WINIQHWsBsIPtfW1NZGJWjoEaj32d02EOOsxRfKcNJJJ8ltt93WZnAXEhSM8uFGv+mmm1TNFplu4KVFhh2UyRcxD4JxbgIB+9bC1AqmRbJckQKVRH3tEPbjqadlVAKtWZPiseGQK4hxHloQSIrBMJOeK3cZ4ioaw2wgmqNRsC7uEz0Zl2hvvoEGxUENUyJOQNvEO4hSQPhweN7546RPN5Hq/c539rg7XrLE2b8pL91hbfM4WWa2mQbMOP3HWr39kx8zx8ffLS952F7Agj6pW3/pcsbvVBhN1mnTJTGju3QecrYax4CMN4rmJin78EGp+OT/MOKYBhobpKF4vTQYAr+5yb/ujf0FohSNNTXw1KMVtFUk33jjjU5hJPiNzB/u8DVO3hvwZIcKO+VDJQGNT3TYjm5QizCcd955R6WJ9OWTVSiPi4SPUH2ejDYSUrvJeUMKZE5Uh0Sky2JDMBf26xaUtI+hAoL18j7ZUSJY4VkeIsFM+RgMaG++gbYHDL0JDTpMlwSHyY9Nk5FdtsnCR5aZUxwifNqoYpmnY+1nrRYZNc2NgPeR/IvkzetFntXbe2+bpBvb03H7YfPQJ6SkS9rgs1T++bRhF0pS9lFSs+lDQ+Tfr4bKz58NeU+xEKu+ppPUwOONFuLu0KLXHb56st0BIa7FOGqWaDAJMe1tgNB2xU750KBWe/nRaBONaNGgFrnrkZs8lDVdfBnRmVY6KjgHoRDRCEHSNoXr66lLbnjk9dchoL9WdQTwmX8mQiL65MriKBMRyN8OL+nUKMvr74n1mb3kvII+ERWsOGeXD4neBsO0t/ZRoTd9KepDQUf4+hpSIK4tnvLh30Bkz5AXzdnwpJ+VL7LtPcu0pQ/Ks6uqDRE+SexF2m+TeTc8KC1VhuffdYrbD1jQHy7ZJuUf/1GJ8oolj0lT1UGp3dgq1Ku/elUtl5iWLekjfyKZo66T9OMul6QejvithE4p0vWsuyXjhGvUeChBuI0On0FYATJ6oBGsu8EqLNGjrM4OYm2Ugc4S3NVy8SXAk2DyBexDCymUF/uBmPY26EaugZYP8zQ4P4i3toKY6lDFnaOyoEUn9oHyu2KNBY9HrF9VkF7U3UPXWydXnkCIjW4bAkHvyTsDW9eVXtwjuBc6Guszu8nUfkOjQmgVpWcbwmqITOwV3V55dySkZkZGsBrnbA5CbIxzFgupPGlv3tGiPrYbFEcfnsIu4wkkDEHIcsAZbdzRkuXmCYeovnCmk0gfd+oQSS9fLe8+b04wWbYX79Rc6WMnxWXR2tbKgcKM2+/WR3XYFTYPvZX6nV+oikBSz0EqXCepe3+p2/Zfc25ogICxiliEkSCdI9L2uRuQDUUDUaVTSKKhpRb7EEZIiWTtYAlic+zYsW7FqD8gll+LOzTMRRpLXwhm+XDc1hsBqa7QqDhUIEzH2qMdjttadoh55JYP5OtHsIDo9bWvAU+4E+aokGkPPR5Grg2XkBveGjbmK2jsrSt7qCy52w5C0DBdV5iwvGuj8Y5Ei9AKu6c5XYqy+xj7NYRVv14xJ+RdCZtgNYV8oXHOZkZZiI0v0N48A1GPBsVDCxzCPmbaH0Qx1jTM8QredUjT+ec//9ljpEXgLJMHb5gn26S/XGSJec/vadzDXUbKNIsXXw0Xhq7tQlgFfXNjnVSteV2Sew6UnIsek5zzHzKmJkjp/N8bAj+0tyi889rLDk+la8o+V+D11sIYAkfnbUV2EGv2FAh9ZIBB76sYEJMPIaq9oXZBpwg6JziEHeLa0eUxjHPChAlqwP5+9rOfqQ4jNIGWz5rOEo1hkeEG+zr//PPl7LPPVufC6kUOJvDQW8uOrwXo1RQ9zmL/KAsqIqHaf3ugsqH3jYoGOv5CL76opfsaj2itsOD8Yl0cn+7kAsePBsUa5M7V1x2dgqAyZqdCg/2icZDeP86jw7twmbq+2D/2o9O0ui6PuOjCoUP9GqKlEWKgrDc9zTgmiFKIraA/rQx7WmxUEOEdLRzaTyb2yjT2G9tC3hUtWJUoy82WoqBoVohR87zFqJB3hfbmmYRUh7CfaJwbhx0ZlUScH+N4vNqTmo8h21jeOKfG8/qugjx5x4dnaUJCpkw1n2m+D0bFKEiOJ+uz90zjPfCj0aMt+xkqNxrv9LcMoWgdFl7QvtPHU6azaEZn8/MVJICAiIYDDj3nXnXVVSGKMHhR3l1Vbaj4s1o6lyrab4yXr5YnzPes83CtPLhULSWHWpMVBkxQBX1TXYUcenua1Gz8wJzSSmPZbil5fYpUG4K+5K1bZf8/LpP9z18uZR/+P2ksb5teMJhAyKNFtxZCntI5WsH8gwcPmmOOnlHhwYToRLy6Vfhi+4g9xwChhzCFXbt2mXMdoQv+glAXpFvS6SVRdnh04alHhz8YsD8IM6sXPdDyIV5fp8PEPhGCgX3BU4xtf/vtt+p/qPjiiy+cwoZQXvRsh/2jMoG88nbOZzBAp17Wxr54uAwbNkzZhq8PCaTO0uXH+UVFAMen2ztAQFtzwVuvO64FGilv3bpVzfMXnLvPP/9cbQMg2xP2j+uL+wMVR4CHIDrCsubwJw4gSiG2lKAYUmAILkMYKFEBgeoQDZ6xigp4kyEqChwv5n79ZKpRgY11b7wvKFHWrZdMhLg3z+EcQ+C3CDNzOVesguyuPsZ6Q7QYjd/zRnvzjMOOjEoizo9xPLAnq9B1GtR8DL2M5Y1zajxvY/HYkaXNtW0cnH/WiAJfwDtk/fr15lhsgK/FcPINMe779oAmQm/ncFwioQfEPI4XYvp3v/tdi5YLJo489Oky8vq7VfiLCq3pMkTG+hBak97Tpf/m8WNliI0mDhEJuQk3EC3WEBOIWe159AQutjXsBevr8Ad4ztFQdMOGDS1efCyHbeLmQo3Q2rCxvX15Avv55z//qQQeYuqtnmlsH9NQhs8++8yc6iCQ8mHd9957T+W+18tgXUz/8MMPQ569BhUYNPLFA8padhwrKjiRzG2PsqG3XpwbfS102Xy9xujQaenSpU7XEw8da78AOEb00Itzbt0P9otrZ/Xg+ws6+kLnGqhYQLhbt49xPPReffXViJ7nWAFhAOshDJSogEB1iAa3gkINVlEBbzJERXx8xbCLPoczDYHfIszcnruhlnNnCNFMYz3TQdNRoL0RvCfgoNPRBgDPbXxNtX7d9gb0D5JcWPuxCReB+MYXLFig3lPTp09XX+uPP/54t8O4cePknnvuUY6qFStWqMoLnJiPPPKIPP3000pX4D0HjRRclsmDS7epMJtJyDqjGqwaAv9W59h6NJad2ZLlZpl8sgme/YssPcyOk7uvH2lUx/0nYejQoa0q0QQeQ4jBaCXay4fa4dVXX90SIw3PLgRatBDt5SOERJ7Cku0yt9i5UXx7REPnTYTEM2gLiK+p6ATQCsKC0QOsa7srKxC3EPN454eb5uZK+fvGnTLaHPdKeq5c3jenTaUdIh2hoa79A1mB6EdlBRWAN954IwQRBcgRP01GlsyTy6Y7N1Ftmddlm8wzM94gdeVFTg741nka52WqZfWsZ0Wud96HWkba7lNN77ZanrjhQQr6UICGo4itRi0axrR8+XIVShItRHv5CCGRh4KekOgE7eDgrbeGpwJkoYOgh+BFZAISWyCbDRrAIowYnulIeOZBTk6CPLZ8vZxijnvFg6An3ukQITfBBo1L0UhRZwOxgswhY8aMafkkhpg3uzHPdon28hFCCCHEHgivQdstaygxQLs/tJNCpr5HH31UxY4//vjj8vLLL6vpkRLzKGdubrY4gmhJqKCH3gaTJk1SnVSh4SJuLDRARQNDZAhBow3dQBKfftAgAx7wcBLt5SOERD/00BMSvSBzC7zwiA939dRHE0gegcrHzp3fyqNfbJYJ5nSv0ENvC3roAwAecJ0lBNlOEJOuxTIaOqIxayTFcrSXjxBCCCH+g6/rSK+NjC3Wzi+jBZQH5UL5UM7KSnvJQYjvdDJE3r3m7xYQh4UaHzy40QYaQsDLbE0pGW4QjwaPN1IqQiDrxhk4X8h2gvRKaJARqa8I0V4+Qkj007OmTK6s8i9FbGlmjryclmSOEUJCCRxzyDyHXsXhBYfXXjvt0D4unBoOOgPlQHgNnIfQkah0oPEuyilSL+cfKBefulVKzpTXu6bJfnro/cJtyA06I4KgDyQ9XqiAseATTkfuwZIQQkINQ24IiS3gDYeoh3ccmXB03zvhAJUHpISE0xBC3pqKGSDLzZMbdzLkJoS4FfRoGY3USPhMEvyUP/ZBDRCtu9FqO1KNOwghpCNAQU8ICRYU9KHHbQw9xDK88xDP8IjrkI1Igf2jHCgPykUxTwghhBBCiAO3HnoNPPXZ2dmSlpYWUVGPrwToDQ2xYhTzhBASeuihJ4QEC3roQ49XQU8IIaRjQkFPCAkWFPShJ7KxNIQQQgghhJCAoKAnhBBCCCEkhqGgJ4QQQgghJIahoCeEEEIIISSGoaAnhBBCCCEkhqGgJ4QQQgghJIahoCeEEEIIISSG6RCCvrrav1zKhBBCCCHRAnUMaY8OIej37NnDm4EQQgghMQf0C3QMId7oED3FGsdo/iKEEOIL+d8vlcfWHjTHfGPX8LPl1qMzzTFCCNHsld+9tVxOMse80n24TB9/tBSZo8Q3OoSgJ4QQ4h+FJdtlbrF/XzaLcgtkYrdUc4wQQhw0N1fKkxt3ygRz3CvpuXJ53xxZn5BgTiC+wEaxhBBCCCGExDAU9IQQQgghhMQwFPSEEEIIIYTEMIyhJ4QQQgghIYMx9KGHHnpCCCGEEEJiGHroCSGEEEIIiWHooSeEEEIIISSGoaAnhBBCCCEkhqGgJ4QQQgghJIahoCeEEEIIISSGoaAnhBBCCCEkhqGgJ4QQQgghJIahoCeEEELikB6HD8tJ1dVSUF9vTiGExCvMQ08IIYTEGZNLSuTX+/ZJarPjFf9aTo7cl5enfhNC4g966AkhhJA4Ah75O4qLW8Q8uOrQITWNEBKfUNATQgghccSQ2lrzlzPw2mMghMQfFPSEEEJIHLErOdn81RZ46cdUVppjhJB4gYKeEEIIiSO+TktTgyce273boxefEBKbUNATQgghccbP+/Tx6KnPamyU//vhB5UFhxASH1DQxzlXXHGF3H333XLkkUeaUwghhMQ7FZ06yZS+fdV/d/RuaJBndu50ajhLCIldgiLok5OTZeTIkXLZZZfJVVddJeedd54cccQR5tzooEuXLvLrX/9afv7zn5tTggu2i+1jP8Q+PI+EEBIctqakyK+OOkrqEhLMKc4g7Gbmrl3mGCEklglY0KempsqZZ54pBQUFsm3bNlm3bp0kJiaqaUOGDDGX6njAIw7P+Pjx480pJBTgC0SoKwC8loSQWGVlerr8v169zLG2nFFRofLVE0Jim4AF/eDBgyUtLU0+/vhjWb16tXz77bfyn//8RzZv3iyFhYWSmZlpLimSkpIi48aNk5/85Cdy9dVXq9+YFg8888wz8pe//EXKy8vNKcQOPI+EEBJc3u7aVZ7t3t0ca8vNBw+qPPWEkNglYEGP0Jpdu3bJIZeHwaZNmyQhIaEl9KZTp04yZswY6datm/z3v/9V4h/zTjnlFDWfEEIIIaHhL8b79uOsLHOsLUxnSUhskzB06FDbLWIg0s844wwpLS2VlStXmlMdIATi7LPPlrVr18p3330nPXv2VCELWG7Hjh1qmQEDBshxxx0nH374oVSG+EGC8vzsZz+Tqqoq5QUGCNc46qij5N///rdceeWV6ksDQPn0MijzaaedJu+88458/fXXahpw3R5ivzMyMuTvf/+7/PjHP5a+ffuaSzqwbhMhHDfccEPL/mpqauQf//iH7N69W417AuXF+dI0NDS0KZcrWGfQoEFttu+6LXdlcC0nWLhwoSxdutQca4svZXRd5uDBg+q8wStvPY8Y1+e5u8W7hG3Bpi6++GLVfkPjui/sw7qMdT8A5Wjv+qM8gV5Lb8dLCCHhAg1gn9++XY4znlPuQAPaq/PzVew9ISS26GQI7XvN337TbDwc4GXPzs6WoqIiNa7Jy8tTYmnjxo1SXV2thFmfPn3Uclq8Z2VlSe/evZVAqg1xTlzE+qPhLkTfl19+qaYNGzZM+vfvr8KGIMLmzZunxNaoUaPUca1fv14tr8UYxjVoH4Dp2NZ24wF5wgknqPChr776SpYvX66O+5hjjpElS5aobet9Yp1rrrlGzf/rX/8qixYtEqNSJT/60Y9ky5YtUlFRoZZzBcIR6z799NPy/vvvq/VQ7uOPP97rejhGiOE1a9aoZXAdbrnlFnV9nn32WXXMugyovKByVlxc3CJUIZx1ORsbG9U2cbzu8KWMELeoYOh9f/HFF8pOsJ+6ujqn84hrpitNf/rTn9T2cH0QxrVs2TJVscCxQbCjjKgYouwAx3LhhReqdXD+sR9cfwy4jtiXL9cf1y2Qa9ne8RJCSLhoTEiQpcbz82y8C5qazKmtQPCPN97P7xvviepEJsEjJJYI+I6FmIFHdezYsZKenq7CbNBAFqII4mr//v1qOYTkQMBAGEGoYVkIKoj9UHvnvQHBDg+t9qjCu7tnzx4luiB+MR3HoMc1EGnwsEJ4+sPJJ5+s1luwYIE5RdT+AYSgJ1AOeIWtXt0VK1ao//j64SsQ1zj3EKZWL/Krr76qto3yAb1NCE8NBLQ377wvZczJyVHnU+8by7788stO62gg3FFWhG9pcH3effddc8w9uE4Q7qgo6vJi+xDcmIdzoGnv+nvDl2vpz/ESQkioOZCU1G46S+SoZzpLQmKLgAU9hPonn3yihMull16qPJannnqq7N27V8XKayDmIe4gkuC1xLLwrGIZiKpIAWGF7DxWcEwQkrpBry63FoL4DcH3g/HQ80eYwYMNYYv2A9b1UKFBxQbnsD3geX7ggQfUgPOIUA98IfEVeKOtAlOD8uB4UD6UU1fELrjgAjXuD97KiHOLEBZMbw99XhDyBG+4r8DrjuunKxMaHNPhw4db2nUAX66/O3y9lv4cLyGEhAOE1Ez38lxHSM6DLu8IQkh0E1DIjQYCBp56hBkguw3CO1xDcIBeDgIKXldkxAlX2IGnkBuIc3jZreVwDVNBXLReFuuiIS+EMSojOsTDGiqCbSGcCBUAeIl1iAq+XCDzz8CBA+X0009vGeDNhYAsKytrKZsrELS/+MUvVEVCh28gPARfCnCuPYXBWI8FX0/gVbaeAyvWZSH44a0+9thjlUBHORFy42k/wJcyIowF2xk9erTaJtbRITDAeh4hlD///HN1rvXyKJ819MndNUQ4FNbBPH2OMeCrESqRuGbYhrt1gfU84PoHci3bO15CCIkEO4znLLz1p3n4Qj7QeEalGO/wzzMyzCmEkGjGtqCHMNKi5uijj1ZeUQg5eC779eunxjHAMwsBCVGMRrS9evVS8dsQUthGuMJtAhH0mIf4f3haUWmBOEO558+fb67hm6DH8UPQ6VhshIBYB09iHmVEp10lJSXy+OOPqzIBnEeIV18F/YEDB2T48OFqenuCXh83BDXKhuk4bvy3CmqNP2XEf2wTlbuTTjpJVTJ0zLnreQQoK5bXwhj25u0awuZgm2gg+8orr7ScXz3o8vt6/QO9lt6OlxBCIsW6tDTJamry2Ej2BGP6buN5vLFzZ3MKISRasRVyAyGuPZ4QbEhF6WnIzc1VDV7hyUTYwYQJE2TEiBFKXGMbCL3Jz883txy96PChE088UYVaWOO6fUWHY8B7HAzg+ca18AeEgOiwGisQtqiQuQvHAW+88YYStL6EBVnxVkbsR8eco0ztgXh4fDVAmw2U1xM6XAj7DhV2rqW/x0sIIaHmEeMd7S2d5f/u2SMnGc86Qkh0Y0vQQ6RDVCGryNy5c70OH3zwgfJuQ/wnJSWZW2gF8dWIuQ+l+AoGEGMQivCwQsjBq+sNd4IPISSIuXYXU422B55i1bEeMr1YhTi8w/g64i9owIly3XDDDU77Q6pNhIpowYntT5o0Sf0GWBb7R4XAHb6W0fU49XXXItwKlsPyGl3pwH503Pq+ffvUdHwN0uBaoTEv9o9wIQ2Ww/a8VQbcEci19Od4CSEkEszo3dujFx6NY9FIFo1lCSHRi62QG4Q0QKR8//33TqEK7oCXHjHnVi8thBBEEsIaQGJiotomOqiqr69X04JNICE3GjSSRO58tBNwFfSuoSIY9D7xJUKHiSD8AnHlyAp01llnqXkYIEJdG3FawT6t8ez4MoJwDwhZX0NucCwoF8JokF7xzDPPbNk/Gos+9dRTKiwHYPv4mqLLiAoZQlXgqfeEL2VE5c26365duzpl3LGeR/xHGc455xy1LOLTUT6dAx6ggoFjxJcTnFOddlPHrlvPMdbHedCZe3y9/oFcy/aOlxBCIg3SWcJL7y2d5RnGvHeM51c901kSEpXY6lgKwhadRkEYoWGrNxBeg1SVVtC5FAS81SuPBrSrVq1ySpNICCGEkPAwpLZWXikq8piycmV6ukp5WWdUAAgh0YWtqja86zt37lSeTITTeAMeegBvKTyn8EzC6wnPKn4jvSXmIQMLRD4hhBBCwg/Cbn511FHmWFsQS890loREJ7az3ECcI3wAccqII+5sPAiamppUnDwy2SAsAeEz+A2PPsIWEGqD0Auk9IOoR/wz4qERF42sIciQgrAbQgghhIQfpLNEp1NjjHezO5DOEqxiOktCogpbITdW0AgSITU9evRQMc/wtEPYo9EgMsMgu41rg1d3ITcA4TuIWyaEEEJI5LijuFgml5SYY21BQ9r57SQYQENaDBtSUz32TEsICQ4BC/r2QEYc9PRpbRTrTtDDg//xxx8rLz0hhBBCIsszO3fKmEr3fcUgjv76fv3k67Q0c4ozl5SVtYTnYNkXu3WTv1h66SaEBJeQN1dHaM7WrVudeo1FthBki9FgHkJxKOYJIYSQ6GD6kUd6TWcJwe8unWWPw4fl1/v2mWOOZW8+eFA1uiWEhIaw5J9C7DxS/GlRjzh7xMwDTEOvmViGEEIIIdEBwmTQSPaAmz5kQFZjozy9Y4f6b2ViebkS9a5cS6cdISHDdqNYf4BoRy+jyGoDMY/wG/Qei0w5n332mcpnb/XgE0IIISTyQNR/lpEhF5eViTtZn2OI+eNqauT9rl1VPntw5aFDMtTSt4cGbexe87O3cUKIb4Q8hp4QQgghsQ06lkKPsZ6AUL8vL0/9fmvbNrfhNYilP37IEHOMEBJM2OUbIYQQQryCnmQfyc01x9py1aFDKk4e9HfjnQeIpS8IUW/whHR0KOgJIYQQ0i7IVOMtZAYNYafu3++xp1ngSewTQgKDgp4QQgghPgEv/aeZmeZYW6YeOGD+cs/wmhrzFyEkmFDQE0IIIcQnEAePdJZbU1LMKf7BkBtCQgMFPSGEEEJ8BplvpvTt6zGdpTcYckNIaKCgJ4QQQohf7EpOVjnq4bH3B3jovcXYE0LswbSVhBBCCPEIBDhyzY+qqjKniIyqrlb/IdDddSLljavz8+XrtDRzjBASDCjoCSGEEOIW5J//w969fot2byBfPTuYIiS4MOSGEEIIIW2AZz7YYh70Z8NYQoIOBT0hhBBC2gDvfLDFPGCmG0KCDwU9IYQQQtpQnhgaiYB4fEJIcKGgJ4QQQkgb0IHU/C5dzLHgkdXYGBLPPyEdGQp6QgghhLhlRu/eatjYubM5JTgMqa01fxFCgkGnnj173mv+JoQQQghxYnNqqspKg+F7Q9gj93ze4cMB5ZNfl5bG1JWEBBGmrSSEEEKI34yprJQxVVXqv78NXWf36CGze/Y0xwghgdIhBL1xjOYvQgghhASbI6qr5aTdu2VEcbEcbwzt8czxx8uC/v3NMUJIoNBDTwghhJCggVAceO1Pr6iQsVVVbRrAIh4fvcUidIcQEhwo6AkhhBASMtAAFsI+palJMo2hxhDyjRTzxA9WZWTIyvR0c4y4g4KeEEIIIWFh6v79MvXAAXOMEN9gm4v2YdpKQgghhBBCYhgKekIIIYQQQmIYCnpCCCGEEEJiGAp6QgghhBBCYhg2iiWEEEJIWPDUKBYZTFYxi0mHZxT6MzAGV9gotn0o6AkhhBASFjwJego2Amgf9mHIDSGEEEIIITEMBT0hhBBCCCExDAU9IYQQQgghMQwFPSGEEEIIITEMBT0hhBBCCCExDAU9IYQQQgghMQwFPSGEEEIIITFMh8pD36VLF8nOzpa0tDRJTGRdhtijqalJampqpLS0VMrLy82pnqHdxTf+2kMg0JbiG7u21NzcLAkJCeZYePF338wzTrwRbPuI5L0RbjqMoO9pGEJWVpbsN4ylqqpKPTgJsQOEVEZGhrKpiooKZVOeoN3FP/7YQyDQluKfcNlSJKGgJ96gfdinQ7h44NXCi7CoqEg9JPkiJIEA+4EdwZ5gV7Avd9DuOga+2kMg0JY6BuGwJUJIfNIhBD0+UcPTwZcgCSawJ9gV7MsdtLuORXv2EAi0pY5FKG2JEBKfdAhBj3hTfKImJNjArmBf7qDddTy82UMg0JY6Ht5sCXHB0YqnskVzmUnHIZ7tsEMIesQl0rNFQgHsylPjRNpdx8ObPQQCbanj4c2WormRn6eydZSGicEm89SfS/ern5dOXY80pzjT3nziTDzbYYcQ9IQQQgghhMQrFPSEEEIIIYQESGZmpuTl5Un//v1l0KBBMnTo0LANFPSEEEIIIYTYJCcnRwYMGCDdu3eXhoYG2bNnj3z//feyYcOGsA0U9IQQQkhHIiFRknoMkLTCiZJ+3GWSduzF0nng6ZKY0cNcgMQyiKvveePbrcN1r0rKUSPNua2kDTnX63Ku28G4FYznXPKEdC4Yq9b1tJ94JikpSfr27avSzELEb9++XQ4ePCi1tbVhb/dEQU8IIYR0ABJSMw0RdrP0uPZfkjNppmSefJOkH3uJZBz/Y8ka+yvpftWz0v3HzxnifoIS/bFGUrd8yZ70J0npPcKc0vFA49ikrr3l4MuTZf+cS9TQULzJuL63OjWchRjPHD1FKpc/3bJc9bfvmXNFss+9T1LzR0vJm1PVvLIP75e0Qae3EfWJnbtK2rAL5OCrN8v+F34s9T+sNufEP507d5b8/HyVkWrHjh1SXV1tzokMIbljhwwZIr/61a/kySeflBdffLFlwDimYz4hhBBCwkNKnxOl2yWzDJH2I2nYu06ksU6q17wmB/55rRx87Sap3/ONNNWUyuHSHwzRNkWyJz4gnTK6m2vHBo1lu6Wpoli6jL8trkR9YlpX6XbZbCdvuR7Shp5nLuUA56D0gz9IU12FOUUMoT5P/e+Ulaf+w4sOcQ4xX7PxAzUNVH35shLkmJ+cO1iqv3pVbQ9ges13i5TIt1YMElM6S9VXrzntryMAz/xRRx0lBw4cUB75aCCogn7UqFHy+OOPy/333y+nnXaaiinCJwccLP5jHNMxH8theUICpVOnTqohCnpV9HXA8liPEELinbTC86XLhBlyeN9GKX13uiR2zpL6veuleu1bxtxmaa6rlKrPnzN+Nsnh/Zul9N93SmJ6jmRf8IjyescKzY31UrFsllE5+VYdb8pRJ5hzYpummrIWT7nrULPhfXMpZ6zhNF3PvkdVCjplHqHmoXLXVF9rnKe1atwVzD9cXix12/5rTnHQeGiHEvC6YgCwncaKveZYx+HII4+UQ4cOSWlpqTmllZEjR8p1110nd999tzzwwAPqP8YxPZQkDB06NOAs+8iVO3nyZDn33HOVSEJDgLfeektWrVplLtEKRPyll14qRx99tDQ2NsoHH3ygvPehjDVC6180GCDxR69evWT06NG2OvOpqamR5cuXq7i3QPBkX7S7jkkorjttqWMSjOue2neUZI27TWq3LJHKz56TlH4nSdboX0rFkplK+FrJGHWdsfxJUjr/LjXe9Zx71f+yBfcqURkMpu7fL1MPHDDHWpndo4fM7tnTHHMPYvwR3pFy5HGGQM0xp7YlIbGTJKSkS1NDjZQv+pM07P7anBN7IMQFXnFcE+0tt+I6H971rmf8Vglt12mVK55XHnmE0ySkZUvZ/N+79axjfvKRw80xFxrrpOzjR5XHHvtOzhvmcTt2CMQ+wgWc04iZR5iNFeiRiy66SHnuPfHDDz/IvHnzAtYd7ghY0EPM//KXv1Se9/LyciXOly5das71zPjx41UlAN7SJUuWyN/+9reQiXq+DOMT3FBnnnmmlJSUKGGOluW+kpycrCoC3bp1k48++kgqKuw/jDzZl792d/zxx8uvf/1rycjIMKc4QHzeX/7yF/nqq6/MKW254447nL54vfvuu/LCCy+YYw5ct4+u5R988EHZuXOnGveFxx57TMUMuts+gBdi0qRJPm1blxkV/0ceecScGvuE4nnj7zbPP/98ufbaa5WdW/F2Xfr06aM8ST0tL01Py7tuv6ioSKZPn65++4LeV3Z2trz00kvyn//8x5zTirYPX7bdnl3GKoHaUmJqlnQ97z5pqj4k5R//UXmwIcKSeg6UsvfvkeaGWnNJB8m5Q6XLhN9Ixad/VYIN3vmuZ/9e6oo+l0p48IOALcGWkCgZJ05WjXjxNeFwSZEx0bN0wReITt0KDDG7S8oXPiiNlfvMObGHP4K+ubZCuk58QJprSlXYjcZV0LcnxH0V6r4u5w+xIOiRzQaC3BozDzF/4403+uRchDNxzpw5QRf1nYyHt6MKbpOrr75azjvvPPXg/+Mf/yhr1qwx5zgaDOCBlJqaqsS+FbQE/vbbb2XEiBEybNgwFY/0zTffmHODC15QiHOyC14U+PqALw+HDx82pzpz2WWXyTnnnCOnnHKKGnBR8SJyB5Y98cQT5bvvvlPbw/Z/+tOfKoGJdXv37t3mIY5ziXN9+umnq2WGDx8uW7duVS2pPeG6H1/LaF0O6+/bt6/NZyV/jhfo8mPZ9srtKz2MGxw1YYh53CD+gMojRDxyxcJ2AxH0nuzLX7vDA+HUU09VX63uuusuef3119Xw9ttvy969nj9pQvgUFhbKo48+Kk888YS6FhDV+P/11w7PlBbz69evl1tvvVU+++wzGTdunBqwjOv96Q5sAxVxfFlDZerDDz8057SC+3nw4MGq0lBfX9+yf1ewLZQxJSVFdu/eLZ9++qk5J3TABmEzlZWV5hTfQE5h3D+e7n1XAn3euMPfber8x//85z/VJ19tS//+9789XuuxY8eqbtFvv/12tezmzZuVfcAmrTaixfz777+v7BTLnXHGGTJmzBi3NuEO7As2AFuCU8jd9cf28CyELeH+xn7cgfJgWXwd3rRpk0ebCyaw/65du/rVCA49VOJ5hQq6r93PB2pLqQVjJW3wWSrmOX3EFarxa7Ih5iH00wafI+nHXuw0dB4wXolheOnThk2SzkefphrSdsrqKXXbV0pzvX/3jjtOMs4ZBldWpafLKhdnhoMEQzjeZJT3bKla9byUL/mz1G1ZagzL3A6H966T1KNPFzHKWv7xw9JYUSyp/cdIar9R0lC80dxm7JDS5wRJyu4jtZs/Niozbd9T1vlyuF5lK5LDtVL7/RJzCTGu5YWSfMQQqd/5pRw+8L10yuxpXOsx6nw0lrcVle3N12DfCOOp27xIVRaDgf/2EV4Qrot3iet9CQ2HlJW+AEcIQna++OILc0pwCCiG/thjj1UeUjyg4JmHULOCF8pvfvMbueaaa8wpzmB5rIf1sR1sL9qYMGGCXHzxxW08XRpcWLzc0g1je+qpp1TbAAyLFy82l3AGn2pw0fHSgaiFmL/gggtk2bJlaj14lzAfglmDdfA1Ay8PvX283K644go1zx2u+9Hb0+svWrRIjjvuOHV8VrCc9VjWrVunyodyanzdlhUIDF+N3R8gBiDK0dDa3wFewljvBhqiCGL+448/bvHgw4ZQuYIQwzECVL5gPy+//LIah8f1vffeUx5SVBJ9AZVIiHRUoCA0sG934EsJ7mks7wnMg5jHcuEC+zvppJPUc8lXsCzWwbrxDrzkuJ81sCfYFWzEei1hL7t27WrxhOvlIL4hrn0Bz3pUpFHBxLNF26krsCXYnLd3A+ZhGX++0AUKXupwwHgqtyt4zsCO4Lzy9C4JNgmdklW2msMHt0jlijlqqF7zhjQ31CiPe/XaN9sMVWteV17tpuqDLdNqjCEhMUk6559qbjm8pPYfbVQsJqgvBI54cS+e+bSu0uWs36vfZQvuM8SodoQ0q2w+2FY8Ay85vPOdcvq1NFzVDWCtwEuPzDfw2mO+JuOEa9Q4YucRQ++aGQfzsExHBve+q1MIsfHewmzcgeWDHVMfkKA/++yz1cHBu/L555+bU/0D62F9bAfbixbwArvtttuUUPWGfoG98cYbPnmd9QtAf8I+4YQT1GeXtWsdjVPQyALnBN5aLaLh9YSHyvpZGh5WTMM8d7juBxWAN998U/0G2B/mwahQKQHYH0T3J5980nIs2E9ZWZkqp8aXbVnBtPbOo13wcoRH+JhjjvF7wHrhern6AmrswB+PnBZa2n40GNdCDLaAawuRr+0BYBl8ebGKNU9gG6ggYBsrVqxQ07yth8q6J4Gnt7VlyxZzSniAhxnhfQMHDvRJ1GMZLIt1fPmCEU3gSwTA149AgC1CLGtQiUNlzp29tSe8NboSinXwVRYOBE+2hG3CZrG8uwqk3parMynU4Jm9cuVK9ULWz1pPaDGP+xHhqMH4OukLCendpVOXI6V200dSs+49NdRt/9wQ9NVSt2VJyzTXAXH1TXWVUmuIPowjg0nDwa2SfGQkHG4J0nnQWUalZKtR5vZDeQFChcoX3i+NVa2ZR+q2LVeZfbAtbDOeKV88U5pqy1qy4qBdRMUns1XsuxWE5CBrDRrM6sazKX1PUo2iUTE49PY0aTy03Sm7DgR+7ffunZUdBXz5dnVE2XVG213PE7YFPR5ieNlBEMBDGwhYH9vB9tp7OIYLCFtk54Gn2tMnXFcveHtoYQtBDOGu13f9lIwXGF5k8DxjHQhleFet+8BvNK5wJ6Jd9wNcX8AAsecwTgwA+0MlwRreofeDcuqvAb5sywq88yDYccUA5UOIyty5c/0esJ4v1y2aQIw6KlP4DyCEYBuulQA9DmGHZSAmXOP1YGd4MCGkob37DtuA8IIAg0cW3lXrFwBXtm3b5lHgwcOL8iAULNz4KupDKeYRIoVraB309QwnrrbkDteKAewAXyvc2RvsEGK/PbR4x3MEA9bz9pUIdoJ96vWs4MsTgL2FG19EfaTEPOiUlSsJiYmGsG29Volp2UahkswxzySkZBiLtb5X4OlGI1RMDyedMntIUnZvqSv6TJob2/8Cg4a7VV+85CTmHTRL/e61alvYZixR+dkzcvCV693GzwPX+VqM6yw4+F279ROVI96aohJgXWvGHCxrjYWH6LfOdy0H1nddJ96BE9Dq5ADQYXawu54nbAt6fDpEDCE8I4F6R/Q2sD1sNxpAyAwaa3l7AOuHuNXr6Q3E4kLw6pcP1seLylUwQFRjQIPN9nAnol334wueKg4AFRuUE9fHX1AJQNw8Kj2uNwFxBuIJ4hoNa7TQQ2O/9oAod7VBCDDr+cZvVxEGIMx9AcIctqErc/ivvwC4A/tCOIU7zyrWQciGu4phOGhP1IfaM48GwAhbsw7BbsiJL3ywpd///vcttoSKhD/g6wraR1nDuQBsydXzryuHvoDrD7vDNrEevvp4C+GCncBeXCuQ+I0vT7Azd7YdDryJ+kiKeYBMLypWv01ss7tprTQfbltONS0h0TimoGa6bp9OyYZKMYamRnNCAGAb2Ba2SYhN0FbHNYGLqwbzFbvrecL23Zmbm6sODI1bgwG2g+1hu7ECvNYQ3kcccYT8z//8jwrRwaBjzF1B2ArEsbXxKF6OCGmxggc/xJP1N7yjrp54T4Lf3X5c0QIey2kvPoCn3RWIGm9i3NO2ADxvmB4O8YaMSRMnTmwJQ8LLHuPW0CWMY7loBKLOKvLQCh5hK/hKpMWCXsZXAQhh1x6wLe2JdYcWTtaQHVxP2IS3T4YLFixQ/7UXFUAk4pgiJeY1nkR9qMV8uHCtNCD7CzLGWCuI7mxJe+0xXHXVVSrRga+2Btr72gPR7hqyg68+njzwGnzFhTC2evL1l55QJVPwFXeiPtJiHjQbAhblkE6u7T/cTWvF6pnXqGnNTUYFIbxd2Qu88k3GYFROAgbbwLZ88PQTEovYFvR4UKGWEqyXHraD7WG7sQIENUQ9HtzPPfecalD2zjvvKBGFF6UVT+E13tAi/ssvv1TecWs8Ml5+7jzmvu4H20Lt0NdwKbxwPQlhT9tCGVGWQEOyfAUNXXFN0McByor/7saxXCyANhP4SuQqZPzBNczGHagwevNwuhNOOuwGQt+TgHO3DCoAwQjTCwZWUY8vCRjiQcy7A6Icor69hqta5GNAqlRkRnrxxRc9es9dcfe1yIqu3FkFPX6315bD3TL4Dc+9u5SX4cYq6vv27RtxMQ+Q3aXZeKd2ymitrKMnWGluP1tTc32Vk6e+U5c8Y91Dano4QXlxHCkqJ7pz7DvKlDHqetUQtj3QQDg1/1Q5XLpLGisj8zWHxAc6M5cVOHbtYHc9T9gW9BB4vgLPkPb6YHj11Vc9vlT82W40gFR21kak8GIiM4y1USvQgsbby84VHf6CbSLdHLapvwJAeLhLedTefiD4f/7zn6ttIcWcq0fdE/DGuoocb9vCsSPlHRr4+rqPQNm4caP6woD0oigr/rsbx3Kxgg6dwTn2hDuvKBrYWu8l/Hbnhfc15hlxg9ZQIAy4xljfW2XD6lnVDRjR0Nqf+yCUaFGPdh4Y4lHMa3SlzdvXGCuokEHUA+tXFtiSbsCtgf3BDr2BZWAzrqFAcITAjrxVNmAvsBu9DAasEw0VQ40W9RDzcLZEUsyD5uqD0li+W1IKxqi0hRhS+50iCcnpkjrgtJZprkNKr2MkMTVTOg85V41nHH+VJHcvkIbd4f8Sgrh5pGNMyhumei/VQMx3PfMuSentW7KF1AHjJck4htrvFhpjvqUMJQ5Uj7PXveqUDacjg2xarjoV7QztYHc9T9gW9MhNjlqKaxiIFeT2Rmw8hJTr4Brage1ge9huLIFwGdcc4Tp2XXu0cWyujVQ1MAxXTzuWh3feCkT9X//615ZUkXgR6pAfXcvzth+AlylSiGJ5fFFwF5LjLowHx+FqwN62hXIgzzRecOEMrYAQmz9/fktfCCgTxnXZMB3j8STY4AF3FzKjxyHiPFUKtAjz5lXVIRLo/El7bvWA/OZY11fPqjvvbDQAe0CFFEO8inm7wH7gWNAVP0+VAozDDr21yYANoHKHLwWutoTwMuAthAt2o8O8UEFEuaLNlvDMQ2N7VAwjKeaBQwwvlhRDDGeefKMakIs+ITlNUvNPkfThl7UZMkZcKZ269pbE9O4t09KMobnpsNQWfWZuObzUbl4iNd+8LQlJqWpci3l8fShf+EA7PdgmSNrQ8yTzlJtUdhZku4lnILohviHC3YH+B3IueUIN+G0HpLHsfvXzqlOpjgg0j6vzwm7YX7DDBW0LejzYESLjrZUuhPu9994rv/vd75wGeGfgbbGC7WB7+oURC6BSglATdw0brB5tT41U9XzXUBa9TddKjxWIZpwz1PD0i8NbY1i8TJFPHy8cd419Me4pVh8VBxyPjvVvb1s65zwEo/6igAGVDWwfcbp4iQcbeO8Q94tei9EeA20JUOmwptyMNXCuUZnydONjOuZjOSsYh5CG4PEUHoNlILC8iSJv+8d20SARYs9TSIbVswrvPJbHetEGbB9DPAMhjPvYHxHsKtSxrrvwGG92ovG2f4TNIHzG1UataHuDHcGeoulLjxXkqMZxRgP1O1bK4UPbVSrHAy9cpTKVIJc7ppXM/YXKWmIdyj56SAnk8iWPOcYX3CvNdeUqb31ThefO7UJLs1R//aYhxj9VnRh1OeNOSexypEhTvWT+6BaVdtH98L/S/cd/l4yTbjCO+QOp/PzvalsdmfSRV6v/wezZtaOB+xtp1q2sXr3ab287lsd6wcS2oEcKQghS5PIOtCEr1sd2sL1QpDYMFRDOeIm5voCQ/hFoAeypkSo8+1gG4TNWsD1s11uWGohmePaty3jaj/bc4+UHz74n4NnHNlEx0OiKg27w6su28MLWXxKsAzLdQDQhTtdbOewCYYnQEHxlgAhBSBAahen/0Q4qPdaQA/xGlhFrnLBrqkEthNBTpxbVmAfBg46jtODRoS+6kzfY2IUXXqjW9dToEcsgs4iuGLjDU4XCCvaNbbQn+Ejw+MMf/uBUyYJNIPTRWqFytaUHH3zQyf5w/adMmaLuWWuHZBDSEN56PewH9ocvYJ7i2bEMhDgqBp4qdLAx2Kg3W9INrf2tmHRUINqqV7+iegnNOAnXK0Hqd38tnTKMZ2WPox0LWUAecnQ8hc6oEJueNW6aNNUa2/j6DXOJyJKY0UMSO3dVz/NOWb0kqfsAj0Nieo7Ubl1mVFxuUT3MolFvvIOKm7v0lADee/TsWr7ojwGJeaStRGUPKSs7IhD0SUlJSmNYmTdvXku0RHtgOSwfbGwLep1qEiIKD/NAwPrYjt5mrADhjHh5pGWEaAR40SH1pg57wXRPjVTh2YbIxYtTv8SwPLaH7Wphjm2iV0INxhGfbl3G23605x6Na72BfM+oYCBcRnvpIeiwro5V9XVbkQDnA50eoU0Dwr0gPFADxn9fu1qPJDjn1jh1/Eb3+tOnTzeXcA/mQyjpuGRUAvDlxCqu8BvTkOkHy6CChXAZb9uGTUJgwcY8eUIhqiDWveWkx7rYRrQ0YOwI4KufNU4dNoGwFmS/8QTuf6v9aRv5xS9+4XT9dQPbSZMmqeWwH1QUvG0btoTP1N5EOOZBqHtrk4HKAGw9Wr/0RCN1O1ZJ1ep/SeeBZ0jX038jjQe+l6aqfZI2/FLVWFSTlNNXOg8YJ3VFyw0x302yL3hExdJXLHuinbCW8NFQvN4oz+PSbAhSVExKXv+50xcG63DonV9L1crnjWNlI1jQWLFXSufN8JjPnvgOoidcww4RsYBnbHueeszHclg+2CQMHTrUttKBxwfpGiFMkd7MjhgvKChQYTgQM4gRR6xusEEqukA8/xMmTFBeak+9wWI+vNYaiF/94sKLDAId63pqHIplrC8xiHzkwddAwF9wwQWqVgjQEBeNZLWYB97247q+K9b94TpcccUVqnIA4J2zbtOfbbmC84SvEd7OhT+gYR6OGfGq3sKTPAFPPsJz0HDXNa+2P3iyr0DtjsQmobjutKWOSTCvOxqVZv3oFuOtn6g88Cm9hkn12rel6qvXJSE1Q7qc/ltJyu6jwnHg0UfvrBVLHnPTSVNgTDUqZFPdhNbONgTSbLOtRnuk9B4hXcbfJg37N0v5oj9Js5e8+tEA4s6zJz4k1V+9Kp2MihPi+jUIgXL1dsOb3vWM3xorOtoNHD60wylMBvPRa2vVir9L2nGXq8oYtlO/8wu1XuWK55289Iipzxw9xRwzaKyTso8fVR59K7qcOnMQKnJoSJx+zIUty+tlUPGzltt1XWA9NsTsd534gCqrpmH3WtV5lZVg2Ec4QDYrODwQveAKsl0hxBC6EQ5QeOQh5PGFOthhNlYCEvTgZz/7mZx77rlKzP/5z3+W4uJic077INTm9ttvV6IeDYn+/nfEuAWfSL0MtTjGhfQkcoNBuPYTbWRlZcmZZ56pxDy88P7ErSI0B189IOo/+ugj5dG3iyf7ogjrmITiutOWOibBvu4JqZmSbgjAtEFnOnp9bW6W5oZqQ20lORqdGuPw5FZ99ZrUbf0kJGEqwRJsEPXpJ1wjlZ/OlsMlzmGm0YYWu82GkK7f+WWLyNVC2yp89bTK5U8rUa6FMNCiXgt6bA/LaWGuKwJWQZ997n2SnDvYScCjQSsqFXofQK9b892iNmWxVgDcCXq9bkPxphaBjmnJuUOl6suX3c7X22mqLXOqrMSKoIdTEw5OtPvEV+pooFPPnj3vNX/bAh5ZCPJjjjlGxUnC0+mLqIdHe9q0adKvXz8VvjF79uyQhUUgnCcSjW0RM4q2AUhlFsoLHq79RBsQ8AgRwrEjlARfKXwdYK+I6UZFwF0N2x882Vek7I5EllBcd9pSxyTo172xXhp2rZHqb94xhOUqaSzdIYcPfC/1e75RAr7y8+dUvHzjIXQYGZr38UnV1WpwZVV6uqxqJ/WpFVQ8ajctVLnqo53Ezlkq5KmpbJdqcKzBuUebgNT80cb1WKky7UNA4/zjWgB8fWiq3CfpQ8+RpqoStU6nLr0kbeB4lbWnZv2/1XIA0zsX/EjqjWuM5SCkOw8+x9jnn5288fU/fCkpuYWS3OtYqd/2X7WPrNG/MLZ/0G35krv3N/b1X2ks39NyLI2lO9V2UOHIOu12Y3yXk7cdyzYYdgX0tq3zETYF+7MeFwiWfYQaJHFBBAPCkNGmw9f4+VBiO4Zeg4NCrCXCFpAWD+EzM2bMUI3y3IHpmI/lsDzWw/rYTryBsBuEEVlDY0JBuPYTjSAODZ15YUBcr6+DXicUcWyEEBLVNDcZAmqLIQbnqwwyNYbAr928iPHmIabOTerPxkM7JDGls3TKypOkngOVgK7+1rnBJCovTfW1KlzHCtb1BsKs4AE/vL9t2zqUJalLrtonvOWdcvp5LJ83sD62425d4G3bKNfh8mLV6VcsghBs6C60D0IIjmtD2XATsKAHOKiZM2eqLuoRU4QGchDpCPx/9NFHVXw9/mMc0zEfy2F5rOcuLp0QX0HPbWh5jixJvg5YHusRQggh0QDSciIGHWk3e974dsvQ7bLZTrHpAAK/sdJ7vz1JXd07Vl1BZQKVCjugzMBTWQLZdiyANo07duxQYbtwUiPqBG0QEQrt2qNsqAnq3j7++GOV5uzJJ5+UTZs2qRgjpHBEl/v4j3FMx3wsh+UJIYQQQjoqSpxX7FWiGA1Ryz68X/UZ4DromHVfOVy2y/zlHf0FwA6qzF7WDWTbsQQSfWzZskWF8KKNHsQ9tC/awYRrCHr1AaEzEOpIZTZ58mTVWBOdCOE/xjEd8+MxxIYQQgghxB3uQkswDWExzbUVSvwChMoEA4TL6LAaV7BfhLsg7AX7Rhk8lc8b7ZXZ27bbC9eJRfD1H30MoY8gpAJGo/ZwDeH9HkAIIYQQ0gFJPnK4yhyjQbYZTKvd8L7K8oIc8cgegww01uVUw9Nx09R/f0AGG2SWQYYZNJDVqP3mDpaqVS+o/WJAGVAWzNOgDJjmDZQZ6ThRZuu62F/GCdeobWM/2B8y7mgQW49MPSifNcUmsU+HEPT4GhDuWCbSMYBdefraRLvreHizh0CgLXU8vNlSNHeU56lssdC5X6ip+uKf0tkQvjo2Pm3Q6Sq8xipoEVaDdJLIdqOX637Ni3J43yYljv0FmWWQitIal4+sOiXv3O6U+QZlwH4hzFuXO1VNaw+si+PA8eh1HWkqHSlXsR/sD41j9Xy0C0DlxZr5JhzEsx0GnIc+FkDrY8Q3BZJrnBB3IBc+eulFoxhXaHcdD2/2EAi0pY5HqGwp0sRKnvFgonOuw5NNb7R3OqJ9BIsO4fJBbnbk86WHiwQT2BPsylPuf9pdx6I9ewgE2lLHIpS2RAiJTzrE2wFpCuHZQq9e8HrwpUgCAfYDO4I9wa5gX+6g3XUMfLWHQKAtdQzCYUuEkPikQ4TcaLp06SLZ2dmSlpbGFyKxDeJa0SscvGe+vHBpd/GNv/YQCLSl+MauLSEuGL1VRgJ/982QG4bceCPY9hHJeyPcdChBTwghhJDIwRhp4g3ah33o4iGEEEIIISSGoaAnhBBCCCEkhqGgJ4QQQgghJIahoCeEEEIIISSGoaAnhBBCCCEkhqGgJ4QQQgghJIahoCeEEEIIISSGoaAnhBBCCCEkhqGgJ4QQQgghJIahoCeEEEIIISSGoaAnhBBCCCEkhkkYOnRos/mbEEIIISRkTN2/X6YeOGCOtbIyPV1WGQPp2IyqrpaTjMGV2T16yOyePc0x4g4KekIIIYSEBU+CnhBvUNC3D0NuCCGEEEIIiWEo6AkhhBBCCIlhKOgJIYQQQgiJYSjoCSGEEEIIiWHYKJYQQgghYQEZTEZVVZljhPjGqowMlQmJeIaCnhBCCCGEkBiGITeEEEIIIYTEMBT0hBBCCCGExDAU9IQQQgghhMQsIv8fANEXk3JtU4IAAAAASUVORK5CYII=;" vertex="1" parent="1">
          <mxGeometry x="-1042.5" y="1620" width="460" height="164.29" as="geometry" />
        </mxCell>
        <mxCell id="dTqFi1dfQPmzT-X44cD1-67" value="" style="shape=image;verticalLabelPosition=bottom;labelBackgroundColor=default;verticalAlign=top;aspect=fixed;imageAspect=0;image=data:image/png,iVBORw0KGgoAAAANSUhEUgAAAcMAAAGUCAYAAABJDUmRAAAAAXNSR0IArs4c6QAAAARnQU1BAACxjwv8YQUAAAAJcEhZcwAADsMAAA7DAcdvqGQAAE/vSURBVHhe7d0JfBTl/QbwhyOEK9xHOMUghssCKkYQBax4VMQi1ipqEbWC/6pVK6BWa1VaFTzwasEba9GqwQsPjnKJSMQKCAQQjMiVaDgTCEdC+M8zO2+YLLvJJrubbJjny2fIzrtzvDPz7vzmfeed3WoAjliDiIiI5yS07Y7T7nwfCoYiIuJpDIgKhiIi4nnVnb8Srk5jkPp1OtJXLsTTQ5w0ERGpEsKqGQ5+Pg0TBiY4Y34OH0Ru1hrMeu1pTPh3GnKd5OPWuFSkj+hiv8ydNxYpf5hhvxYRkdgXvZphjXgktOmJYX9+FR8/MwxBQmbVMfA6PP3SDCyc+zQGO0nFfLYEa/Ksv3lbsGCmAqGISFXBe4aRCYZrX0XXrl2PDimDMfKBaVizy/d2s/Puw2t3JflGqqozLsGgvkloFh/vJPhZMRHDTre2/fTzMfZDJ01ERGKa6U0anZphbgbS3hmPYRfej4V2QIxHl/NGooqHQxEROY6YQJi7eWWUO9DkpiL1f9t9r5u1xTm+VyIiIpXKHQiXPXdV9HuTLvkpx/eiRrxVPwyg5WDc98YspC1LR3q6b1i2cAYm3zUYzZxJ3Nhpx55u+hh7vNnF92HabCeNw8plWPjB0xiVUtJdygSk3PQ0Zixc5povDbPeeBjD/eYbM9153+kcg8bnYIKZxxpSx/mSrSmRaqelYbJfb9LieW6G4Y/OwMKVzjLe/qNvIhERqRD+gbAw/0D0g+Gwk9r4XmzfguW+V0UShj6NhXMmYPipbZFgRcqDeQdx8DAQ3ywJ51w/AbPfHoOezrSB9ByXitkTh6NnmwTfvAetRCvoNus0CH986WM8PTRQQOyJMW8vxKu3D0JSM67Ums+aFzUS0PbUYbjPb75DXK5ZtsMeD5BeungMe3467huShGY1nKSatZwXIiJSEfL378GWha8VBUKKbjDswZqWrz6Y8flkpNmvHD3uw5t/GWQHhdwVr2L0wK7odXov9DolBSMnpYGNq/Hdh+P+cUHuNLa8BM+MSEL2vKcxMsWZt1dXnDPqVSzncxw1mmHQ3c/gumLxMAHDpkzByO4Mglsw+2+DkdLLms+at+vAsUjNYFC05rtrYlGP0aev8b3f6601voRdC3E/x51h+CRfckjqnomRAxOQ8d79GGzl2e5sdNlE500REakIB3Zsxob3xxcFQopOMGzZBcPuehWzXhuGttbowbWv4r6HMnzv2ZIw5oFhSGJMWj8No66aiIU/OW8hF2kvjMRt72yxXsejywV/DHyvsXEzxH8+HsP+MAVprocYt38+EcNvmgbGNSSk4PI7XMF0yESMPZvRMRcLHxqGP/474+jzjz/NwP1XPe1bVuMUDL81UK0yTO2T0NzK81V/TkXGcf/gpYhI1RGZYNh5ZNE9NHuYl4qHr09B25q5yLBqbqNHTCzeRNppJAZ1Zo1xOxZOGn9M8yktf3wh7PCZ2AWD+9pJftbg3btSAz/Mv2I83l3ua79M6j7M/kvXDU2xn3c8uGIaxrwXYM7c1zDDrlZaQbjvcF9aRGXgo8eD5FlERCpN9JpJ2Qz56MUY7Fdzs13a1a4xYlc6Fs6zU46Vuxxb7McymqN5JzuluE3pSC0hqqRu2Op70aaj0+Q5CL06+ppst656JWhASs1gjdQKh43bRv5RkO3fI22981pERGJGZIKh66H7lMH3Y9oqK9TEt8WgP3+MaTcHCCmm80jjc/Cwu0ZZbJiAcxpzong0SLSnLi4vx1dzDCK3wL9nSzzinfUmXe3qfeo/mF6jCc3R1fcqcrZbFwjOSxERiR0RrxnmZqRi/BXn4f7PWfdKQM+bJmJMoJodHXb1yixpKFOPzRAEWof/kJuDSK9WRERiU5SaSXORetc/fc2j8V0w/KFRgb+bNCetWM/MYEOZemw6BrVp7nth1cYW+F4VWfNO4PUUGy4cq1qciIhHRO+eYe5ruO215XbtKr7H9XhmhCscLt9iPzqBxs3RpbydNtt3xXXOy2Odg8HdfY/s525Z7twfnIHvnduIbdsH/KptERHxqOgFQ0vuP+/DtLUMh/zGl4kYZgLfzFQsy+KLLrj88XL+okXdnrj8z4EfyU+4eTTOse8zbseSd4/+gsTkz33BOaHvaNzXw5cWssPO37oN4HyNgIiIHCeiGgz5KMHEB2fA7p/Z+Bz88W+mRrYQT3+yxheYzr4Pqc//Eee09L1jNOs+DGNemoVX73ISjhGPpKunIPUv7q9tY9B9FR//X0/rXSsYp72C+1y9VXOfnYaF9tP8SRj+QiruG5pUPBAnJGHQiIeR+kGAn2la/L1vO+K74PxxJX0vjoiIVDVRDoaWFffjmTm+L+tudt5tmDDQfomMx6/D+I+3WAExHm0HjsLkeelI/3oZlnFYmY6Fbz+MkX3booHpeepvbSpeXVsLXa6cgIUrzXxpePX2FPtbbQ5mWMHuttf8HqGYgT/eOsX3DTUJXTD8bzOQZublr9SnzcDT44ahC7+mzd/iGVhuN7PGo8uIaU5e3d9NKiIiVVX0g6Flxp9fcZ41bIvB4x52vm80F6ljzsegMdOQlrHd/k5S1I1HPIeCg9iekYbUx0Zj1GP2xAHkYOJlIzFhZga2FzjzMQju2oLlb43FoMH3Y3bxSOiz4mkMP28knp65Blt2WXVTfoG4vV7fvGvmvYr7rx1jhU1/CzH2mvGYsd75FQ7OE5+LHOc3G0VEpOqqZg1HfC+rBv4CxISBCb5nG/W9niIiEgEVUjMUERGJZQqGIiLieQqGIiLieQqGIiLieQqGIiLieVWuN6mIiEikqWYoIiKep2AoIiKep2AoIiKep2AoIiKep2AoIiKep2AoIiKep2AoIiKep2AoIiKep2AoIiKep2AoIiKep2AoIiKep2AoIiKep2AoIiKep2AoIiKep2AoIiKep2AoIiKep2AoIiKep2AoIiKep2AoIiKep2AoIiKep2AoIiKep2AoIiKep2AoIiKep2AoIiKep2AoIiKep2AoIiKep2AoIiKep2AoIiKep2AoIiKep2AoIiKep2AoIiKep2AoIiKep2AoIiKep2AoIiKep2AoIiKep2AoIiKep2AoIiKep2AoIiKep2AoIiKep2AoIiKep2AoIiKep2AoIiKep2AoIiKep2AoIiKep2AoIiKep2AoIiKep2AoIiKep2AoIiKep2AoIlVC3bp1cdttt2HIkCFOSsk4HafnfCKlqWYNR3wvRURiy/nnn4/TTz/dfl2tWjXEx8fj8OHDyM/Pt9NKEhcXhxo1auDgwYM4csR3mvv6668xa9Ys+7WIm2qGIhKzateubQe0zMxMbNu2zQ6Ce/fuxdatW0sdOB2n53ycn8vh8kQCUc1QRGIWmzo7dOiAl156ya7dXXPNNfjxxx9Dqt2xVnnCCSfgjTfesGuVN954IzZu3IgPP/zQmULkKAXDSnLHHXfgm2++wYIFC5yU4rp3745Ro0ahVq1a9nhubi4mTpyIn376yR53M9O+++67Rcvj8jt37my/PnToEKZMmYJVq1bZ40b//v0xfPhwZwyYP38+3nzzTWfsWP7rCTWP/tOtXbsWTz31lP3aaNmyJcaMGYOEhAR7PFie3Uz+S8u3VF3uYJiXl+eklh3vGyoYSkkUDCuY+6Q/bdq0gMHQnOSDve/vqquuwsknn4zHH38c+/btswNhgwYNisb5ft++fYsFF/80k6///e9/QQOLez0nnngirrvuOrz22mv2/PXq1cNdd91lb5c7IPoHULMeNmOZgGjSPvroo2LBPCkpKWhANOtr3bq1guFxjMEwJSXFGQtfWlqagqEEVMMa/up7KdHEk/e9995rf7jZCYBWrlxpN/m4MXj87ne/w3/+85+QAiGXe8kll+C7776za5qc/5xzzrGDAwMO/fDDD+jZsyfatm2LJUuW2MHn8ssvx/vvv4+lS5fa0zBosqPBgAEDsGLFCnvczX89HOe8HCfem9mxY4d94vr555+Ltuvqq6/Grl278NZbb9njZj1nnXUWNm/ebE9bv359ezkmL8Q8c1nsLBEoGDKQcyBe7QeaRqq+5ORk+z7f1KlTsWjRIrv8lmdYvny5fQHHsrhu3Tpn6SJHqQNNBeEJ39QG//KXv9hNioGccsop2L59u93rLRTsacflzp071x7n/Fw2g4nBAMRg06ZNGzsQsvmUAZnBy43Nl2SaV93818Plu9dB2dnZdqBjbY24Lq6TwdON6+F0zCuxFrl69Wr7tcHOD9yOxMREJ+UoBmIG7U8//TTofpTjBy+Idu7caX8u3APL0LnnnotGjRrZ4/zLcaZznMGvT58+yMnJsefnckSCKX8wHJeK9PQ0TA7tkZ9ixkxPR/oXkzHYGS/VkMlIS09H6jhnvAriCZ/NeiXV9niSZzMkA5d/zSyYU0891a4Bcvlmfn74/ednjzoGwObNmzspwZlg5uZeT6iCBd2SAl0oWLsm1mDFu/joBMsqL9KIfznOdGrcuLFdxtiLVKQ0qhnGEFN7ZODiPTPeL+Pw7LPP2s2f/pjGmtfs2bOdFJ+srCzn1VEMSLxiNq+padOm9l+DgdI04boFW48/E/zY/GtwnawxujFQM2CXhFf1zZo1O6ZWybycdtppSE1NDatDhVR9rO1NmjQJy5Yts8f5l+NMJ/Y4ffHFF7F//357XKQklRIMJ17WFV3PGo0ZznipPhyNlK5dMewxZ/w4ZYIRO88wCLDjCYeMjAz7r39ADNQkWhIumwGQ99e4TN43NMtkrXLw4MFFAdMtlPVwOVze4sWLQ75/x04+XK8/Nq+ycw7z6K5Jc9phw4bZnXx0j9B7/L+BhhdLvA9vOtjwL8eZTpxO30AjoVLNMAbxnpo7CPA+I4PUoEGDnJTyNalyGaZWyJ6cDDa33nqrXft89NFH8d///veYe3ChrIe9TLkcLq8svToDNeeyJ+1DDz1k5+OFF15wUn1uuukm+696A3oTWwJef/11zJkzxx5nDXDy5MnFaoYcNzVDTsfp1YIgoYhoMLTvBU4fU3SPL90Z0p4vfncw2D3Dwc+nFc3jG1JhLS3IPcMxSC02rTVw3S5F+bHvb3IaZ3kxzr9pkPfpeL/OXZPy79DiFuheHGuE/k2gDIim9slgtmnTpqJmWqOk9RCbc9mZhQHb/9lB4jr971NyG7gt/hhUzXODDz74YLFAySDJRy3YPBpq8JfjC59TPfvss9GtWzd7nOXovPPOQ/v27e1x/uW4+YxwOk5vnm8VKUnka4adRyLdCloPd+2KrhymrkHCwAmldn5h4JowEFh4tzOfNbzq69wY0ODnLwemHp22690LkWut2z/wouXlSEtZ4kw3DBOd5Fjk3xvTn7smFahDC9/jNIGaH7nMQPfv3EwvUtOrlIJ1nOHyH3jgATtA8Z5moI5Bwe5Nmnuj7nub7qDqX7vkuvgeT2qmJsuBNUguh+8Fu68qxw92hOGFHjvGkDrQSCRFoZl0DV513w987FUs3AV0SSmhTmbV3EZ2zrUCYQpGu1rAJl4WPHjN+ENK8XuIH47Gu9Y5PKFVFyfB0XgL3r0slkPgUaYGyGZJdzAzjyiY4MGTfrAOLaxV8p4JO6AYXBaXWVJvUBNw3NOUtB7WGLkeBqVg9+94j5Fd3BlQ3fw72nA9DKrBvmSAQZ41RVOLNYN5RIU1SQZJ3Uc8vrEjDDvEmK9iUwcaiaTIB8O1S/wC2Ax8z3Nry45BH6UYk2IFsF3LMKPMt4IGY/IXR5tJR7Ji47+eXdlWeK46GBB4hWs6CZD5yrSSniU0+HwiAxA7mpiAymVxmVy2MXLkSDvIGrwf5z9NSethgOM9wpICEIMYAxWDH5s5ievkw/vujjZcD/Mc6rOV4k1l7UAjUhYx0IFmMDrynPzT96H3LrXY9wPTJ6DX8rFFTaUBm1XLuNzKxloZv86Mjw+Y5kA2e7JJku+ZWl6wDi1M49el0ZNPPmnPz2X5f2coH1BmM6NZB/E5SDNNaeshBjkzv3vg+k2gZU2PAZYBne9xnYG+8o3NWya/7kHNn2KUtQONSFmU/7tJ2SllRNtiTZsMUCPxKrr6NUva6S0XYqzTfBpwPMB8RdiB5tFzsGWq83hFgHVTmZdbBbGGxZpVsC/tjpSKWo9ISVgL7NGjB7Zs2YLCwkInteyqV69ufx0hv6hBvZElkBioGQJrMnOtasaZYfb0HIMzj/0WseNKoPt60VBR6xEpzYEDB+yvUWvVqpV9/7q8A+fncrg8kWBYMyz7MC71SHp62pHJQ46mWTWxI+nTxxSfzqR/MfnI4CDjwOAjk7+w0tJTj1gB0TWfMz5k8pG09PQjqeOc95zxtOcHu6bl/AHWEyA/GjRo0KBBg3uIiZohO9mMPov3/LpgpHlmkB1i4N8Zx8FvpHEe2TDTnplW8qMYIiIiwej3DEVExPNipGYoIiJSeRQMRUTE8xQMRUTE8xQMRUTE8xQMRUTE8xQMRUTE8xQMRUTE8xQMw3DWWWcV/ZaaiBw/+Lnm51u8Qw/dh4G/4H7ppZfa33soIsePzMxMfPDBByX+GLYcXxQMRUTE89RMKiIinqdgKCIinqdgKCIinqdgKCIinqdgKCIinqdgKCIinqdgKCIinqdgKCIinqdgKCIinqdgKCIinqdgKCIinqdgKCIinqdgKCIinqdgKCIinqdgKCIinqdgKCIinqdgKCIinqdgKCIinqdgKCIinqdgKCIinqdgKCIinqdgKCIinqdgKCIinqdgKCIinqdgKCIinqdgKCIinqdgKCIinqdgKCIinqdgKCIinqdgKCIinqdgKCIinqdgKCIinqdgKCIinqdgKCIinqdgKCIinqdgKCIinqdgKCIinqdgKCIinqdgKCIinqdgKCIinqdgKCIinqdgKCIinqdgKCIinqdgKCIinlfNGo74XkZQ7eZIPiUZSSckoXk9a3xfNjJ+zMC6leuQfcA3iUg4unTp4rw6fqxZs8b+ezxuW3mZfSISbRENhjXb9MMVvxmIbs1r+xIKC3DgQAFq1q6Nmk4d9MBPqzEv9W0s2lrgS7DUbtwYdfbvwi4FSgmRgqE3KBhKRYlMMKzeGKf/dhSGdk+wol02Vi/6FLO/9KsFsrbYZxAu6tcNjJW5q97DlP98jV2F7XHJXaOQ/N0UPP7hJmdikZIpGHqDgqFUlPDvGVqB8MyRt1uBsA62pU3Dow9PwrR5AZpDrSC5bt40TPrb45iWtg11ug/F7TcNQHPdtRQRkUoWdihKvmwULkkCMj58HM9/uBq5TnpQhbuw+sPnrVpgBtBuEG65Khk1nbfk+PXcc88hLS0N/fr1c1IkGu6++268/vrr6NWrl5MiIqEILxiefAWG9krArrSX8XJaqWGwmFx7nl2o2XUATm/oJMaQsWPHIj09/Zhh+vTpzhSxRwEnuIsvvhhPP/002rVr56R4C7f/rbfesoOliBwrjGBYG/3O7YGE3K8xvSz3+loNwh/+fD/ut4YRpyT40mK0qfTQoUN45JFH0LVrV3u46aab0KZNG8yZMwcnnXSSM1XFY7Bj0GPAltIxAFx//fWIj493Urzn3HPPxfLly/Hoo486KSLiVv4w1PRsnG5dZG/78lNkOEkhObQL27b8iB/t4Xus+26dPXyfWbaaZWVYtGgRUlNT0axZM/Tp08dJjR233HILUlJS7HwKMGLECPt49e7d20nxJu6HevXq4d///reTIiL+yh8MGwP5OzZh9aoyPg+x42u8N/V1vO43vLd0lzNBbMvMzMTBgwedMYllrVq1QnZ2Nm6//XYsXbrUSS27hIQENG/e3BkLTbVq1dC2bVvUqFHDSak8GzduxOjRo7F582YnJTK4fXFxcc5YaBo2bIimTZs6YyKxo/zBcMNsPP/kFMzf4Yx7BE+w9MMPP9h/yTRbmvuK/vftrr32WjuNf3nP0X0PMlBTJ6djk5aZxt0sy/lfeOEF+wR93XXX2e+b+5j+9wzdzalmvaXd8/S/V8p8MD/kv50cAi0vUP7r1q3rvHsU8+telntdkcAmwUgEgfr166Nv374h329kIDzjjDPQrVu3MgeLsjD3AVn75TB58mTUru084+vgNDfffLNdOzRMjdk9uN8PBYP8iSeeiLPPPjvkbWQQHDBgAJo0aeKkiMSOGL1bF5t4oh4+fLhdyzBNkUzjSZ1p5t7i1q1b8cQTTxQLiMRmzCVLlhRNN3fuXDuguQMiX99zzz2YNm2aPc2QIUPsdJ7oGBAvu+wy+95lbm4uXnvtNXsappXkkksuKVpvSdNyO5gfs1wOs2fPdt4FrrzySvvEad7j/dSkpCR7PsM//xzWrl2LM88805nCh/umdevW9vaZ6TIyMux95L/fKhtbA7766iuceuqppQZEEwgbNWqEBQsW4MCB6HyTBIMX74N++umnGDZsmD2wBnjKKac4UwTG/P/iF7/A+PHji+Zj2b3ooovswBmqw4cPY/HixcjPzw8pIDIQ8rjyomf9+vVOqkjsUDAsQa1atewTu6m58AR0+eWX2ydsY+jQodi+fTsmTZrkpABPPvmk/ZfBw2DnDZ50JkyY4KT4giMDxfnnn28HOg58zTQz3YYNGzB16lT7PmVpQS8YNhW61xsIgzpPVgyE7mnHjBmDf/3rX/Zr5tf9HtMZwBjUyOSfQT7QdrrxYoLbw+0z3nvvPfsvaxyxJpSAWFGBkOvnPWuWJ5YNgzVhBsSSsJb8pz/9CcuWLXNSgJkzZ9qdxVjGyiLUgKhAKFVB5QfDpgMw6s4/YFDldc4Myt2blEGCJ33efzL4AWfv0lmzZhU7qWdlZdk1NxMkiPcZ2cTob9u2bXaTZ2Jion2C42sTFAw2yXL+9u3bOyllw3WUhh1vuA6e3ErCgMdmT3OB0LlzZzRo0MBON/kPtp2BuJtleeHB+U1TdKwpKSBWVCAk1uzY7Lxy5Uon5She+ITC3cR633332R1syrPfSwuICoRSVZQ7GDbuPRS/G/E7v2EoTi/jvfHa3buhfVPrAxTj/WdY02GNhx9sc1+LNRjW+My9OzN8+OGHxQJhqHgyYjBw10Y5mHuE5bVpU+mPvjC/DOAM5MHw/iC3jbU8dxOowfyH+vgC9yHvEbKZjs2+XBYvPHgBEssCBcSKDITEGhxbLcqDD+PzoXzuf9bsuf/ZZLpv3z5nirILFhAVCKUqKXcwTGjVEcknJ9tDx7Yn4AR7aI3GZfqMJuGiPlbQ2Pw1Pq8CHXF4Jc3aE5tGydTY3PfY3EOozZomCPFEy9fuZxvdg7t5NtJKqz2yBsf7g8xbsHww/9wfpWEtkk3ObGKtio+CuAMia+sVGQiJzfLlvWi45pprkJeXZzd/f/zxx05q+PwDIls6FAilKgmvmbTQ9yd35VQ8/LeHreF5zM70pYWi/ZDLcHpCLlbMXYTon0LCZ54zZNMgg4NpDvXvHBIIa0w88bsxKHBZOTk5djOr6aHqP11FYO2xrM9PmmZiI1j+zXaWhvOVt8ZT0UxAZCDk4wIVFQjJXLj4d5ZhTbVDhw7OWOjY7Mpm0nC5AyJ7jSoQSlUSXjDc8zXmpxegccoNuCGlbM14CfY8jVGQ/ine/s5JrALYVMiTETuKEO8X8kTv7lFJL7/8sh0s3NxNrMSmVwYgc4+QwZadIvhtIQy2BoPJK6+8Yv+lsgThUDEvrKmxc4U7jxMnTrTHefInd6C78847izXfBss/77O6m40Z+HkBwEBq9hHX4b+/Yh33yWeffYb58+dXWCAkdn5hoOGXCbgfibj66qtLfR6S9xRZi2UAJDab/vKXv7RfR4IJiNwvCoRSlYTZgaYA6958DrM3A0lD7sIfLkwK4Uu3E9BtyB9w15AkYPNsPPfmCie9auCJnAHQdKZhEGHTIU/kPEGZYf/+/cWa/9h8yMcN2MRopmEw4LjprUkcZ7Or+z6kuU9nOumYPDAI8/3Snh0MFZt1mWf3PUueLL/88ks7j8w/A515j49r+PcSZf7NIyNmOmKaG4MlAzrvh3IantRffPHFmL9n6G/v3r2Vkmf2HOWFBx9NMc8KEtNKwvn46A8fy+A8d9xxh938H849Q38MiLt373bGRKqGcv+eYXsr+I06eR2mPP4RNoX1e4bO+8cx1noYJFh7dAc+KT/9nqE36PcMpaKU/8d9azdG4zr7scv18/T2L90PG4huLUv4pfvs1Zj3TvFfuj/eKRhGnoKhNygYSkXhFyf+1feyjAoO2IHOrTB3E1amLcTcxSuxddcu5FpxMv/AHuzavBZL0+bjYysIfrpoJTbleqA66NKjRw+7owU7XHz77bdOqoSjrN8VWhWwlygdj9tWXmafiERbmPcMg+Cv2i9dhE/fdb6I+91PsWhpgF+/FxERiQHlbyYVqURqJvUGNZNKRYlOzVBERKQKUTAUERHPUzAUERHP0z1DERHxPNUMRUTE8xQMRUTE8xQMRUTE8xQMRUTE8xQMRUTE8xQMRUTE8xQMRUTE8xQMRUTE8xQMRUTE8xQMRUTE8xQMRUTE8xQMRUTE8xQMRUTE8xQMRUTE8xQMRUTE8xQMRUTE8xQMRUTE8xQMRUTE8xQMRUTE8xQMRUTE8xQMRUTE8xQMRUTE8xQMRUTE8xQMRUTE8xQMRUTE8xQMRUTE8xQMRUTE8xQMRUTE8xQMRUTE86pZwxHfSwlX/dad0aTLADRMOt1+XbtJO8TVbYRqNWriyOEC5OftxoGdm7F321rsyfgaO9fMt19XBY1PPgtNkvuhQYdTUS+xE+IbtULN2vXt9woO7MXB3ZnYl7UeORu/wc51i7Druy/s92KdjpmOWSxReay88qhgGKYateqg7YAb0LrPVWhwQk8nNXQ5Py7Hti/fxJb5L+Pwof1Oamyo2yIJbftfj1ZnXoHajds4qaE5sGsrMpe8jS0LXkHezxlOamzQMQtMx6xyqDwGVtHlUcEwDEkXj8GJF92BmnUbOinlV5C3Bz98+hQyPp7opFSeWg1a4KRL70W7gb93UsKzed6L2PDB33Eo52cnpfLomIVGx6xiqDyGpiLKo4JhOTTtOhDJVz6GhLbdnJTIyd2yGuveGocd6fOclIrV9uwR1rY9ipp1GjgpkVGwP8farrux5fOpTkrF0jErOx2z6FF5LLtol8ca1vBX30sJBa/iTvn9S4i3rnyigctt3Xc4Cg/tx+4NS5zUitH12kk4aehfUD0u3kmJHC6zRa+L7e3L/vYzJ7Vi6JiVj45ZdKg8lk+0y6OCYRl0tq7kOg652xmLrqbdzkVcnYbYvmqOkxJdvW79j33PItoanngaGrTvgayv3nVSokvHLHw6ZpGj8hi+aJVHBcMQsRCfcP4tzljFaNTxjAopzCzELXoNdsair16rkyvk5KpjFjk6ZuFTeYycaJRHBcMQsFmjoq7m/LEwR7O5g80aFXE154+FOVrNHaRjFnk6ZuWn8hh5kS6PCoal4I1utu9XJjZ37F7/JfZnb3RSIoM3utm+X1nY3HFw51bkbFrhpESGjln06JiVncpj9ESyPOobaErBHl+xINL5YNdn9viqbMwD8xJJOmbRpWNWNiqP0RWp8qiaYQn4DBAfFo0FbA44UpCPXesXOynhSb7ib2jcqa8zVnnYQ6xmfL2INXXomEWfjlnoVB6jL1LlUTXDIPitEGznjyXMD/MVLn4rRKQeho0E5oV5CpeOWcXRMSudymPFiUR5VDAMgl+PFIlvhYgk5of5Che/HinWRCJPOmYVS8esZCqPFSvcPCkYBlEZvaNCEYl8xUqzjVsk8qRjVrF0zEqm8lixws2TgmEA/Lb48nxhbkVgvpi/8uI3x5f1C3MrAvPEvJWXjlnF0zELTuWx4oVbHhUMA+BPqIStX218NrIOHo38Vw+GlT/+hEpZDbuwjrUtdfHZZbWclODuuMyazpr2hbKvplx5M8I7ZrXwArdvZG0EvMNjH8u6ePfCOCeh7Cr6mJXEPkYhHMtQVNYx85WzIMfLFodHr7amuToew5yUsgrrmIVVHo8q+uy5hwgcu8opj84x8d8eDmEcJ7dwyqOCYQD8LbFYFk7++Fti5dawRsnBvVs8zgrjFkk4eQvvmB3CTV8dxl7r43DWMQHPCpSdrI/JngJc/lm+k1Z2lXbMoqyyjtlTPxda/1dHl2Dnvm7VcZIVM/buKESqk1RW4eQvvPJIvsDx+6aFePHVPFxoBruchq9Sy6P1WSraHmeYub8Gfm8FxXAuOCmcvCkYBhBOE0JFCCd//FHN8jmCvYeq4aR2wQvrsHbVUf+QNZ0zXlblz1sEjtnqg/hij7WcVjWLBfxhF9ZAe2vbl6875KSUT+Ucs+irtGO2qBCbrD/tWwSuJdll0TpuGzaX/wImnPyFXR771UDPWla5W36weDC3yunl08MrixRr5fGp6VZQXF9off7iytWqZISTNwXDAPjr0rEsnPzx16XLxzqx7DhiFdYaQZqmauGCVtWwyboSL6/y5y0yx+yp6QXWCbYaeiY7J1irpnuVtU17Mwtw92pfUnlVzjGLvso7Zoewxrp4QcPqAcpjHHo3rWZNUoilYRy3cPIXbnkcVt/363o/hVnugonJ8rjoMJZbcT7YBU4owsmbgmEAcXUbOa9iUzj5q1m7vvOq7H7aXGg3JQZqmvLVoAqxZrOTUA7h5C0yx+wQbrKuTtGwpn11ekdyDaumexhvhtE8alTWMYu2yjxmT63zNW0fUx6dJtJNP/rVqsoonPyFu22pzmft2Gb7yIjN8piPpdYFd+ALnNCEkzcFwwCq1ajpvIpNYeWvWhiH3GlKbH+C/81u35X43szDeMpJKZcw8haxY2auTjvVxQUNwz+hGpV2zKKtMo/Z6kJsCFCT8DWRWhdmi5yEcgonf+Fv20G8mcmWmDiU3FGofGK1PKbu5W/NV0PL8nY8DCNvMfwpqzxHDhc4r2JTWPk7Uv5mTLKvxmvVwAXuq3Hn/kY492dsYeQtcscsH3cvdzop7CnATWGeUI3KPGZRVanHLFBNwmki3VMY3oWZJZz8RaI8pn623+kwUx0X2L0uIxcUVR6PpWAYQH7ebudVbAonfwUHwuyLFuBq/I4WVjHaczjs+2rh5C1yxywOj/Zk8+gR7HWaSyOhUo9ZFFX2MTPNiUVNpaaJ9OfwO5mEk7+IlUd2mCnqRcqgGJnHtVQej6VgGMCBnWHc+KoA4eTv4O5M51V5WTWnH62rL/OYhf04Rfi9LSmcvEXqmA27sKbTi2+/r0m4U2Suxiv3mEVPpR8zv4uzSDWRUjj5i1R5LGIHxXwsP1QNPXuG/0xerJZHu+NQGB2fwsmbgmEAe7etdV7FpnDyty9rvfMqDHa3dt9jFr5OJuH12jPCyVtEjplf71HTQSMSnRgq/ZgViUPL8L+nuUilH7NiTaWRayKlcPIXmW3z51yI1qqO3mHWDmOnPLo5fQ/CeDY0nLwpGAawJ+Nr51VsCid/ORu/cV6F4xBm8uZ+05r2Q/aR6mQSTt7CP2amedTVe7SoE0PxZw/Lo/KPmVENTSLUjEiVe8x8ippKL4xcEymFk79IbVtg4T9yETvl8ag7LotDz1qF+CKM3tvh5E3BMICda+Y7r2JTOPnbuS4yPUJSPzuMTbWqRaxJisLJW7jHzNc8emxgt7eTzx6G2TQVC8eMih6BOQ6OWRHTVNrKdzEzM1LbFs4xC7s81jn221i6xePdTtXD77VtiZXy6OP7OsQLGhZi5qsHwtq2cPKmYBgAmxByflzujIXDOome4fcdfNYQTqcM5iucJo5d332BA7u2OmPh8D30HIkPJjFPzFt5hXXM+tXG71uxeS1Q71Hn2cNaNXBVOZtLK/+Yme9erWtt55GwTzhGpR6zYpymUks4TWxu4R6zSGyb77EK17njjBrYuT4vrK8FpEovjw1rFt+ukTUBa7suDLNchlsefV9zIMc44fxb0PnKx5yx2LH2rXH4cdZzzlj5nPyb8TH3o6M/fPoUvnvnPmesfHTMKpaOWclUHitWuOVRNcMgtsx/GQV5/L6n2MH8MF/h2rLgFedV7IhEnnTMKpaOWclUHitWuHlSMAzi8KH99pVGLGF+mK9w5f2cgc3zXnTGKh/zwjyFS8es4uiYlU7lseJEojwqGJYg4+OJyN0SgWcGIoD5YH4iZcMHf0fB/hxnrPIwD8xLpOiYRZ+OWehUHqMvUuVRwbAU694a57yqXJHOx6Gcn61l3u2MVR7mgXmJJB2z6NIxKxuVx+iKVHmsYQ1/9b2UQPZnb0Thof1o2u1cJ6Xi8abwti/fdMYiJ2fTCsQ3aIGGJ57mpFQsNm18/1HkOxjomEWPjlnZqTxGTyTLo4JhCHZvWIK4Og3RqOMZTkrFYa+vDe8/7IxFXva3n6FB+x6o1+pkJ6Vi/LxsBla+eKMzFnk6ZpGnY1Z+Ko+RF+nyqGAYou2r5lR4YWYhZjfoaMv66t0KLcwsxMue/a0zFj06ZpGjYxY+lcfIiUZ5VDAsAxbmimruYLNGNK/m/LEwV0RzB5s1olm78KdjFj4ds8hReQxftMqjgmEZsblj9/ovkWBdBfHARxp7fK184fqotO+Xhs0dB3duRZPOZ6N6XLyTGhns8bXmjTuicr+pNDpm5aNjFh0qj+UT7fKob6AJQ9LFY+xvYahZt6GTUn58GJbPAEWy63N51bI+oCddei/aDfy9kxIeXsmx63OkeyCWh45ZaHTMKobKY2gqojwqGIapRq06aDvgBrTucxUanNDTSQ0dvyeQV3D8VohIPAwbSXVbJKFt/+vR6swrULtxGyc1NPyewMwlb9vfChGJh7MjSccsMB2zyqHyGFhFl0cFwwiq37ozmnQZgIZJp9uvazdph7i6jVCtRk0cOVxg/7o0f1STX5LLn1DhN8eH84W5FanxyWehSXI/NOhwKuoldkJ8o1aoWbu+/R5/XZo/qsnfEuNPqPCb48P5wtyKpGOmYxZLVB4rrzwqGIqIiOfpG2hERMTzFAxFRMTzFAxFRMTzFAxFRMTzFAxFRMTzFAxFRMTzFAxFRMTzFAxFRMTzFAxFRMTzFAxFRMTzFAxFRMTzFAxFRMTzFAxFRMTzFAxFRMTzFAxFRMTzFAwDmD59OtLT0wMOzz33HPr164e0tDR7usrCfMyZMwcnnXSSk3J84j7mtkbD2LFj7ePI41kReKx4zLheN44vX74c1157rZMSHlM+/dcjIsEpGAZw2WWXoWvXrvawdu1azJ07t2j8lltuwaJFi5CSkmJPJ8di8KrMC4WqhAHwnHPOweWXX45//etfTmps0/GV45GCoUgl+uGHH3D77bdjw4YNToqIVAYFw3IwzV3u5jte4bOpy92capjmONMcxvcDNc/xfTM/h1CbuQI1iwVqkjNpZvmvvPLKMdP45yHQdkycONF+z792YJZ/7rnnonPnzsfMz9fBlm1wmeb9YLWP0pbjfr+szY/+x5Hbw+0yzL4275dUQ/Lf3/fee6/zjg+X9cQTTxRrYXBvv3/ey7JuqlevXrH1u48zlXVdJR3fksqNSFWgYBgBPImw+ZQnNjal3nTTTejdu3exk09CQgLOP/98uzlsyJAhyM3NxZ133um86zuZDBs2zJ6Xy3jkkUfs8bKcyEvCE9nkyZORk5NT1OSbl5eH1q1bO1P4JCcnF8sDt8OdB25Hx44d7ff9m4lZuznvvPPsZmU2L3Ma7hfiyZQnUG47080+cp80OU2DBg2KplmyZIk9j1tpy+F+5LjZhhdffNFODwXn/dOf/lR0HDlwf3G/cf9x+Otf/4qlS5fa7zEP33//vTN3caHubzcGoF27dhVNz+b4ESNGlHndxqWXXoqpU6fa0/OYsDxxHVSedZV0fEsrNyKxTsEwAoYOHWqfOMw9H55YOH7mmWfa43To0CH7xMQTCodZs2bZJ35z8mGgTE1NteclLmvr1q32vclIYOBiIHvyySedFGDSpEnYtm2bM+Zzww03FOXhyy+/tIN2q1at7HHidrz33nvOWGh4UmzTpk3R9hPXwe1lYOP2B5pmwoQJ9knXCGU5xDxnZWXZr59//vmQ7sWZY8Dluafn/oqPj0efPn2cFGDTpk32X+ZhzJgx9mt/oe5vN66b+99gzYzrTkxMdFJCW7fh3pa33nrL/tu3b1/7b6TXVVq5EYl1CoZh4kmUQY1NR+5mIo6bYEcHDx607w+58WTJkw8Hvr7uuuuKLYMn+JJqEmXRvn37YkEiGObXNK19+OGHx6w/0HaUxpwU/efLzMwsOgEHm8YtlOUsXrzY3pfMu7tmXhpzDEwAMLi/uM1cN4MCgzOPk3/zqb9Q97c/BnzTTHvPPfegVq1adnpZ1m34b4u/SK6rtHIjEusUDCPE3ePUDGxS4oklVK+99toxy4hkj1U22ZWUH54c33333aImMDaPlVSTKYtQAkMkpmHthLVpNtUNHz7crvGYpsHSsNbLwFoSNgty33Bf8qRf0r2x0va3Py7L3UzLbWCejLKsuzSRXFc0y41IRVEwDBNPdjxhhHMlzJM7T/KsTZSHmd/N1HQM1hLYxOgODP7TMIhkZGQU3QeKFAYYrsfd1EisbbHWxfwHmoa1DdaujVCWY7B5sGfPnnZT85VXXumkBsd5uQz/ZmnuI9Y6/YMkL1IYQHr06BEw2Iayv924rWwJmDZtWqnNuqWtuzSRXle0yo1IRVIwjADeQ0tKSirWLMfXoTbTMaDyHiJPNrzKNthr0z0ejAnIvOdlmrTYOcd94mXzIbkDg/80/idwdvkvb5B3NxHzhMugZDpoENfBDh3cbubf3Gfi/VfDf/2hLMe9zziNO5iWJNgx4D7Kzs621833Xn75ZecdXxA2TYv+QtnfbuYYmvvMzDu30yy/LOsuTSTW5T6+kSw3IpVFwTACeKLkVbb7nh8DE3s+hoqdRdjEx3s3ZhnstVnalbvBjho80bJJi/OuXLmyWFMVl81mMfbyM8v3n4Z5YLB54YUX7Pfr1q1bruYudtYweTHNa6xhmCY3LpvrYMcXrpN4gh49erR9kjX5Iza9uZW2HAYusw85DecPtcbCZfA4uo8BcZ3E2uMJJ5xQ9B6DMPcp962/UPa3Px5DBhVOy2bHZcuWFTVdlmXdoQhnXf7HN1LlRqSyHdHgzcG6kj/y+eefH7FqQgHf16BBgwavDKoZehib7XifjE2UIiJeVs0aGBXlOMf7Oew56L5nxSZE0wQoIuJlCoYiIuJ5aiYVERHPUzAUERHPUzAUERHPUzAUERHPUzAUERHPUzAUERHPUzAUERHPUzAUiTH1Ek/CwKd/xAWv7CsaulzzlPNu6DjPeZOz0eyU852U6Dr9ro/tvJ718FLE1W/ipJZdu4G/t7ef+yGamN/y7Fc37lvuY273SZfea+eby40E7kPuS5NHs65w81wSU/aCbQPTwz2+sazY97NpCD5YhfCIVRiOSbcK6RGrkB6xPhD2YH2Yj5mmpMEqWEesAlbm+dwD88U8MC+B3ufAaayCfsQq8AHfj9QQie3x36eB9juXb94PtO2cJ9j7Jo/mfQ4VsW9KG8w2ufcd88S8Mb/Mt3v6sgxczjkT0kssI+Ud+NkIN39m4LZXxLFg+WC+A70XymCOSzjlvKTBlNFw8hjJgfmIlbxEY1DNMATWycO+Imt/7k1OylHWBwKn3Pgi1v3nXsy8vh7+99RQnPTr+yrsatytRq266HDBH52x4pifRied4YzFNuskYG/Hl3/tY+/Tube1Q3zDFsWuiLk93M/c35yG+5/HgceDrBMU9mV9Z78X6H06fHBf0fwc5v3xBGue0H+MN9K4Tcm//TvS/3U7Ns970UmFnaevHvklajVoYW3z/U5q7Dm452fk793pjHkDy9D+7T86Y8e3zC/fxJo37nDGjj8KhqVwB7tNc19wUo9qf94fkLt5VdHJa/vKWfZ4sKAUTXsylqJuixOLnfCN5j0usj64efaHN9bxhPr14xcXBSaOc983Se5X1DzD/Zu1dLq9vylraSoO5fxsHw/i8XB/cM37TboMtMdrWcthcIklPEb7szfaefXHfcHtNfuAx9iqldhB32C6VZMoSuNfTsNp+brf31egTrMTcNod7xVrhrRqSEXNsbzoc1/I8QKEyzzlxpeCNtdyfl4oNu06oNg0XA6XZ5btP6/ZBvM+12OOL/FYmfnd+SX/ZTMPpXFvZ7Dp3dP4r9ON6+/z1y+L7c+GSacVa9Y0+59/g22HOWahrNPsLy7PvDbzmcFsVyjLZT7d83K5Zj7/Y8Xlpvx5XrFpDZOXE3/1p2LrdE9TFSgYloInIdYY3FfqbvUST7am+c4Z8/npf+/bNRn3B9vNv6B2vtL3W3xu/tPwdbDlGcwrg50JCAYLa/NfXIAtC19zUo5yf/jLcyKkaG1PMJyP+3fvVt/vDRID5s51i+zjEU3tf3kzul33PKrH1XZSgqvboqO1f2egfpuuTkrJmHduQ7DaVfaKT1Ejvp4dyMuK5XfRvT3sWgxrw6YWzLJxcHdmUe1466I3kHzF34odG+a/4ECu/X6gmgEvXHixsiN9ftE0LEe8iFz+/NV2Gted2PuyohMk13vGPf+1A7xZ98/LP7Hfo1oJzewAu+CuZLtlgBcyXa552nkXaHzyWcWWndCue4knX5Zzlhkui/PwM8rg7WYCickP89bzD28GLKe8CGPLhXt/5v38g/PuUaVtR8MTT7e326yTF9Lu94Mx5yUzH1sTDuVut/a97yK8tOXys8zjwX3H97kNBXm7nXePMp9bMsvitGzB8N/fHYfcjXVv/9mehuWBLTf+ATiWKRiGIdBJuTSc54xxM+0mJVO4eKJxnzDNNDwxmmk4fY/RJf/QL5fjX4MiXmEzSO7dsspJ8YnEiTCa2+PW8rRfFzXDMRgwKJSleYonB9YE3fNwGbyqZ3D2vxAIZsvCV1GtWnV0tU4mJQVEBsJTfv8Sti2eFlL54D5iWSoN81yneZIzFj6eVFe+dKMzFjjg8iS7ac7zzlho/GvuXA/HeRzJtKi4y9T61AeKLgQOH8qzT6wc58ByzYBnTq6c1r1sLivYRQePK+c1yyNeHDB4G5yGrSommBC3mfuCZae8Am2H+0KZ28BtMUq7kA6E+4SBZ8P74+19QSUtl9Pz4njlS7yVcHT6zLR37Nduib2H2Z8b937htDxXmGNpMM0cE+47nnMiWVajTcEwSliAAl3BBypcG95/uNgJk9MQ042NM58O2gTqZprYzDJY+Hllyg9hft4eO82IxIkw2ttDvIrlycy9jmACnUi4DtZS/E/O7itrfpB7/uHfpQbEwvwDSHdO4MECogmEPOEyGEaSfY8qO8MZiwxus2nG48UBy4AbazOHnCASCu5/HgeWO9MSwIHjTK/bsqN9webfouLGJv3SttPdquFfy3NjUyaVtDxOw4FNyWaZplnZzF8egbbD/9zAGpZZZ9drJzmpoWONjxcD/q1XwZbLi2Me41DKES8wAh1/fr79P2v+F31cRzj7rqIpGEZJsBNIsMLlxmk4nPvM5qLCzJNUrQbNS73S4tUna2Dmqo1XtSyUO9fMs8f9hXsijPb28ITH5hx2IDFXsSUxtUeD28d7OwyEgWq2BgM179fxvl1pSgqI5Q2E5rj51+rdfPd995W4r8uKFxq8CDBNjmwC4zoigRdg5mLDDF/c3xv5+3bZ74dSYw6EFze8R0Vmue5aXiCllVHihZ9pNnQP/kEmkli+Wasz62VzZ1kw4AW6UCxtuaHsD8P/M3W8UjAMAwsICwpP9GURSuHiicLc3zDDnNHNi2o2JWFNjrUuBgI2V2V/OzNgIInUiTAa28OAYO5VmPtbBj/EdhNMKVedPFGY7SspEJI5lqEKFBDDrRGyZl6neYeimrQbAwAvCsw9Re4DntDcWNtgrSNU3McMvuwcFkq5CpXZl8Hu35r3/ZvZQsWaDbd9xeRrnZSSsWmc+8Xd3Glqr4ZpPq/IZj0eU35O3c2VZcH5/ZtHqbTlBtofwfBz626eNnjOC+VzX5UoGIaJTT3+H3p+yM1Jy1+gwuV/EuM0/k0pZcEPAG/mt+t/vf2h4EnWX6ROhNHaHt5P5D5k5wx/5mTqvggx28N7I8QLgRMvusPu5BDK9vmfHENhAmKN+LpWfqeix82vY9sXb5S7aZT5ZHMtm7TcnRO4b9nZxH2PzewDNj0y78TmMnbYKIm76co/KHE5vGfs3zpQHmwG56M87u3gazMe6P1Owx4s2paS+J/MuYySmkn3/PC1HTzdPbz5iIq7/HDfc/+675nzLzuPhZKn8jAXdaY1gseZwS1UwZpHS1tuoG3l56VVym/s126mF7a78w2n5YUZj+HxRMEwTAw07g81CwoDULD7bKa50t3j0/8kFqgAskDzgxkqFtSm3X9pB8VAwSBSJ8JobE9p+5AY9Nr0u8aelkxtytwzLalGTO4TM/HkyBNsSesMhAFx5cujUJC3B1sWvILN81923ikfBjvTW880KfPeVaAgx6Yx5tk0P+9In2tfeATDfcHmYgZb09Wey+DFDOfv//g6sAdiJJpJWeZ4ocV1me1g4DbHh++zxu7eTga3QBeQ/jgvt8N0fmIZLqmZlMv86rEL7Isdsy7yn8fUNM3+5N/d36eFlKfy4HLZuYblmOvjBU+gHt+BmAsA8ziLGUxrSmnL5UUmP/9mW9mC4t+ngALtO07LWmeg80pVVs0a+PS9hIDNiqwF+tdWeEJmAeFD7+w9xg95SQWFJyEWUHOC++7dv6B1nyvteyzmKs9/mtKWy3sErKWamgOD22m3T8eGD/5eNA/zyZPT/54cYp8Y3evg8n+c/Q/76tC8z+1lbYsfhpJOCJHeHvf+9Od+IJ0nBNMxgPd73PcVuT8C1RYYLLg9DJ5mXjLp0Trxhcu9/2I9ryJVkYKhiIh4nppJRUTE8xQMRUTE8xQMRUTE8xQMRUTE8xQMRUTE8xQMRUTE8xQMRUTE8xQMRUTE8xQMRUTE8xQMRUTE8xQMRUTE8xQMRUTE8xQMRUTE8xQMRUTE8xQMRUTE8xQMRUTE8xQMRUTE8xQMRUTE8xQMRUTE8xQMRUTE8xQMRUTE8xQMRUTE8xQMRUTE8xQMRUTE8xQMRUTE8xQMRUTE8xQMRUTE8xQMRUTE8xQMRUTE8xQMRUTE8xQMRUTE8xQMRUTE8xQMRUTE8xQMRUTE8xQMRUTE8xQMRUTE8xQMRUTE8xQMRUTE8xQMRUTE8xQMRUTE8xQMRUTE8xQMRUTE8xQMRUTE8xQMRUTE8xQMRUTE8xQMRUTE8xQMRUTE8xQMRUTE8xQMRUTE8xQMRUTE8xQMRUTE8xQMRUTE8xQMRUTE8xQMRUTE8xQMRUTE8xQMRUTE86pZwxHfy6qpXquT0WP0VCS0+4WTIlVZ7uZvsWLyCOzL/M5JKbtGjRph4MCBaN68uZMiXpGdnY158+Zh9+7dTkr51KhRAwkJCahZs6aTIpWtoKAAubm5OHz4sJMSWVU+GPZ98EsrEJ5iveKmSNV3xAqIK7H4gT7OeNkNHToUhYWF2Llzp5MiXtGkSRNUr14d7733npNSPrygUiCMPQyI4V7oBFPlm0l9NUIFwuNHtbBr+awRKhB6E497JFoEFAhjUzSPi+4ZioiI5ykYioiI5ykYioiI5ykYioiI5ykYioiI5ykYioiI5ykYioiI5ykYioiI5ykYioiI5ykYioiI5ykYioiI5ykYHueyX6qHmdfXw7fLnQQR8ZbqCUhslaCTfSmq/K9WXPDKPudVxSrM/ADfv/MYtq5egYP5TmLdlmhw8gicdO0DaN7YSatkDIbfLAZa3bYPv+jpJFYBDODlddNNN2HNmjXOWJSdeSsmjeyOOs5okYP7sT3zeyxb8A4+XpyF/U6yRF+XLl3wwgsvOGPl06xZM+dVBardFB279UCn1g1QN46hqxD5eTnYun4F0n/YgQOFvsnKpjY6DfwVTrHOR7lrZ2N2eq6TXnVt377deRVZulgosz3Y+dapmP3n4chYbgXCww0R37ilNTQE8n5CzvIJyPzRmVQ8Jd+6KjID4uugWYfuGDTiQUy85yokHxMtq4Ael+LWe/6GSY+OxhlOkkRHXKve+NWF/dHjhEZ2ICw8dAD5BdURV7cROvTojwsHdkPTcp2tDyMvzyqPhfnI2XPASbOu21t1Q4oVJM/tmuCkiIJhGe377CIsnbXO2nMpSBqbgUEvbcOAJzKsYRsumJKBPtePQP0azsTiIZsx/7ZbcIszjLr9Aby+YLNdI4zrMAA333jWsbXHWHfyKejeoRnqxMU5CRIVDbthQEo71LbOxge2fYPZ70/H+zM+wUcfWn9nf4OtViGq3jAZZ/fpgLIfiXxsTfsI09//CGlbTRMW0LRDMto0ro1a+vW7IgqGZbH1Qfzv7RXWix5IfnguOnVuWXwHxrVEg37/QBJ/a1i8bX8Wvpg2Hs/My7JOR0Cd7ufj1619b4m4JZ7cCQnWiSQ/cylmL9mIXFdzaGHuRqT9dwWyrbTqLbuiaxPnDYk43TMsg93TmiJtzgHUueQbnDM02UktwfKRmPnM20CbR3DOw7cdrRmY9L7TccGNF/jS9qZhU+qD2LR0Afbl+ZJqdhiB7rf+Ay3N/UfXfL8cuAT/mzABu1uYZR/A/qV3YvnUqcjh/HEd0HL4dLRafyqWu+8ZFu7B7rn3YP2897Ezc4+9WNTtgbbXv4dup7b0jWMjNt7fDeu2JiP5b58i/uM++HbxTxV637Hq3TPcjNmjxuNdJ/mo83DnM79BcjyQNe92PPCW7+5hnV5X4bbfpCCpqVMqDuZg85J38My0r5BjJzTAGcNvxqVnJKGZKTj7rdrnlPF409m0Osm/wogrB6J7YgPYt5gs+Vlf4NkHXsc6e/4bcXGvJCQ2cOoThfuRtXIGpv5jDjLshDNw6xM3oHv9/VhllZs9547AWe2sLZnzMvacyXR7IhdnG+sk41fX/gZnJSeiWX1n2flW/hdNwxNvLfPdHzX7Ze8qvP7GHgwccRba1Qm2jyKrSt0zrN4OfYf0RmL13Vj92Vyscz77/hJP/zX6tq+OAxkL8MnyHUC7vrisdyKwbx1mz1yNojuBJt0KrNO/3OxL6nMZereyyt/S6Vic0w0X/jIZde13XMz0tROR3KMrTmzhum+5JxMrl6RhoznVutbx0YYmVo21Ixod9MtHFOmeYaXbiN1r2ObeEq16hRAIy2j/opux5vO1iD9lBNr2H4FWnVqiYONULL//Tuz2v3Ge9xbSGQiPtnpg/6xzsfCfvkAY3/kKtD31BOz+10Cs8u9Fun0qVk2bin0NL7DX0zYlBfF5K7DluV5Ys96ZxiXn44vsQCjl9QUyrXMXNWziazKo0/dWPDR6AJKsi5ysjZuxeWOWFQAboF3/GzDuhu72NN1vGIcb+luBMN4KYGaa+IZo1tB+21rGaDx0+6Xo1doKhNbc9jRZVhiNrwvfJOfj/P7JSMQOa17f/PutkJ3Y4ze4wVmHW0MnEPrsQSbn2eF0+7ECnS8PmbBPQz2sZZ/WDvUOOsveloP8OCv/A2/AbRf7NwY3xMBrGAidUSkuoQEa8Cx8YAe2BwmElJX9s/23dp1jwljZHNqNrVu3whzawtxse3xrtm/lCR17olur2ji0M9NOz9pzGHEN2+DUcxmw7UmOqtkOvRkIo/fj8xVKwbDMGiGuWHmciW+tWgxrMkXDSzOd90JXvfM/cc4/M9B71D/QbcQ/8It7PkUn62oOeVOR+b1vmiLL38b+8+fily/twwWsFR58G+veYvNtB7Qfuw0Dxr6KbqM+wYBJ/0RzV8C0xfdH90d3+Kax1tNt1Fz0Hsbgvgdblqb5pimyDpmrO6ObNT1r4FWpN2rs2I/8w85L2xm4cVh3NMjPwvyJVk3xkfEY/8gDGPPyMrtG2MwKNOdZfzu38tVMshbcc3Sae17CrE1M7Y7hg3vZJ9H9GZ/gsZvH+KZ5YAxuuXsyvrLn3IQl7z+J28c8YM3rm/+eBVn2O806pqD45VwdtGuxB1+8PAajRo3C+HfW4d1nrXmWOVfgBzfhY3sZL2M+x/eswSxr2tvvdZb94Bi8uYpn1zi06z6QUxxVvx0S936Bl8eNspYd/VphlXW4AIeclwGVqydpAPu3YmVaGjJ2+0YPbFuONGs8bYPvii0/azlmf/gJ5n5hpVnpi//7OdYzTsa1Qbvm9iRHNW2BepsW45P3p2N6BdUKo0nBsBwKi53caju9Sa0hjIu2+A49gO+nYP3UkVj65yTMH3Uq1mfynQPI928JjhuFTkNTUNMcve/mw667dR6LpM5O1YHqX4pWvZ3XRsMeVh0kDZve+z98O+FUzL+jKRalrrPfKsxzPiEujS5+Cm1b1HbGpOwSUdfZffsO7gFOOxXt2fwYl4gB46ZgyhRn+D8ruHEiqxA1sv5s3+u7dE/s+xDGjTgP3Zm4ex3WbbP+dmHzqvU3PwPznvnAafL09xW+yGiFX//fONz34EQ898xzmDQw0fdWUe3xqJxV7+D1r3wNtKVaMweL0A+jb78PD/59krXsKfhdd1/VL674laIlB6umv46vji1a4latOkrsd1dBZ+oDO6waaMtk9Ejpi3Mv/BUuGXIuOtmHtDriatmTHFVoBdZvs8r5yEfsUTAMWSLi7Sujdche7W427I9kuzepNdx4hZNWVnuQ/VISFk64ExlL16HGyb9FhxFPopX/Gcs4tT+auI/cYafNo4mVR9+roAqWj8S8u3+FNR+/j321z0SrC/5pnVvNvUJ/yWjeLdh7EpI6/dDeLjf52PGjddERF+frEXgwC8vmzcf8Y4YlWGu9PX/KVMzfyGbPBkjq+xvc+tgUTBxzqe8RjYZ1Yd9RPZiHTOfQ+7ObYu+8CgN6JKFZXB6yMlZh/rpgwW4/Nq1a5bwuXdJv7sPfb7gUvZKtQJ+/HZvXfoFl2/ybIBx7N2ElGy0ksLwDsK916zZHyxIuphObt7D/5uVE86rCqtn3uRiD+nTDiS3qIX9XFjJWr0bW0ScyituRjazjJBCSgmHIaqNlyqX2q93vP3bsfbwyKGQNwW3jJKxebKU1vA0pzyzGqSMeQYe+F6DBMR0YHDWC1NTy9vi1phxAQbH7ECvww9S3UYCW6HDPNvS57R9IvvAKND+B1Y7AqusxkTDUwVk39kM7vty7Dovm2Ik+1a1A9sGbePMt/2EO7LC0fxnefGQMRo17Fu8sWIftVqxpcNKvcPNI1xN/Vg0vcDePRPzmV93tmub2xY/5mjMnTcabm/3KnVvI5fk8/PrsdtZpMx8Z743BmAfG47F/vI5vsguc948VJEwK5W/CZvvauhFO7urU3P3V6ohObXmqPoDMzJIbI+PiwvjANu2KU1pZl2oHNuKLj2fj87RvsPr7bdhTrCXMpXgTWZWnYFgG1Xs/gOQO1ou8KUh75EHsdD3ESoUHDzqvHC27+K7gt87HbhOUCtdh00y/e4q7N8Kes27jol6ByPwQmVud16Vp3cu3nuWPYqPdtOrIfAEbi3WgycJ++3zouu9p5eenr3zNpBJBjbrj0tsfcpoPc7Aq9SXfvbwl3yOT0SEuCf1GFn/2sEH/0bjhIr5Kxln9k33v7V6FOdOexGOLfff76jRpby1jJTbZt+iSMPDWAb7m1WLao6Gz4IKDpkAk4XKrJldeR59va4S6dvNDAfKcplzUOQspJ7q3REKXj42r1tmPU8S1PxODeli1bddZuXpCB6T8sgeaW2n521YgfafzRk4u7FNKnSZoYZovq1sBtaP/jb1SVHMFz7r1rEt+S2E+8s3FUcP2aO2RQ6tHK8oqbwHWPPQrbPJ17rIKUEvE8+Sw96ejX8tW9MjEOqwfeyoy2A8hzirQfZNx+NsPUdDwBORstAKQmW7PVCy94//Ach7fyaqptd6DXYuXWAFyDwqsZRY90hDokQzbAWS/koRvFjHS1UaDnr+1TpDLse1boH6rFcixgqpvGT9hyxNJWL3amqxhClr17IyC7/6DXdZsBXlWYC9aruvRike/QQdfC02Fqopfx2Z/84wjLt48zpCDde/9E0/OOnpnj82Md57H2pUlJwubd+YjLqEZEpvysQZ2YHEeeSj0vcdQ1Kx9IupYJ8Ttnz+GP7+RUXwZ7O25dQ/yazdEYvz3eP3uyWg25jlcepL1Lh+n2GQVwIaJaFrfWhIfoN+7Ci//6VkrOLserXj1djy7hAtzcW/brizssMrjyrs/RsO/34kzeM/yoLVePp7TrB2axlvbwGVvno1R498t9miFb10Vpyp+HVtcuxRceFob52K4EPkHDgE1ayPO6alZuGs15i9Y52qRaooeF/VHRx6cglxk/7QPcU1boEb+ASQkWFe6wR6t8CUhoduFGJRsTWcFvt3ZO4D9P2Lumrrof8Ep9jfd5O/Jws97a6BxS+vCmf+sfBTNH+DxjYqkRytiRd3+6PL3behz/W1owpt6eVYQ3MVAWBvxrfqj7RXTcc4IE6iS0emeaWjb3rreyl+B7M9noqD3dPQe0sN539FwBHqNvQ0NrLJ5cP3b2PJtbbQd+x46hhyEaqP5dcvQs38P1Kx+ADnLp2Lbtg7Wuj/FSSc4k9haou3Nn6BDByvfe9KQ+flnqH72JzhtcLGJpJwYAM2Qv3c7Nv/vEzx7z5higZAy3nkCz76/Cll7rUDXIBHtOrRDolW9275hPmbN5hSb8P3G7dhfx/deuw6JqJm3HRnzJmO8FQh9yxiPe1+ej8051jLiGiCR07Wog/27tlshC/jkuTfxVZZVc6tex36v7p4v8PIiX+0yZEtewjtfZWE/ay2NE5FYn42j6/DyS58gg+uNt9bb3goa37+D99ODN5NK6fI3p+GjzxZjdWau72vYaluBsLoVFA/5ol91q4bWppH7dL0DKxZ+g62sUtZMQPNWTVHjpyWYvza0TlC5a5ZgZfYBFFaPQ6OWLVCP1aL967E4bSNyrWphnHXxZC0Sm79cggy/Bq/jlWqGEpOqTM1QYk6V/aLugOKQePog9OUFtVWL27psNtJ+DNajxRtUMxQR8Zx8ZH09G0vZW9eqxbU5bRD6d26qE3cUaJ+KiMS0fGxe8hGmT59uDR9hwdodEXsGX45SMBQREc9TMBQREc9TMBQREc9TMBQREc9TMBQREc9TMBQREc9TMBQREc9TMBQREc+r8sEwd/O31v9V+hvlpJgjzjEtv+zsbDRp0sQZEy/hcefxD1dBgb5rNRZF87hU+e8mrdfqZPQYPRUJ7X7hpEhVxkC4YvII7Mv8zkkpu0aNGmHgwIFo3ryMP2cjVR4D4bx587B7d3g/glujRg0kJCSgZk3nZyOk0jEQ5ubm4vDh6PyOYpUPhiIiIuHSPUMREfE8BUMREfE8BUMREfE8BUMREfE44P8BsQpIK0xRGe0AAAAASUVORK5CYII=;" vertex="1" parent="1">
          <mxGeometry x="-271" y="1289" width="281" height="251.72" as="geometry" />
        </mxCell>
        <mxCell id="dTqFi1dfQPmzT-X44cD1-68" value="" style="shape=image;verticalLabelPosition=bottom;labelBackgroundColor=default;verticalAlign=top;aspect=fixed;imageAspect=0;image=data:image/png,iVBORw0KGgoAAAANSUhEUgAAAboAAAGbCAYAAACyB1UWAAAAAXNSR0IArs4c6QAAAARnQU1BAACxjwv8YQUAAAAJcEhZcwAADsMAAA7DAcdvqGQAAFj2SURBVHhe7d0HfBRl/gbwhxJCC0VAQhWCGKqADSlSPLEinqKeYkHUv+DZ0BMr6qncqWDBdmIX9dBTA55d4QARgYhKD0QxIjUKCiT0BPjPMztvmCy7yWZnk2yG58tnyM477Z2y72/ed97drQRgvzWIiIj4UmXnr4iIiC8p0ImIiK8p0ImIiK8p0ImIiK8p0ImIiK8p0ImIiK8p0ImIiK8p0ImIiK8p0HnRdhTSvs1AxpJZeHKQkyYiInGlxN+MMvDZdIztn+SMBdm7G7nZy/HFa09i7L/Tkesk+9btacgY2t5+mTvjNnS/7iP7tYiIxI/Y1uiqJCKpWVcMvvtVfPzUYIQJhxVH/yvw5EsfYdb0JzHQSSrks3lYvsP6u2MtvvxcQU5EJB5FH+hWvIoOHTocGLoPxLD7JmH55sDkhqeMxmu3pgRGKqoTzsaAnilomJjoJARZNA6Dj7P2/bhTcdsHTpqIiMSV2NXocrOQ/u4YDD79Hsyyg10i2p8yDBU81ImISAUX+84ouWlI+25T4HXD5ugTeCUiIlIuSqXX5bxfcwIvqiRa9boQGg/E6De/QPqCDGRkBIYFsz7ChFsHoqEzixs7wNjzTR5ljzc8azQmTXXSOCxZgFn/fRLDuxf1VDAJ3a95Eh/NWuBaLh1fvPkghgQtN2qyM93paIL6fTDWLGMNabcHkq05kWanpWNCUK/LwnluiCEPf4RZS5x1vHNTYCYRESl1pRLoBh/ZLPBi01osDLwqkHTuk5g1bSyGHNMcSVYU3L1jN3bvBRIbpqDPlWMx9Z1R6OrMG0rX29MwddwQdG2WFFh2t5VoBdSGbQfgppc+xpPnhgp2XTHqnVl4deQApDTkRq3lrGVRJQnNjxmM0UHL7eF6zbod9niI9OIlYvCzkzF6UAoaVnGSqlZzXoiISGmLfaDrwhpSoB6X9dUEpNuvHF1G4617B9gFfu6iVzGifwd0O64bunXujmHj08EGz8ROQ3DP7WGe7DU+G08NTcHGGU9iWHdn2W4d0Gf4q1jIzzJUaYgBdzyFKwrFuiQMfv55DOvEALcWU/8xEN27WctZy3bofxvSshjwrOVuHVfQs/LJSwPTu729PJCweRbu4bgzDBkfSI5IzRMxrH8Ssqbcg4FWnu2OO+eNcyaKiEhpi12ga9weg299FV+8NhjNrdHdK17F6AeyAtNsKRh132CkMN78OAnDLx6HWb86k5CL9BeG4cZ311qvE9H+tJtCP9ur3xCJX43B4OueR7rrQ3qbvhqHIddMAmMWkrrj/JtdgXLQONx2EiNfLmY9MBg3/TvrwOf7fv0I91z8ZGBd9btjyA2haoMetUxBIyvPF9+dhizff7BQRCT+RB/o2g0reGZlDzPS8OCV3dG8ai6yrBrXiKHjCjdbth2GAe1Y09uEWePHHNSkSQsfnQU7NCa3x8CedlKQ5Xjv1rTQH0RfNAbvLQy0KaZ0Gmz/pSvO7W5/nm/3okkYNSXEkrmv4SO7OmgF2J5DAmkxlYUPHw2TZxERKXWxbbpk0+DDZ2FgUI3Ldk4Hu6aHzRmYNcNOOVjuQqy1P5rQCI3a2imFrc5AWhERI23lusCLZm2cZsgB6NYm0Iy6bukrYYNNWhZrklaoq9889h+H2PQT0n90XouISJmLPtC5PjDefeA9mLTUCiOJzTHg7o8x6doQ4cJ0xKjfBw+6a4KFhrHoU58zJaJOsj13YTtyAjW+MHLzg3uJJCLR2W7KJa5emsGD6V2Z1AgdAq9iZ5MV/J2XIiJS9mJSo8vNSsOYC0/BPV+xzpSErteMw6hQNTLa6+q9WNRQop6NEQi1jeAhNwex3qyIiJSvGDZd5iLt1ucCTZaJ7THkgeGhv+syJ71QD8ZwQ4l6NjoGNGsUeGHVor4MvCqw/N3Q2yk0nH6bal8iIj4T22d0ua/hxtcW2rWixC5X4qmhrlC3cK398QHUb4T20XZubNkBVzgvD9YHAzsFPm6eu3ah8zzuI/zkPLZr3jLk1zKLiIjPxTbQWXKfG41JKxjq+E0k4zDYBLXP07Agmy/a4/xHo/xlg5pdcf7doT9OnnTtCPSxn+ttwrz3DvySwISvAoE3qecIjO4SSIvYXudvzTpwPgIvIiIVTMwDHbvTj7v/I9j9GOv3wU3/MDWpWXjyk+WBoHPSaKQ9exP6NA5MMRp2GoxRL32BV291Eg6SiJRLnkfave6vCmNAfRUf/7WrNdUKtOmvYLSrV2fu05Mwy/4kegqGvJCG0eemFA6ySSkYMPRBpP03xE/xzPkpsB+J7XHq7UV9X4uIiMSrUgh0lkX34KlpgS92bnjKjRjb336JrEevwJiP11rBLhHN+w/HhBkZyPh2ARZwWJKBWe88iGE9m6OO6aEZbEUaXl1RDe0vGotZS8xy6Xh1ZHf721Z2Z1mB7MbXgj5G8BFuuuH5wDenJLXHkH98hHSzLH8dPP0jPHn7YLTnV4MFm/MRFtpNn4loP3SSk1f3d12KiEi8K51AZ/no7lecz9I1x8DbH3S+vzIXaaNOxYBRk5Cetcn+jkvUTEQih/zd2JSVjrRHRmD4I/bMIeRg3HnDMPbzLGzKd5ZjgNu8Fgvfvg0DBt6DqYWjXMCiJzHklGF48vPlWLvZqlPyy6bt7QaWXT7jVdxz2SgrJAabhdsuHYOPfnR+jYHLJOYix/nNPRERiX+VrGF/4GX84i8BjO2fFPjsnr4nUkRESqDUanQiIiLxQIFORER8TYFORER8TYFORER8TYFORER8rUL0uhQREYmWanQiIuJrCnQiIuJrCnQiIuJrCnQiIuJrCnQiIuJrCnQiIuJrCnQiIuJrCnQiIuJrCnQiIuJrCnQiIuJrCnQiIuJrCnQiIuJrCnQiIuJrCnQiIuJrCnQiIuJrCnQiIuJrCnQiIuJrCnQiIuJrCnQiIuJrCnQiIuJrCnQiIuJrCnQiIuJrCnQiIuJrCnQiIuJrCnQiIuJrCnQiIuJrCnQiIuJrCnQiIuJrCnQiIuJrCnQiIuJrCnQiIuJrCnQiIuJrCnQiIuJrCnQiIuJrCnQiIuJrCnQiIuJrCnQiIuJrCnQiIuJrCnQiIuJrCnQiIuJrCnQiIuJrCnQiIuJrCnQiIuJrCnQiIuJrCnQiIuJrCnQiIuJrCnQiIuJrCnQiIuJrCnQiErdq1qyJG2+8EYMGDXJSisb5OD+XEzEqWcP+wEsRkfJ36qmn4rjjjrNfV6pUCYmJidi7dy/y8vLstKIkJCSgSpUq2L17N/bvDxRt3377Lb744gv7tRyaVKMTkbhSvXp1O1ht2LAB69evtwPctm3bsG7dumIHzsf5uRyX53q4Pjm0qUYnInGFzY+tWrXCSy+9ZNfKLr30Uvzyyy8R1cpYGzziiCPw5ptv2rXBq6++GqtWrcIHH3zgzCGHIgW6MnTzzTfj+++/x5dffumkFNapUycMHz4c1apVs8dzc3Mxbtw4/Prrr/a4m5n3vffeK1gf19+uXTv79Z49e/D8889j6dKl9rjRt29fDBkyxBkDZs6cibfeessZO1jwdiLNY/B8K1aswBNPPGG/Nho3boxRo0YhKSnJHg+XZzeT/+LyLRWXO9Dt2LHDSS05PqdToBNSoCsD7gJ90qRJIQOdKcDDTQ928cUX46ijjsKjjz6K7du320GuTp06BeOc3rNnz0KBIzjN5Ou7774LGzTc22ndujWuuOIKvPbaa/bytWrVwq233mrvlzvYBQdHsx02LZlgZ9I+/PDDQoE6JSUlbLAz22vatKkCnY8x0HXv3t0Z8y49PV2B7hBXxRr+HngpscaC+a677rLfuHygTkuWLLGbYdwYGC6//HL85z//iSjIcb1nn302fvjhB7uGyOX79OljF/wMJvTzzz+ja9euaN68OebNm2cHlvPPPx/vv/8+5s+fb8/DgMiH9v369cOiRYvscbfg7XCcy3Kc+Czk999/twul3377rWC/LrnkEmzevBlvv/22PW6206tXL6xZs8aet3bt2vZ6TF6Ieea62PEgVKBjkOZAvEsPNY9UfKmpqfZztYkTJ2L27Nn29RvNsHDhQvvmjNdiZmams3Y5FKkzSiliYW5qcffee6/dzBdK586dsWnTJrt3WCTYI43rnT59uj3O5bluBgqDwYWBpFmzZnaQY5Mmgy0DkxubFMk0eboFb4frd2+DNm7caAcx1rKI2+I2GRjduB3Ox7wSa3/Lli2zXxvsSMD9SE5OdlIOYJBlQP7000/DHkfxD97s/PHHH/b7wj3wGjr55JNRr149e5x/Oc50jjOw9ejRAzk5OfbyXI9IyQLd7WnIyEjHhMg+0lLIqMkZyPh6AgY648UaNAHpGRlIu90Zr4BYmLOprahaGgtwNg0yKAXXqMI55phj7Job12+W5xs7eHn2PGNwa9SokZMSnglUbu7tRCpcQC0qiEWCtWJizVMOXfz4AK9V3oAR/3Kc6VS/fn37GmNvSxFDNbpyZmp9DEp8RsXnUxyefvppu0kyGNNYY5o6daqTEpCdne28OoDBhne65jU1aNDA/mswCJpmVbdw2wlmAhubZA1ukzU9NwZhBuOi8G68YcOGB9UGmZdjjz0WaWlpnjonSMXHWtr48eOxYMECe5x/Oc50Ys/MF198ETt37rTHRajMAt248zqgQ68R+MgZL9YHI9C9QwcMfsQZ9ykTaNgRhQU8O3FwyMrKsv8GB7tQzZRF4boZ3Pg8i+vkczqzTtYGBw4cWBAM3SLZDtfD9c2ZMyfi52XsMMPtBmOTJzu6MI/uGjDnHTx4sN1hRs/kDj3B34zCGyE+9zadVfiX40wnzqdvRpFgqtHFCT7DchfwfK7HADRgwAAnJbpmTq7D1ObY45GB5IYbbrBrjQ8//DD+97//HfTMK5LtsDcm18P1laT3Y6gmVvY4feCBB+x8vPDCC05qwDXXXGP/Va+5QxNr8K+//jqmTZtmj7PmNmHChEI1Oo6bGh3n4/yq+Yub50BnP3ubPKrgmVqGM6Q/W/hpXLhndAOfTS9YJjCkwVpbmGd0o5BWaF5r4LZdCvJjP0/kPM764lxwcx2fi/H5mLsGFNw5xC3Usy/W5IKbJRnsTK2RgWr16tUFTadGUdshNrGyYwiDcfBn44jbDH4uyH3gvgRjwDSfi7v//vsLBUEGQH7cgE2WkQZ28Rd+DvOkk05Cx44d7XFeR6eccgpatmxpj/Mvx817hPNxfvP5TRGKTY2u3TBkWAHpwQ4d0IHDxOVI6j+22I4kDEpj+wOz7nCWs4ZXA50AQxr47PnAxAPzdrhjFnKtbQcHVTQ+H+nd5znzDcY4JzkeBfdaDOauAYXqHMJpnCdUkyDXGep5mZvpbWl6X1K4Tihc/3333WcHHz5DDNXJJtyzQPMs0v0s0R0wg2uF3BanscAyNVAOrPlxPZwW7jmm+Ac7lfAmjp1MSJ1RJBoxarpcjlfdz98eeRWzNgPtuxdRl7JqXMPa5VpBrjtGuFqlxp0XPjB9dF33ws/sPhiB96zyOalJeyfBUX8t3jsvnsPbAabmxqZCd6Ay3fRNYGCBHq5zCGuDfEbBzhwG18V1FtVr0gQT9zxFbYc1PW6HASfc8zI+02M3bwZLt+BOK9wOA2a4D8gzgLOGZ2qfZjAf02ANkAFQz+38jZ1K2LnEfP2XOqNINGIT6FbMCwpOH+EnlpuN24T9OMGo7lZw2rwAH5X40ctATPj6QNPlMFZIgrezeaMVeisOFva8MzUP3Ml8TVdRn5Uz+Pk7Bhd22jDBkuviOrluY9iwYXYANfj8K3ieorbD4MVnckUFFwYoBiEGNjY9ErfJD567O61wO8xzpJ8dlENTSTujiIRSTp1RBqINy9tff4q8F6bFfv6WMRbdFt5W0HwZsqmzhOstb6xN8Su02IXeNNGxKZLNhJxmamfhOocwjV/RRY8//ri9PNcV/B2U/HAtm/7MNoif8zPzFLcdYgAzy7sHbt8EUdbQGDwZrDmN2wz1NWNscjL5dQ9qkhSjpJ1RREIp2XddsoPH0OaFmhsZfIbhVXQIaiq00xvPwm1Ok2bI8RDLFWBnlIf7YO1E5yMGIbZNJV5vBcSaEWtE4b7gOVbKajsiRWHtrUuXLli7di327dvnpJZc5cqV7a/A45cMqNfuoa2canTA8g25VvXgRI89IkfhxIO/ucpXQj1HKw1ltR2R4uzatcv+6q4mTZrYz4ujHbg818P1ibBGF9lwe9r+jIz0/RMGHUizalD7MyaPKjyfSf96wv6BYcaBgfsnfG2lZaTtt4KdazlnfNCE/ekZGfvTbnemOePpzw50zcvlQ2wnRH40aNCgQcOhOZRbjY4dVkb04jO29hhmPhPHziUI7tji4DelOB9bMPOemF70xxFERET0e3QiIuJr5VijExERKX0KdCIi4msKdCIi4msKdCIi4msKdCIi4msKdCIi4msKdCIi4msKdCXUq1evgt/CEhH/4Pua72/xH31gvIT4y9nnnHOO/T16IuIfGzZswH//+98if6hYKiYFOhER8TU1XYqIiK8p0ImIiK8p0ImIiK8p0ImIiK8p0ImIiK8p0ImIiK8p0ImIiK8p0ImIiK8p0ImIiK8p0ImIiK8p0ImIiK8p0ImIiK8p0ImIiK8p0ImIiK8p0ImIiK8p0ImIiK8p0ImIiK8p0ImIiK8p0ImIiK8p0ImIiK8p0ImIiK8p0ImIiK8p0ImIiK8p0ImIiK8p0ImIiK8p0ImIiK8p0ImIiK8p0ImIiK8p0ImIiK8p0ImIiK8p0ImIiK8p0ImIiK8p0ImIiK8p0ImIiK8p0ImIiK8p0ImIiK8p0ImIiK8p0ImIiK8p0ImIiK8p0ImIiK8p0ImIiK8p0ImIiK8p0ImIiK8p0ImIiK9Vsob9gZceVW+E1M6pSDkiBY1qWePbNyLrlyxkLsnExl2BWUS8aN++vfPKP5YvX27/9eO++Yk5T1IxeQ50VZv1xoUX9EfHRtUDCfvysWtXPqpWr46qTn1x16/LMCPtHcxelx9IsFSvXx81dm7GZgVBiZACnZQXBbqKLfpAV7k+jvvLcJzbKcmKZBuxbPanmDo3qPbGWl6PATijd0cwDuYunYLn//MtNu9ribNvHY7UH57Hox+sdmYWKZoCnZQXBbqKLbpndFaQO3HYSCvI1cD69El4+MHxmDQjRBOlFQAzZ0zC+H88iknp61Gj07kYeU0/NNKTQRERKSNRhZzU84bj7BQg64NH8ewHy5DrpIe1bzOWffCsVXvLAloMwPUXp6KqM0n865lnnkF6ejp69+7tpIiIlL2SB7qjLsS53ZKwOf1lvJxebIgrJNdeZjOqduiH4+o6iXHktttuQ0ZGxkHD5MmTnTnij4JJeGeddRaefPJJtGjRwkkRkUNRCQNddfQ+uQuScr/F5JI8W2syANfdfQ/usYahnZMCaXHafLlnzx489NBD6NChgz1cc801aNasGaZNm4YjjzzSmavsMZAxoDEYS/HuuOMOXHnllUhMTHRSRORQVbJw0+AkHGfdHK+f+ymynKSI7NmM9Wt/wS/28BMyf8i0h582lKxGWB5mz56NtLQ0NGzYED169HBS48f111+P7t272/kUYOjQofb5Ov74450UETnUlSzQ1Qfyfl+NZUtL+JmA37/FlImv4/WgYcr8zc4M8W3Dhg3YvXu3MybxrEmTJti4cSNGjhyJ+fPnO6kll5SUhEaNGjljkalUqRKaN2+OKlWqOClS2nSeJBIlC3Qrp+LZx5/HzN+d8UMEC0/6+eef7b9kmhLNc7zg52SXXXaZnca/fMbnfuYXqvmR8y1cuLBgHndTKZd/4YUX7Df1FVdcYU83zw2Dn9G5mzjNdot7xhj8bJL5YH4oeD85hFpfqPzXrFnTmXoA8+tel3tbsfDwww9jxIgRWLNmjZMSndq1a6Nnz54RP99j4XnCCSegY8eOSEhIcFJjq1u3bnj99dftGqsZWIN1e+yxx8JON8szzT3fhAkT7P00teFQy1Ko7XM9bmwy5vr69OlTaN7g+bg9zudel8lHScTjeZL4E6dPyuIHC+EhQ4bYtQPTPMg0FthMM8/y1q1bZ7+Z3cGO2LQ4b968gvmmT59uByt3sOPrO++8E5MmTbLnGTRokJ3ONz6D3XnnnWc/K8zNzcVrr71mz8O0opx99tkF2y1qXu4H82PWy2Hq1KnOVOCiiy6yCyEzjc8vU1JS7OWM4PxzWLFiBU488URnjgAem6ZNm9r7Z+bLysqyj1HwcStvrMV/8803OOaYY4otRE3hWa9ePXz55ZfYtSv234LAIHPzzTfbNweDBw+2hw8++MCZeiBw1KpVy67Nmuk81sEBi2mLFy+253nllVfsfN9///1207xZltf2GWecYXfoMU477TT873//K9g+l+XzawY3N9awrr76ajzxxBNh5zv55JOxatWqgnWNGTPGvjHi9ksi3s6TxCcFuiDVqlWzC21T42Ahcf7559uFsXHuuedi06ZNGD9+vJMCPP744/ZfBgaDHSFYYIwdO9ZJCQQ+BoFTTz3VDmIc+JppZr6VK1di4sSJ9nPB4gJaOGy+c283FAZsBhgGOfe8o0aNwhtvvGG/Zn7d05jO4MSARSb/DOCh9tONNwrcH+6fMWXKFPtv69at7b/xJJJCtKwKT3O8lyxZYv8lXiMciIGDefjwww8LarOcxmDCAObOP9PMch9//LF9k8Yg4172888/tztmde7c2R4n1pbNcmSWDW46zMvLw3/+8x8sWLDAHjfztWrVqiAfXA/XZ3Bevt8YqIsLWMHi6TxJfCqfQNegH4bfch0GlF8nxrDcvS4ZAFjAuO8yGRh4d/rFF18UKrCzs7PtGpcpkIjP9djsF2z9+vV2M2RycrJdCPG1KfANNpNy+ZYtWzopJcNtFIedWLiNOXPmOCmhMZixKdIE/3bt2qFOnTp2usl/uP0Mxd1UypsKLm+ah+NNUYVoWRae5lj+5S9/sWt3wY4++mg7mDCouPGGh0GMN00Ga3NunIfXfSTXDI+Bu8mRwSs4OG3ZsiXkNoLzQe4mVHYgCjVPJOLlPEl8KlGgq3/8ubh86OVBw7k4roEzQ4Sqd+qIlg0SgDjvi8IaCmsqDG7mORJrHqypmWdlZmAzkTvIRYoFPAt6dy2Sg3kmF63Vq4v/+Afzy+DMIB0On8dx31g7czdLGsx/pF34eQz5TI5NVWyK5bp4U8FCNp6FKkTLuvBkjefuu+/Gjh07MHr0aDswmCZJ5onBhkHHBA138IgVBiW2YribHPk6GmzGZP7IrMtL5yGKh/Mk8alEgS6pSRukHpVqD22aH4Ej7KEp6ldzZohICs7oYQWENd/iqwrQqeXtt9+2az1sriRT03I/03IPkTY1mgDDNydfuz+75x7cTaaxVtwdPGtefB7HvIXLB/PP41Ec1v5YMLPZsyJ+HMJdiLKWXR6FJ5sV2dHGBAU+a2PAYPr27dsLBSD3cPnllxc0I0aL544tGXze5m5yjAaf+3Xt2tW+gfrb3/7mpMZGPJwniT8lb7rcF/iTu2QiHvzHg9bwLKZuCKRFouWg83BcUi4WTZ+NinDZmc/RsbmOBb9pogzuaBEKazos1N1Y4HNdOTk5dtOn6ckZPF9ZYK2vpJ8PNE23Rrj8m/0sDpfjc9GKwBSiLDzr1q1broUngw0Dm3k+xqZBvg7VrFlauK2Sdu0PhzUw1khjIZ7Ok8SHkge6rd9iZkY+6ne/Cld1L1nTWpK9TH3kZ3yKd35wEisANt+x9sNOF8TncyzE3T0P6eWXX7YDgZu72ZPYHMrgYp7JMZDy7pydCRhIDQYK3j3zL5UkwEaKeWENi3fV7jyOGzfOHmeBQe4gdssttxRqUg2Xfz7XdDflMqgzuDNImmPEbQQfr3jHY/LZZ59h5syZZVp4shbkflZsggwDHLHzCA0fPrzQMyrWxEwTpxfsfEXuzimXXnqp3WRaUnwvsbmazxWNSy65JGZBk8rrPEl8iqIzSj4y33oGU9cAKYNuxXWnp0TwBc1J6DjoOtw6KAVYMxXPvLXISa8YWEgzuJmOKQwQbM5jIe1+rrZz585CTXJs0mOXezb7mXlY0HPc9GokjrMp1P3czzwXMx1eTB4YYDm9uM/GRYpNrcyz+xkhC9G5c+faeWT+GcTMNH5kIbg3JfNvPjZh5iOmuTEQMljz+SPnYQH84osvxv0zumDbtm0rlzzzJsc8e+NzOh5D04xonuERn6OZ+VhbDz4P0WAnl08//dR+5mfWzQ4n0TyjY17ZK5PvBbMu8vqMLlh5nSeJPyX6PbqWVmAbflQmnn/0Q6z29Ht0znQfY22FAYC1PndQk+jp9+ikvOj36Cq2kv3wavX6qF9jJza7fhbc/oXxwf3RsXERvzC+cRlmvFv4F8b9ToEu9hTopLwo0FVs/LK3vwdeRiB/lx3E3PblrsaS9FmYPmcJ1m3ejFwrBubt2orNa1ZgfvpMfGwFuE9nL8Hq3EOgGufSpUsX+2E4H4oHf6ZIohPLZzjxwjz78uO++Yk5T1IxRfGMLgz+mvj82fj0PedLm9/7FLPnh/jVcRERkTJUsqZLkXKkpkspL2q6rNhiV6MTERGJQwp0IiLiawp0IiLia3pGJyIivqYanYiI+JoCnYiI+JoCnYiI+JoCnYiI+JoCnYiI+JoCnYiI+JoCnYiI+JoCnYiI+JoCnYiI+JoCnYiI+JoCnYiI+JoCnYiI+JoCnYiI+JoCnYiI+JoCnYiI+JoCnYiI+JoCnYiI+JoCnYiI+JoCnYiI+JoCnYiI+JoCnYiI+JoCnYiI+JoCnYiI+JoCnYiI+JoCnYiI+JoCnYiI+JoCnYiI+JoCnYiI+JoCnYiI+Fola9gfeCnRqN20HQ5r3w91U46zX1c/rAUSatZDpSpVsX9vPvJ2bMGuP9Zg2/oV2Jr1Lf5YPtN+XRH0OPFE9OzVE127HI0j2xyJ5ORk1K5dy562bdt2ZGdnY+VPK7Fw0WLM+XoO5s6bZ0+Ld34+Z/WP6oXDUnujTqtjUCu5LRLrNUHV6rXtafm7tmH3lg3Ynv0jclZ9jz8yZ2PzD1/b0+JdaupROOmkk3DsMd2QelQqmjVvhnp166Jq1arIz8/Hlq1bsW7tOmT+kInvvl+Ar776CpmZPzhLxzc/71u8lCEKdFGoUq0Gmve7Ck17XIw6R3R1UiOX88tCrJ/7FtbOfBl79+x0UuND69atcflll+L8wYPRtGkTJzUy69dvwHtpaXj9jTfx888/O6nxwc/nrObhKWje90o0OfFCVK/fzEmNzK7N67Bh3jtY++Ur2PFblpMaH2rUqIErhl6OCy84H0cffbSTGrnFixfjnXffw2sTX8fOnfF1zvy8b/FYhijQlVDKWaPQ+oybUbVmXSclevk7tuLnT59A1sfjnJTyc/jhjTDq1ltx5bArnBRvXnn1NYx79FH89ttGJ6X8+PWcVatzOI485y606P9/Too3a2a8iJX//Sf25PzmpJSfm0fehBtvuB516tRxUqKXk5ODp55+Bk+Mf9JJKV9+3bd4LkMU6CLUoEN/pF70CJKad3RSYid37TJkvn07fs+Y4aSUrUsvGYIHH3jAeuMlOSmxkZOTi3vuvRdv/nuSk1K2/HzOmp801Nq3h1G1hvfC0i1/Z461X3dg7VcTnZSy1bdPH4x58AF06NDeSYmdjIzlGH3Pvfhy1iwnpWz5ed/ivQypYg1/D7yUcFgb6Px/LyHRuoMuDVxv055DsG/PTmxZWbbPucaNfQR33XkHEhMTnZTY4TrPOP10NGrUCFOnTnNSy4afz1mHy8bjyHPvReWE2J8zrvPwbmfZ+7dx8WdOatm44frr8Ny/nrWvl9LA9f7lLxfaTX3ffDPfSS0bft63ilCGKNAVo51VI2gz6A5nrHQ16HgyEmrUxaalZRMU3nj9NVx4wQXOWOnp1q0rOnfuhClT3ndSSpefz1m3G/5jP2csbXVbH4s6Lbsg+5v3nJTSxZrOqFv/5oyVrn79+trNhtNnlE1t3M/7VlHKEAW6IrDAPOLU652xslGvzQllUnDyAj3zjDOcsdLXtm3bMgl2fj5nDHKHdxvojJW+Wk2OKpNgx0Bw7YjhzljZOP6448okIPh53ypSGaJAFwabvsqqVhCMBWdpNomxqaEs7sKC8UL12gRRFD+fMzZXlkVNLhiDXWk2Y7JJr6xqO8EYEEqzqc/P+1bRyhAFuhDYiYHPd8oTm8S2/DgXOzeuclJigw+N2Z5eXtgEsX79eixessRJiQ0/nzN2POEzufLCZszdf6xDzupFTkpssHMGn1uVJzb1pad/g19++cVJiQ0/71tFLEPU6zKEng98Uyo99UqKPfvm3HuCM+Ydu/+mz50b855RJcWeVN179IjpRw/8es74EYKTHloU896VJcXemF/d2SWmHz346suZpdIDsaTYY/Gkvv2csdjw675V1DJENbog/MwVP3gbD9hktD8/D5t/nOOkePP3++7DiSd2d8bKD3tS1axZM2ZNmH4+Z6kX/gP12/Z0xsoPe2NWTawVsyZMfpZs8ODznLHyxaawvLw8zJuX7qR44+d9q6hliGp0Lvz2jH6P/xSTDxbHCj+gPPOWNp6/jYPfVvDtN2XbDb44x51woudvP/DzOeM3npz0cGybeL366o7Onr9Bhd8KkrF0sd1hIl7wg9cdOh3t+VtG/LxvFbkM0Zc6u/ArouKpwCTmh/nyil/JE29ikSc/nzN+rVe8iUWe+NVX8RQIiPlhvrzy875V5DJEgc6lPHq1RSIW+eL3zsWbWOTJz+csXppj3WKRJ36/YzyKRb78vG8VuQxRoHPwW+yj+bLfssB8MX/R4jeIl/TLVcsC88S8RcvP54y/QlDSL2guC8wT8xYtflN/NF9iXBaYL+YvWn7et4pehijQOfizLZ71ro7PhtXAw6XQ+c9L/vgzGSW17vULcOxxx+PY+4r/GZfZ91nzWfOOjuJr9qLJm+HtnFXDC8NqWuerOm52Ugqxz2VNvHd6gpNQcl7yx5/aiaWbz7P29bxqzpg3XvLGn6OJVuA6G43ZzvjB1uONi6x5Lvo31jkpJeUlf16WdSt477mHCN6HxfGSv+jfp845Cd4fDh7Ok1skeVOgc/C3yeKZl/zxt6Ci9vF4vLHGeR3Kmn/juY+d11Hwkjdv52wPrvlmL7ZZb4FeBwUzKwi2td4aW/Nx/md5TlrJeckff08uXnnJG39zLVq9/3Sa9f/n+CzcDdWaGfhsJdDuzP6Iti7sJX9elg0IBIVBn/wZH3w7H9+ZYcpIRN82cICX/HkqQ+is8Qf2xxmeTB2PQVbAu+T19c5M0Ykkbwp0Di/NTGXBS/74g4fRaYV2R67CZzPCX4jrZryPFUda8znjJRV93mJwzpbtxtdbrfU0qVqoFj749Cpoif1YmLnHSYmOl/zxR1PjlZe88YdFo9bnDPALpz79X+jajX0tWtfs6f2bOikl5yV/nvaNZv0L41e2wshxlxQO1C0uwb/vj7652PCSPy/v03B6328FvMdPw4qnzomqNciIJG8KdA7+ynQ885I//qpvdFJx+pmtrAvxX2Gai77Gc0+twhln/tkZL7no8xabc/bE5HysRiV0TXWa9Tom4uImlbBtQz7uWBZIipaX/PGXweOVl7zx17Oj1wunn2X9+fjTENfjekz/ZJVV6v0ZJ3u4LLzkz9u+WYF6Vab1fypal1JR5CV/Xt6nRerzV4y04lS4m5dIRJI3BTpHQs16zqv45CV/5qfro9G6/5+t2lro5qJ1r4/HpzjNuoN2EqLgJW+xOWd7cM2P+4C6VfFCb+Dm1CqovWcv3vLQZGl4yV/V6rWdV/HHS97q1fX2UZDeV7MZL8T16DRbnvHXoNpQCXnJn9d9a+a8157z2JQXjpf8eXmfFq0pTrZupkPfvEQmkrwp0DkqVanqvIpPXvJXubKH09ziElxr3UV/+q/gB8eBO+h2N/4VXrpNeMlbzM7Z7L1YuAdo2bYmTrPKgtW/7EaaM8kLT/mrFMdvTQ95q1rV4zlr0R+nh6gBBJotrZuuPk5ClLzkz/u+XYKxN7IF5RwU3ekmOl7y56kMKUazVmxSzcTPRfUFKEIkeYvjd1PZ2r8333kVn7zkb98+q8bigX0XvXI8nnPfRTvPE7w8DyEveYvdOcvDHQvZMcWyNR/XxKiE8ZS//d7OWanykLf8fK/nLFQNwGm2POsMTzdd5CV/3vfNKvQvf9fpfPI5brJ7J8Yu4HnJn9cypDRFkjcFOkfeji3Oq/jkJX/btm13XkUpxF307P99bhUsI3GZx+cJXvIWu3OWgIe7sslyP7Y5TZix4CV/+bvssBuXvORty9atzqvomSa+guZL02z5J+8dNrzkLxb7ZmPnk4Lelgx4FxTd8zlCXvLnuQwpRZHkTYHOseuPGFxJpchL/rKzs51X0WqKy/56mnUX7XzUwP5IQSuMvNp7weIlb7E6Z4NPr4qu1fZj4cKddi/Mlm3DfLauhLzkb/eWDc6r+OMlb+vWxuCTU0E3XrFqtiQv+YvJvrnZAe+/GHnkKowf5f0zZ17y570MCc/uhOOhE1EkeVOgc2xbv8J5FZ+85G/lT9btrld21+7ARw1mvzQeKzz2bjO85C0m5yyol+UTmeE+W1dyXvK3PftH51UsJKBxDedlDHjJW+YP7Fnolbv5MnbNluQlf7HZt2DOTebK9zHd432dl/zFpAwJyXnW7+Gzj5HkTYHOsTXrW+dVfPKSv4WLFjuvvOiFa/mg/JOb7A+Ie+3dZnjJm/dzZposXb0sl+3GWxv2H/TZumh4yV/Oqu+dV7FQCYdVA1b/5u1zgYaXvH33/QLnlTcFzZevx67ZkrzkL1b7Fpr3jx14yV9sypCDzb7vHIxfeRquvTz6Z/2R5E2BzvHH8pnOq/jkJX9zvo7Nb6M1u3wkzli5KmbNROQlb17PWaDJ8uBelmmf7Q18tq5rIrx8ja2X/P2RGbs+d4EPwO/D8hit0kvevvrqK+eVR6b58im2LozEtTG6Hr3kz+u+8au/DvqWkDX/xiW3fO65dzN5yV+sypADvsbo447HTR+fhie/HeNp3yLJmwKdg81MOb8sdMa8sArIE/gdioUHLx0cmC8vzWBz583D+vWxeOYT+MBuLN50xDwxb9HydM56V8f/NakUppel89m6alVwcZRNmF7P2eYfvsauzV6eypjv8qxp7ed+fP7qLjzhTPGCeWLeopWZ+QMWL45F7cBpvrR4afZyY76Yv2jFYt8CHy1wfR/kuePR+vH5+LeHGg953TfPZcjHIwvv13EjAWu/vvMY5CItQ/TDqy5HnHo92l30iDMWP1a8fTt++eIZZyw69917D2684XpnLD489fQzuP+BB52x6Pj5nB11wRi0PiMW3WJi5+dPn8AP7452xqJz7YjhGPPgA85Y/Bh9z714bsLzzlh0/LxvFbkMUaBz0S+Mly39wnjR9AvjZUe/MF48/cK4T7Bg4h1rPGF+vBaYxIvhlVdfc8bKH/PiNciRn88ZA8qaGS86Y+WPefEa5IgFLu/E4wnz4zUQkJ/3rSKXIarRhdDzgW+Q1LwUflSuhHLXLsOce09wxrw7/PBGSJ8717rbTHJSykdOTi669+iB337b6KR459dzVq3O4TjpoUWoWqN8awj5O3Pw1Z1dsCfnNyfFu6++nIkOHdo7Y+UnI2M5Tuobg9+jdPHrvlXUMkQ1uhAy377deVW+Yp0PXhT33HuvM1Z+mIdYBjny6zljYMl8+w5nrPwwD7EMcsTnRvGgNPLh132rqGVIFWv4e+ClGDs3rsK+PTvRoOPJTkrZ4wP/9XPfcsZiZ/GSJWjUqBG6devqpJQtNjc89njsmxr9fM5yVi9ColWzq9v6WCelbLHJ8qcPY9/h55dffrGb1Pr16+uklL2/3/8A3nn3PWcsdvy8bxWxDFGgC2PLynlIqFEX9drErhkqUuytt/J9b70RizJ16jR07twJbduW7Y97fvLpp7j2r6XXa8vP52zj4s9Qp2UX1GpylJNSNn5b8BGWvHi1MxZ733wz3+64cfxxZf8L/+yF+PAjY52x2PPzvlW0MkSBrgiblk4r84KTBSa7ppe2KVPeL9MLlRfoZZdf4YyVHj+fs+xv3ivTYMcgt+DpvzhjpWf6jBllHhAYCMqiedHP+1aRyhAFumKw4CyrJjE2fZVmrSAYL9SyaIJgU0Np1uSC+fmcMdiVRTMmmytLsyYXjAGhrJr62KRXmrWdYH7et4pShijQRYBNYlt+nIsk626ahUyssafekheuLJXnO8VhE8T69evRq2cvJCYmOqmxwZ5Rt91+R6k8kyuOn88ZmzF3/7EOh7U7CZUTYnvO2Lty+Zs3l8ozueKwqS89/RurltDZLjxjjT0Qh4/4a6k8tyqOn/etIpQhCnQRYmcH3uXuz89D3VbdrAKmujMlevxg8U8fPIzFLwyz119e+HD5rbffQs2aNWN2Z8Y7sGFXXYW589KdlLLn53PGDirrZr+Bqom1Yla747Fa+Owl2PxjrL/XMHLsxPHqa68hLy8PXbtaNykxKDj5gelxjz6Ga0Zca6+/vPh53+K9DNHn6KLAb+No3u8qNO1xMeocUfKTyu9BZE1g7cyXY/LB4ljitx9cftmlOH/wYDRt2sRJjQy/d+69tDS8/sabMfkweCz5+ZzxG1Sa970STU68ENXrl+xbH/ndlRvmvYO1X74Skw+DxxK/ZeSKoZfjwgvOx9FHH+2kRo7f78gazmsTX4/JB6Zjyc/7Fo9liAKdR7WbtsNh7fuhbspx9uvqh7VAQs16qFSlKvbvzbd/ZZo/wMkv+OXPtvAb7b182W9Z6nHiiejZqye6djkaR7Y5EsnJyahdu5Y9jb/qyx885G9B8Wcy+A3iXr6guSz5+ZzVP6oXDkvtjTqtjkGt5LZIrNcEVavXtqfxl8H5o6n8PTn+1A5/hcDLFzSXpdTUo3DSSSfh2GO6IfWoVDRr3gz16tZF1apVkZ+fb/96Nn9YlL+5xp+j4Tf1e/kS47Lk532LlzJEgU5ERHxN34wiIiK+pkAnIiK+pkAnIiK+pkAnIiK+pkAnIiK+pkAnIiK+pkAnIiK+pkAnIiK+pkAnIiK+pkAnIiK+pkAnIiK+pkAnIiK+pkAnIiK+pkAnIiK+pkAnIiK+pkDnmDx5MjIyMkIOzzzzDHr37o309HR7vvLCfEybNg1HHnmkk+JP3D/u52233eaklAyX47niOfMjXgcLFy7EZZdd5qQcwDTue6hpsRQvx5jvx4p4rv1+jcYbBTrHeeedhw4dOtjDihUrMH369ILx66+/HrNnz0b37t3t+UTKE6/Hrl274o033nBSAlhoDh06FH/7298OmuZXfD/yfcn3pwTwOuCvkJf2zU5FokAn4hOtWrXC3//+dxX6IkEU6CJkmtPYbGTwjolNSO4mTsM0TfCvmSdUUwWnm+U5cDwSXI9ZvxGqyc+kmfW/8sorB80TnIdQ+zFu3Dh7WlFNt+7mX3fTWvBxCl5HcB7vuusuZ8oBReWxONxe8Da5vElzn1v3PgRvo6jzHbwPfM204gQfXw7MQ/D6gs9X8LXENB63F1544aD5mU+ui+ee00y+zTVktuHOc/C04O2Fwm2a+Tm48xC8vuDzQe7z4Mb1hDueZt84zWzDvV2zzlBpJi9meZ5fLm+uWzLzuvPkvkaCj0tRxyCUnj17hi0fgvMZybY48Bpo0KAB7rzzzkLLuPPtfn8eChToosSLhE1Ijz32mN28ec011+D4448vdGEnJSXh1FNPxfnnn49BgwYhNzcXt9xyizM1cKEOHjzYXpbreOihh+zxWF2AfKNMmDABOTk5Bc2wO3bsQNOmTZ05AlJTUwvlgfvhzgP3o02bNvb0cE23fBPVqVPH3k/O9+KLLzpTgKOPPrrQcWrWrFnBcYpVHmPh5JNPxrx58+xtvPbaa3YBYbZR3PkeO3ZsoX1YsGCBnR4J9/HlvqWkpOCDDz7AF198YaexGZ3XhbuQc4vkOuLx5HHldO4H18V9mT9/vp3GweSZy7FgT0tLK5jG+Th/NHngOWZN02yL18hPP/3kLHnAypUr7ccG7dq1s5cxTjzxRDud070y1xvXZ/aN543nb+7cufZ7lE2hRo8ePZCYmIi3337bHjcB2izLfeK+cb3cV+4z953T+Hf79u32/KEUVz5w2zwnZlvr1q0rmB5uW9wPnoPff//dTjPNujxvmzdvLlgX09jM7T7OfqZAF6Vzzz3XvsjNsxBeOBznm9LYs2cPJk6caL9BObDgYjDgxcWBFzkLE9PUxHXxYna/0bxgUOKb6fHHH3dSgPHjx2P9+vXOWMBVV11VkAfzZm/SpIk9TtyPKVOmOGMH45uuUaNG9hveFEbPPvtswbEZNWpUoePEfWzZsqU9Hqs8xgILPxYUxAJt06ZNBduI5Hy788x9jrRg5r6Y/ef6s7KyCuWFhSzPQevWre1xt0ivI27DFNZ00UUX2fMw6Bkmz9xX5sFsn3hOuI6eVg0kWKR5WL16tf2X2+C2QmENhNcDC3liAc1ri+mxYG7UuD8Gr21uIzk5+aBAy/xv3LjR3i9znbuvVR5TBkKTX56nn3/+2X7NY8D3QTihygfeBJqbCS7vPk68CTPlB5VkW8w/30MGjyfzzX0+FCjQRYEXGi841gDcTQccd1+Iu3fvLrgQDb6JeXFx4Osrrrii0Dr4JguuzUSLwYSFU3Z2tpMSGvNrmkhYkwjefqj9cGNhwHmK2o672YT7aMQqj7EQHFyJ+YvkfLMQ4nhw81K0QuUllEivI/cxZn45PdQ2zL4GT2NBzJqPuUFxKy4PXJYBhNNNM2E4wbUqBmQGGhbkscD8M0+8hkw+2cTH/PNGwh1ozXHiuSXe9LBJ0DQPczDNhJzGvPN9wLTg5tdQintfEWvKZls8fkZJt0UM1KaZlPtcrVo1Z4r/KdB54O6ZaYZTTjnFfmNHik1kwesI1zwYDRZOReWHF/97771X0JTDJpRIC1m3cNthoW/uxs3+cVtuZZVHr4o636z9cJy1PBY+pomrrERzHZkaVihFTQunqDyw5shxnmsGmXCFM48lazYMRsGBJlZ47ZgmdjOYXqzu1gLTbDlnzhxnycANg2medQ88/8w7rwfTrO31ORivIXdzMI+vUdJt8XizN65pemezJmuEhwoFuijwIuMb1kutgnfXfNOEukOOhFnezdxZGyys3E0hFDwP75zZTOVuwiqpUNsxevbsaefTPMsKVhZ5DBUUS3LuSnK+mUcWPmzi8lLIRSqa68jsj7vZ1Qg3zdT0QgXAkuSBgY+FbJcuXUJeL8TAwm1x3uBAU5RI3xMcZ3oo3H/eUHH/ed0tWrSooDl2w4YN9t9QTchunJ/L8i+bgaPBY8NriAHKbD+USLZlbhgmTZoUs5pxRaNAFyW267PTgLsA5+twBXowvqF458oL2l0gsvddJAWkKZD4bMQ0BfFBtftNbQoINv8YwfMEB5qRI0eWOIDzzpMFjPtB+nXXXWfvBwsHbs88w+Dx4ZvOKIs8cnmeK3Ncg/MQiaLON48/ezSa88CC0DQLMc+l+ZmmaK+jUPvDZbgPoabxmFOommpxeWD6yy+/7KQGmgCLajZjoc1r++yzzy54PhaJSN4Toa7V4PzxuRuDDIOx+9kggwSfO7o7cbjPvbkeDK83wmyaZBAj5pG1O6O4bfH4mufL5riYmxfmlfugpkspFi963iG5n0vwDVaSJis2d/BNzPZysw72vov0rosPxfkmNs8blixZUqj2wnWzuYJNG2b9wfMwD3zzmucONWvWLHGzIN9II0aMsO/CzXYuv/xy+/kD94XNeWYf+WZzN12WRR65PGuE7jywGbIkijrf3P969eoVnAfuD+/EuYy5+y/uWYwX0VxHnMZmrCFDhhRahvsSahpvDHiOOT2UovLAQvuII44oSGeBzWPE+cNhcyWvbQbdkijuPcH8s9MUb5xMfniuZs6c6cwRuCYZYBlo2JTpZoKLWT//8nrmenlT5z5mFO1jCK6PHVUY4Lguno9Zs2Y5UwO1y3DbYv75nuO1ap4Z87iYfeZjAPbmPJSaLmm/hkNnsC76/VYNY791px1yuobYDlbBuN8KhiGnaQg/8LhNmzZtv1X7CDndDFaQ0vHVUOygGt0hhk02oe5UpXTwuVWsO1P4nWmmMzWlcDgfWwJ0fCUSISOghoo/sPaWnp6+PyMjo2DQ3a+GeB1Ye2Mtjtcpa2qh5uHA1oiFCxcWO58GDWao5LwQERHxJTVdioiIrynQiYiIrynQiYiIrynQiYiIrynQiYiIrynQiYiIrynQiYiIrynQicSBWslHov+Tv+C0V7YXDO0vfcKZGjkuc8qEjWjY+VQnpXQdd+vHdl57PTgfCbUPc1JLrkX//7P3n8ehNDG/0RxXNx5bHmPu95Hn3GXnm+uNBR5DHkuTR7Mtr3kuirn2wu0D072e33hw0KfINRwYrAtsv3WiD0q3LsD91gW437rY7cF6ox40T1GDddHsty6eEi/nHpgv5oF5CTWdA+exLuL91sUccnqshljsT/AxDXXcuX4zPdS+c5lw000ezXQOZXFsihvMPrmPHfPEvDG/zLd7/pIMXE+fsRlFXiPRDnxveM2fGbjvZXEueH0w36GmRTKY8+LlOi9qMNeolzzGcmA+4iUvXgbV6MKwCgb7Tqrlydc4KQdYFzs6X/0iMv9zFz6/sha+e+JcHPnn0WV2F+1WpVpNtDrtJmesMOan3pEnOGPxzXqD2/sx9+897GM6/cYWSKx7eKE7We4PjzOPN+fh8ed54Pkgq/DB9uwf7GmhptPe3dsLlucw46YjrGXCf59iaeM+pf7ln8h4YyTWzHjRSYWdp28e+hOq1Tnc2ud7nNT4s3vrb8jb9oczdmjgNbRz0y/OmL9tmPsWlr95szNWcSnQheAOZKunv+CkHtDylOuQu2ZpQcG0ackX9ni4gFOatmbNR83DWxcqzI1GXc6w3pQ77DdmvGNh+e2jZxUEHY7z2B+W2rugyYTHN3v+ZPt4U/b8NOzJ+c0+H8Tz4X5TmumHte9vj1ez1sPAEU94jnZuXGXnNRiPBffXHAOeY6s2YQd0g+lWDaAgjX85D+fl697/XIQaDY/AsTdPKdQ0aNVsCppIeUPnvknjzQXX2fnql8I2oXJ53gQ26NCv0DxcD9dn1h28rNkHM53bMeeXeK7M8u78UvC6mYfiuPcz3PzueYK36cbt9/j73ELHs27KsYWaGs3x599w+2HOWSTbNMeL6zOvzXJmMPsVyXqZT/eyXK9ZLvhccb3d755RaF7D5KX1mX8rtE33PPFEgS4EFjC803ffYbvVSj7KmucHZyzg1+/et2sg7jetW/BF2O6isc6UA4Ln4etw6zOYVwYyU9gbvBAbHX0a1s468PP7hvuNHU0hR6W1P+FwOR7fbesCv71FDIZ/ZM62z0dpavmna9HximdROaG6kxJezcPbWMf3I9Ru1sFJKRrzzn0IVyvauOhTVEmsZQfpkuL1O/uuLnbtg7VYU3vltbF7y4aCWu262W8i9cJ/FDo3zH/+rlx7eqg7et6U8Ebk94yZBfPwOuIN4sJnL7HTuO3k488rKPy43RPu/J8dvM22f1v4iT2NqiU1tIPnl7em2jV63qS0v/RJZypQ/6hehdad1KJTkQUrr3NeM1wXl+F7lIHZzQQJkx/mret1b4W8TnmDxRYH9/Hc8dvBvzNY3H7UbX2cvd9mm7xJdk8Px5RLZjm2AuzJ3WQd+8ANdnHr5XuZ54PHjtO5D/k7tjhTDzDvWzLr4rxseQg+3m0G3YHMd+625+H1wBaX4OAaDxToSihUgVscLnPC7Z/bzTzmwmEh4i4MzTws9Mw8nL/LiKJ/hJXrCa75EO+MGQC3rV3qpATEopArzf1xa3zsnwuaxljQs8AvSZMR3/iswbmX4Tp4N87AGxzkw1k761VUqlQZHayCoqhgxyDX+f9ewvo5kyK6PniMeC0Vh3mu0SjFGfOOBeaSl652xkIHUxagq6c964xFJrjGze1wnOeRTEuI+5r6Me2+giC/d88Ou9DkOAde1wxmpuDkvO51c13hbih4XrmsWR8x8DMwG5yHrSEmUBD3mceC1060Qu2H+yaY+8B9MYq7SQ6Fx4RBZeX7Y+xjQUWtl/PzxnfJS2zePzD/hvR37dduyccPtt837uPCeVlWmHNpMM2cEx47ljmxvFZjRYEuhnhxhLrzDnXhrHz/wUKFIechphurPn8ybLOkm2n2Muvghc07Sr7B8nZstdOMWBRypb0/xLtPFlTubYQTqpDgNli7CC543XfEfJN2ve7fxQa7fXm7kOEUzuGCnQlyLEwZ6GLJfia0McsZiw3us2laY+DnNeDGWsgeJ0BEgsef54HXnanBc+A402s2bmPfjAW3hLixmb24/XS3RgTXztzYvEhFrY/zcGDzrlmnaeo1y0cj1H4Elw2sGZltdrhsvJMaOdbUGOiDW53CrZc3vjzHkVxHvHkIdf75/g5+rwXf0HEbXo5daVGgi6FwhUO4C8eN83A4+ak1BRcqC6BqdRoVe4fEu0bWnMzdFu9GecH9sXyGPR7MayFX2vvDwoxNLOyMYe4+i2JqfQb3j89SGORC1UgNBmE+H+NzsuIUFeyiDXLmvAXXxt0Cz1m3F3msS4o3EQzwphmQzVLcRizw5srcSJjh63uOR972zfb0SGq6ofDGhc+EyKzXXTsLpbhrlHhTZ5ry3ENwAIklXt+sjZntsgmyJBjMQt0EFrfeSI6HEfyequgU6EqIJ58XAQvxkojkwmEhYJ4nmGHaiEYFNZKisAbG2hILeTYhbVz8ecggEatCrjT2h4W9eTZgnicZfIPazSLF3C2yEDD7V1SQI3MuIxUq2HmtybFGXaNRq4IasBsLdwZ88wyPx4CFlRtrCawtRIrHmIGVHa0iua4iZY5luOelZnpw01ekWCPhvi+acJmTUjQ2V/O4uJsgTa3TME3aZdnUxnPK96m7CbEkuHxwkyUVt95QxyMcvm/dTcYGy7xI3vfxSIEuCmx+CX5D8w1sCqRgoS6c4AKK8wQ3b5QEL24+GG/R90r7gmcBGixWhVxp7Q+f3/EYsqNDMFNQum8wzP7wWQQxyLc+42a7w0Ak+xdc8EXCBLsqiTWt/E5El2tfx/qv34y6uZL5ZBMqm5ncD/p5bNlxw/1MyxwDNgcy78QmLHZ+KIq7OSk44HA9fEYbXKuPBpum+XEW937wtRkPNb3t4PsL9qUowQU111FU0+XWn7+1A6O7JzQ/puG+fnjseXzdz6j5lx2xIslTNMwNm2lF4Hlm4IpUuCbL4tYbal/5fmnS/QL7tZvprezuyMJ5edPFc1gRKdBFgUHE/YblRcDgEu65lmlCdPeMDC6gQl1cvFj5posUL8IGnf5kB7xQBX2sCrnS2J/ijiExoDXrfak9L5lakHlGWVRNltyFLrHgY+FZ1DZDYbBb8vJw5O/YirVfvoI1M192pkSHgcz0ajPNvHxWFCqAsbmKeTZNwr9nTLdvKsLhsWATLgOp6W7OdfBGhcv3fTQT7KkXi6ZLXnO8ieK2zH4wKJvzw+msabv3k4Er1M1hMC7L/TAdiXgNF9V0yXV+88hp9o2M2RYFL2NqiOZ48u+Wn9IjylM0uF52VOF1zO3xZiZUz+hQTHA3H+kwg2kFKW69vIHk+9/sK1s+gp/hU6hjx3lZWwxVrlQElayBnxyXMNjUx9pbcC2DhS1PPj+wzV5WfAMXdRGwgOHFZwqvH967F017XGQ/0zB3Z8HzFLdetsmzdmnu+Bm4jh05GSv/+8+CZZhPFjzfPT7ILvTc2+D6f5n6L/uuzkzn/rKWxAu9qDd7rPfHfTyDuT9MzTe7ecjO5yvu53g8HqHu8hkIuD8MjGZZMumlVah55T5+8Z5XkXimQCciIr6mpksREfE1BToREfE1BToREfE1BToREfE1BToREfE1BToREfE1BToREfE1BToREfE1BToREfE1BToREfE1BToREfE1BToREfE1BToREfE1BToREfE1BToREfE1BToREfE1BToREfE1BToREfE1BToREfE1BToREfE1BToREfE1BToREfE1BToREfE1BToREfE1BToREfE1BToREfE1BToREfE1BToREfE1BToREfE1BToREfE1BToREfE1BToREfE1BToREfE1BToREfE1BToREfE1BToREfE1BToREfE1BToREfE1BToREfE1BToREfE1BToREfE1BToREfE1BToREfE1BToREfE1BToREfE1BToREfE1BToREfE1BToREfE1BToREfE1BToREfE1BToREfE1BToREfE1BToREfE1BToREfE1BToREfE1BToREfG1StawP/Cy4qjV5Ch0GTERSS2OdlKkIstdsxiLJgzF9g0/OCklV69ePfTv3x+NGjVyUuRQsXHjRsyYMQNbtmxxUqJTpUoVJCUloWrVqk6KlLf8/Hzk5uZi7969Tkp0KmSg63n/XCvIdbZeMftS8e23gt0SzLmvhzNecueeey727duHP/74w0mRQ8Vhhx2GypUrY8qUKU5KdHizpCAXfxjsvN7EVMimy0BNTkHOPyp5rp2zJqcgd2jieY9FTV5BLj7F4rzoGZ2IiPiaAp2IiPiaAp2IiPiaAp2IiPiaAp2IiPiaAp2IiPiaAp2IiPiaAp2IiPiaAp2IiPiaAp2IiPiaAp2IiPiaAp0PbXypFj6/shYWL3QSROTQUjkJyU2SVMA7KuSvF5z2ynbnVdnat+G/+OndR7Bu2SLsznMSazZGnaOG4sjL7kOj+k5aOWOg+34O0OTG7Ti6q5NYATA4R+uaa67B8uXLnbFSduINGD+sE2o4owV278SmDT9hwZfv4uM52djpJEvpa9++PV544QVnLDoNGzZ0XpWh6g3QpmMXtG1aBzUTGJb2IW9HDtb9uAgZP/+OXfsCs5VMdbTtfyY6W+VR7oqpmJqR66RXXJs2bXJeRUcBPyJb8cfbx2Dq3UOQtdAKcnvrIrF+Y2uoC+z4FTkLx2LDL86sckjJs+54zIDEGmjYqhMGDL0f4+68GKkHRcIKoMs5uOHOf2D8wyNwgpMkpSOhyfE48/S+6HJEPTvI7duzC3n5lZFQsx5ademL0/t3RIOoSui92LHDuh735SFn6y4nzbonb9IR3a0AeHKHJCfl0KFAF4Htn52B+V9kWkerO1Juy8KAl9aj32NZ1rAepz2fhR5XDkXtKs7McghZg5k3Xo/rnWH4yPvw+pdr7JpcQqt+uPbqXgfX+uLdUZ3RqVVD1EhIcBKkVNTtiH7dW6C6VQLvWv89pr4/Ge9/9Ak+/MD6O/V7rLMuosp1U3FSj1Yo+ZnIw7r0DzH5/Q+Rvs40PQENWqWiWf3qqHYI/sKZAl1x1t2P795ZZL3ogtQHp6Ntu8aFD1pCY9Tp/S+k8Hdg5dC2MxtfTxqDp2ZkW0UNUKPTqfhz08AkEbfko9oiySpI8jbMx9R5q5DraqLcl7sK6f9bhI1WWuXGHdDhMGeCRE3P6IqxZVIDpE/bhRpnf48+56Y6qUVYOAyfP/UO0Owh9HnwxgN39Ca952ScdvVpgbRt6Viddj9Wz/8S23cEkqq2GopON/wLjc3zPtdyf+o/D9+NHYsth5t178LO+bdg4cSJyOHyCa3QeMhkNPnxGCx0P6PbtxVbpt+JH2e8jz82bLVXi5pd0PzKKeh4TOPAOFZh1T0dkbkuFan/+BSJH/fA4jm/lulzvor3jG4Npg4fg/ec5ANOwS1PXYDURCB7xkjc93bgaV2Nbhfjxgu6I6WBc1XszsGaee/iqUnfIMdOqIMThlyLc05IQUNz4ey0ao3Pj8Fbzq7VSD0TQy/qj07JdWA/0rHkZX+Np+97HZn28lfjrG4pSK7j1AP27UT2ko8w8V/TkGUnnIAbHrsKnWrvxFLrutl68lD0amHtybSXsfVEptszuTj7WCMVZ152AXqlJqNhbWfdeVb+Z0/CY28vCDyPNMdl21K8/uZW9B/aCy1qhDtGsVWhntFVboGeg45HcuUtWPbZdGQ67/1gycf9GT1bVsaurC/xycLfgRY9cd7xycD2TEz9fBkKnryZdCtoTp67JpDU4zwc38S6/uZPxpycjjj9T6moaU9xMfNXT0Zqlw5ofbjrOeHWDVgyLx2rTFHr2saHKw+zapptUG93UD5KkZ7RlapV2LKcbdyN0aRbBEGuhHbOvhbLv1qBxM5D0bzvUDRp2xj5qyZi4T23YEvwQ+gdbyODQe5ASwR2fnEyZj0XCHKJ7S5E82OOwJY3+mNpcG/LTROxdNJEbK97mr2d5t27I3HHIqx9phuW/+jM45Lz8Rl2kJNofY0NVrlEdQ8LVPVr9LwBD4zohxTrBiZ71RqsWZVtBbc6aNH3Ktx+VSd7nk5X3Y6r+lpBLtEKTmaexLpoWNeebK1jBB4YeQ66NbWCnLW0PU+2FSITayIwy6k4tW8qkvG7tWxg+Z1WOE7ucgGucrbhVtcJcgFbsYHL/O50obGCWCAPG2AXMV2sdR/bArV2O+ten4O8BCv//a/CjWcFN9DWRf9LGeScUSksqQ7qsOTd9Ts2hQlylL3xN/tv9RoHhaiS2bMF69atgzm1+3I32uPrNgY2ntSmKzo2qY49f2yw07O37kVC3WY45mQGY3uWA6q2wPEMchXsx9gV6CJSDwmFrrXPsdiqfbAGUjC89LkzLXKV2z2HPs9l4fjh/0LHof/C0Xd+irbWXRh2TMSGnwLzFFj4DnaeOh1/emk7TmNtbvc7yHybTaqt0PK29eh326voOPwT9Bv/HBq5gqEtsS86Pfx7YB5rOx2HT8fxgxm4t2Lt/PTAPAUysWFZO3S05mfNuSL12owfO5G313lpOwFXD+6EOnnZmDnOquE9NAZjHroPo15eYNfkGlpB5BTrb7smgRpF9pd3HpjnzpfwxWqmdsKQgd3sAnJn1id45NpRgXnuG4Xr75iAb+wlV2Pe+49j5Kj7rGUDy9/5ZbY9pWGb7ih8q1YDLQ7fiq9fHoXhw4djzLuZeO9pa5kFzp3z7tX42F7Hy5jJ8a3L8YU178i7nHXfPwpvLWXJmYAWnfpzjgNqt0Dytq/x8u3DrXWXfm2uwtqbjz3Oy5Ci6nEZws51WJKejqwtgdFd6xci3RpPXxm4G8vLXoipH3yC6V9baVb6nP99hR8ZAxOaoUUje5YDGhyOWqvn4JP3J2NyGdXmYkGBLkL7ChVc1Z1el9bg4WYrsVUX4Kfn8ePEYZh/dwpmDj8GP27glF3IC26dTRiOtud2R1Vzxn6YCbvO1e42pLRzbvmp9jlocrzz2qjbxao7pGP1lL9i8dhjMPPmBpidlmlP2rfDufpd6p31BJofXt0Zk5JLRk3n8G3fvRU49hi0ZJNgQjL63f48nn/eGf5qBS7OZF1E9aw/m7YFbrmTez6A24eegk5M3JKJzPXW3/Zs8rT+5mVhxlP/dZohg32Dr7Oa4M9/vR2j7x+HZ556BuP7JwcmFdT6DshZ+i5e/ybQaFqs5dMwG70xYuRo3P/P8da6n8flnQJVtoTCd4GWHCyd/Dq+OfjSErdKlVFkH7YyKp13/W7VHBunokv3njj59DNx9qCT0dY+pZWRUM2e5YB9VtBcnB3lxx7KjwJdkZKRaN/RZGLjMndTXl+k2r0ureHqC520ktqKjS+lYNbYW5A1PxNVjvoLWg19HE2CSyPjmL44zH229jrtEIdZeQy8Cit/4TDMuONMLP/4fWyvfiKanPacVW6aZ3PBUtGoY7hpEpEavdHSvm7y8Psv1g1FQkKg59zubCyYMRMzDxrmYYU1eebzEzFzFZsi6yCl5wW44ZHnMW7UOYGPKdStCfsJ5u4d2OCc+mB28+gtF6NflxQ0TNiB7KylmJkZLpDtxOqlS53XxUu5YDT+edU56JZqBfG8TViz4mssWB/cdODYthpL2Nggoe3YBfs+tmYjNC7iRjm50eH23x05pXnHYNXIe5yFAT06ovXhtZC3ORtZy5Yh+8CnEgr7fSOyK1iQIwW6IlVH4+7n2K+2vP/Iwc/NSmAf7+zdVo3HsjlWWt0b0f2pOThm6ENo1fM01DmoM4CjSpga1o6tQS0cu5BfqN1/EX6e+A7y0Rit7lyPHjf+C6mnX4hGR7C6EFplfVTCgxrodXVvtODLbZmYPc1ODKhsBan/voW33g4epsEOOTsX4K2HRmH47U/j3S8zscmKI3WOPBPXDnN9os2qmYXuMpGMC87sZNcQN815JNDEOH4C3loTdN25RXw9n4I/n9TCKhLzkDVlFEbdNwaP/Ot1fL8x35l+sDAhUChvNdbY9831cFQHp8YdrFobtG3O4nkXNmwouoEwIcHDG7ZBB3RuYt2G7VqFrz+eiq/Sv8eyn9Zja6EWLJfCTVsVhgJdMSoffx9SW1kvdjyP9Ifuxx+uD2DSvt27nVeOxu0Dd97rZmKLCTj7MrH686BneFtWwV6yZv2C3nPY8AE2rHNeF6dpt8B2Fj6MVXZzp2PDC1hVqDNKNnbaZZ3rOaOVn1+/CTRdSgzV64RzRj7gNOnlYGnaS4FnZ/N+wgaW/Akp6D2s8Gfr6vQdgavO4KtU9OqbGpi2ZSmmTXocj8wJPF+rcVhLax1LsNp+JJaC/jf0CzR5FtISdZ0V5+82F0QKzrdqYNE68PmteqhpNxvkY4fTvIoavdC9tXtPJHJ5WLU00/5IQULLEzGgi1VLdpXElZNaofufuqCRlZa3fhEy/nAm5OTCLlJqHIbDTZNiZStYtgl+kFaMSq7AWLOWdTtv2ZeHPHPjU7clmvrs1OrjBZHY8SWWP3AmVgc6QVkXR2Mk8o2/7dcDXwVW8LGBTPx42zHI4jP9BOti7ZmKvYs/QH7dI5CzygouZr6tEzH/5r+C13BiW6uG1XQrNs+ZZwW/rci31lnQrT/UxxJsu7DxlRR8P5tRrDrqdP2LVfgtxPrFQO0mi5BjBczAOn7F2sdSsGyZNVvd7mjStR3yf/gPNluL5e+wgnbBel0fL3j4e7QKtJqUqYr4FWD2N6I4EhJNl/4cZE55Do9/ceBJGpv+bjmFtSJLTjbW/JGHhKSGSG7Arv3sDOJ0+98XmMYw07BlMmpYhd2mrx7B3W9mFV4He0Wu24q86nWRnPgTXr9jAhqOegbnHGlN5UcKVlsXYN1kNKhtrYkf/t62FC//7Wkr8Lo+XvDqSDw9jytzce/b5mz8bl2PS+74GHX/eQtO4DPC3dZ2+RGVhi3QINHaB657zVQMH/NeoY8XBLZVdiriV4AltOiO049t5tzo7kPerj1A1epIcHo07tu8DDOtmv2BlqQG6HJGX7ThycnPxcZftyOhweGokrcLSUnWXWy4jxcEkpDU8XQMSLXms4Lalo2/Azt/wfTlNdH3tM72N7Dkbc3Gb9uqoH5j66aY/6x8FCwf4iMMZUkfLygLNfui/T/Xo8eVN+IwPkTbYQW4zQxy1ZHYpC+aXzgZfYaaIJSKtndOQvOW1n1S3iJs/Opz5B8/GccP6uJMd9Qdim633Yg61nW3+8d3sHZxdTS/bQraRBxgqqPRFQvQtW8XVK28CzkLJ2L9+lbWtj/FkUc4s9gao/m1n6BVKyvfW9Ox4avPUPmkT3DswEIzSZQY3MyQt20T1nz3CZ6+c1ShIEdZ7z6Gp99fiuxtVhCrk4wWrVog2aqWbVo5E19M5Ryr8dOqTdhZIzCtRatkVN2xCVkzJmCMFeQC6xiDu16eiTU51joS6iCZ8x1eAzs3b7LCEfDJM2/hm2yrxlW5hj2t5tav8fLsQK0wYvNewrvfZGMnaxv1k5Fcmw2WmXj5pU+Qxe0mWtttaQWEn97F+xnhmy6leHlr0vHhZ3OwbENu4Ku/qltBrrIV8PYEIltlq2bVrJ67iP4di2Z9j3WsClZNQqMmDVDl13mYuSKyDkW5y+dhycZd2Fc5AfUaH45arObs/BFz0lch16rOJVg3RtYqsWbuPGQFNVRVdKrRSdyoMDU6iTsV9kudQ0pA8nED0JM3y1bta92CqUj/JVzvkEODanQiIr6Sh+xvp2I+e7Vata9mxw5A33YNVFh7oGMnIhJ38rBm3oeYPHmyNXyIL1f8HrPPjx+KFOhERMTXFOhERMTXFOhERMTXFOhERMTXFOhERMTXFOhERMTXFOhERMTXFOhERMTXKmSgy12z2Pq/wn1zmYS13zmn0du4cSMOO+wwZ0wOJTzvPP9e5efruzvjUSzOS4X8rstaTY5ClxETkdTiaCdFKjIGuUUThmL7hh+clJKrV68e+vfvj0aNSviTJVLhMcjNmDEDW7Z4+4HSKlWqICkpCVWrOj8fIOWOQS43Nxd793r7HbwKGehEREQipWd0IiLiawp0IiLiawp0IiLiawp0IiLiawp0IiLiY8D/A+R3kRsS39ILAAAAAElFTkSuQmCC;" vertex="1" parent="1">
          <mxGeometry x="35" y="1298.6299999999999" width="250" height="232.47" as="geometry" />
        </mxCell>
        <mxCell id="dTqFi1dfQPmzT-X44cD1-69" value="" style="shape=image;verticalLabelPosition=bottom;labelBackgroundColor=default;verticalAlign=top;aspect=fixed;imageAspect=0;image=data:image/png,iVBORw0KGgoAAAANSUhEUgAAAbAAAAGzCAYAAABO2kKEAAAAAXNSR0IArs4c6QAAAARnQU1BAACxjwv8YQUAAAAJcEhZcwAADsMAAA7DAcdvqGQAAE/KSURBVHhe7d0JfBTl4T7wRzCEw3BIkHBDPDg1QMUIoggFvBALWKu0/hH1B7ReeIDiUe+q4AEeLeKBqEWrBBRRK1BARCRiBQQCKATkSmiCQMIVgvCfZ3beMDvZTTYnGfJ8/YzZnXt2h3nmPXb3JABHrUFERMRXqjh/RUREfEUBJiIivqQAK6ozRyHpuxSkrFyICf2dcSIiUu4iagPr90oyxvaMcZ55/JqD7PQ1mP3WBIz9ZzKyndEnrHuTkDKkrf0we/5oJN4yy34sIiLlq+QlsKrRiGnSEYMemIxPXxyEMDHnHz1vwITXZ2HhvAno54wK8u8lWLPf+rt/K778QuElInK8FC3A1k5Gu3btjg2J/TD04alYsyswObb3g3jrnvjAE78670r06RaP2OhoZ4THinEYdK517Of2xeiZzjgRESl3JSuBZaci+cMnMOjSh7DQDrFotO09FD6PMBER8YHS6cSRnYSk/2YGHsc2xUWBRyIiImWm1HohLtmRFXhQNdoqh4XQsB8efHc2kpelICUlMCxbOAsT7+mHWGcWN3YcseebPsp+HnvFg5g6xxnHYeUyLPx4AoYnFtTqFoPEYRMwa+Ey13LJmP3u4xjsWW7UdGe600ED9S7CWLOMNSTdGxhtzYkke1wyJnp6IQbvcywGPz0LC1c66/jgjsBMIiJSKkotwAad0STwIHMrlgce5YkZMAEL547F4M5NEWOlW87+HOT8CkTHxuOiG8dizgej0NGZN5SO9yZhzrjB6NgkJrBsjjXSCsrYM/vgjtc/xYQBoUKsI0Z9sBCTR/ZBfCw3ai1nLYuqMWjaeRAe9Cx3iOs163bYz0OML1w0Br0yHQ/2j0dsVWfUydWcByIiUhpKJ8ASWKIJlLtSv5qIZPuRI+FBvPfXPvaFPHvFZIzo2Q6dzu2ETmcnYuj4ZLDiMbrDYDx0b5iWs4ZX4sUh8ciYPwFDE51lO7XDRcMnYzn77FeNRZ/7XsQNQRkWg0GvvoqhHRhcWzHnyX5I7GQtZy3brudoJKUyyKzl7hmX19Nwwp8C0zu9vyYwYtdCPMTnzjB4fGB0RGqej6E9Y5A64yH0s/bZ7vAycJwzUURESkPJAqxhWwy6ZzJmvzUITa2nOWsn48HHUgPTbPEY9fAgxDNHfpqK4deNw8IdziRkI3nSUNz+4VbrcTTaXnJH6LazerGI/uoJDLrlVSS7PmSW+dU4DB42FcwixCTi6jtdAdh/HEZfyETLxsLHBuGOf6Ye+3zajll46LoJgXXVS8Tg20KV3kqoeTwaWPt83QNJSD3hPxgnInJ8FC3A2gzNaxOyh/lJePzGRDQ9ORupVglpxJBxwdWHZw5FnzYsmWVi4fgn8lUt0vJnF8KOvLi26NfNHuWxBtPuSQr9AekVT2Da8kDdXnyHQfZfumFAov15tJwVUzFqRogls9/CLLv4ZgVnt8GBcaUqFZ88G2afRUSkVJS8CpFVdE9fgX6eEpLtqnZ2yQy7UrBwvj0mv+zl2Gp3wW+ABmfaY4JtTkFSAUmQtH5b4EGT053qwD7odHqgOnPbqjfDhkhSKkt+VoTVa1r63f4zNyD5J+exiIiUiaIFmOuDzIn9HsLUVVY8RDdFnwc+xdQ/h4gB04Gh3kV43F1yCxrG4qJ6nCkatePsuYPtzwqU0MLIPuztXRGNaGe78X909Vr0Dqa3YUwDtAs8Kj2ZVqg7D0VEpGwUuwSWnZqEJ67pjYe+YhknBh2HjcOoUCUo+tXVm6+goUg9/SIQahveITsLpb1ZEREpeyWsQsxG0j3/CFQdRrfF4MeGh/4uxKzkoB594YYi9fRz9GnSIPDAKvV8GXiUZ82HobcTNFw6WqUlEREfKnkbWPZbuP2t5XYpJjrhRrw4xBVhy7fa3eRRrwHaFrezX/N2uMF5mN9F6Nch8DHo7K3LnfauWdjgNIs1bR7y63hFROQEUPIAs2T/40FMXcsI4zdfjMMgE1ZfJGFZOh+0xdXPFvOb6mt2xNUPhP6Yc8yfR+Aiu90sE0umHftm+IlfBQI1ptsIPJgQGBexX52/NWvD+Wi2iIhUQKUSYOw2Pu7RWbD79dW7CHc8aUo+CzHhszWBMLnwQSS9cgcuahiYYsR2GIRRr8/G5HucEflEI/6PryLpr+6vnGJQTsanf+loTbUCNPlNPOjq5Zj90lQstD8hHY/Bk5Lw4ID44PCMiUefIY8j6eMQP5myeEPgOKLbou+9BX0/iIiIHE+lFGCWFQ/hxbmBL/SN7X07xva0HyL12RvwxKdbrRCLRtOewzFxfgpSvluGZRxWpmDhB49jaLemqG16LHqtTcLktdXQ9tqxWLjSLJeMySMT7W/3yEm1Aur2tzzd5WfhjtteDXxTR0xbDH5yFpLNsvw15eRZmHDvILTlV0x5LZ6F5XYVZDTaDpnq7Kv7uxBFRKQiKL0As8x64E3ns2BN0e/ex53vN8xG0qi+6DNqKpJTM+3vQETNaERzOJyDzNRkJD0zAsOfsWcOIQvjBg7F2C9SkXnYWY7BtWsrlr8/Gn36PYQ5wekVsGICBvceiglfrMHWXVYZkF8ybG83sOya+ZPx0PWjrKjzWojRf3oCs35yvl2fy0RnI8v5zTMREakYTrKGo4GHFQu/2X1sz5jAZ8/0PYIiIuJRqiUwERGR8qIAExERX1KAiYiILynARETElxRgIiLiSxW2F6KIiEhBVAITERFfUoCJiIgvKcBERMSXFGAiIuJLCjAREfElBZiIiPiSAkxERHxJASYiIr6kABMREV9SgImIiC8pwERExJcUYCIi4ksKMBER8SUFmIiI+JICTEREfEkBJiIivqQAExERX1KAiYiILynARETElxRgIiLiSwowERHxJQWYiIj4kgJMRER8SQEmIiK+pAATERFfUoCJiIgvKcBERMSXFGAiIuJLCjAREfElBZiIiPiSAkxERHxJASYiIr6kABMREV9SgImIiC8pwERExJcUYCIi4ksKMBER8SUFmIiI+JICTEREfEkBJiIivqQAExERX1KAiYiILynARETElxRgIiLiSwowERHxJQWYiIj4kgJMRER8SQEmIiK+pAATkQqlZs2auP3229G/f39nTME4H+fnclK5nGQNRwMPRUSOj759++Lcc8+1H5900kmIjo7Gr7/+itzcXHtcQaKiolC1alXk5OTg6NHA5ey7777D7Nmz7cdy4lIJTESOu+rVq9shlJaWhu3bt9vBtXfvXmzbtq3QgfNxfi7H5bkerk9OfCqBichxx2rAli1b4vXXX7dLUX/605/w888/R1SKYumtRYsWePfdd+3S280334xNmzZh5syZzhxyolIJTEQqlAMHDuC1116LuAqQ83F+LieVi0pgZezOO+/E999/jy+//NIZE6xDhw4YPnw4qlWrZj/Pzs7GuHHjsGPHDvu5m5l32rRpeevj+tu0aWM/PnToEF599VWsWrXKfm706NEDgwcPdp4BCxYswHvvvec8y8+7nUj30Tvf2rVr8cILL9iPjYYNG2LUqFGIiYmxn4fbZzez/4Xtt/gXS2CJiYnOs5JLTk5WCaySYIBpKOXBulAfffbZZ49aF+ej1gU45DwcX9B073Ddddcdffjhh4/WqlXLfm6FV9BzTn/ppZeOWkEStIx7nNkvjjfzeAf3drgc5zfLcxyncRzXZZbhdG7HHIvZDvfRzGPGuY+X07377B7M9vg6FbTPGvw9WAFmnwtNmzY9GhsbW+yBy3M9XF+o7Wg4sQZVIZYy64IL64KLxx57LK+UEYp1wcbVV1+NqVOnhi2duXG9Z511Fn788Ufs27fPXr5JkyZISkqynxPvODMzM9GnTx/7uRUY+M1vfmOXpEwJh6WmTz75xB7P6V7e7XB45ZVX8pbnc26TvcRMyY+4zdTU1LxjMduJj4+399WYPHly0PHy+Nl77Oyzz3bGBGPPtMaNGzvP5ETGXoe//PKLfQ67B54fvXr1Qt26de3n/MvnHM/nrVq1QteuXZGVlWUvz/VI5VB4gN2bhJSUZEyM7CMZQUZNT0HK1xPRz3leqP4TkZySgqR7nec+dMopp9jBxQvzX//6V7u6LRResPmPj919I8ELOdc7b948+zmX57o3btxoPyeGC4OHwcZwYsAwaHbu3OnMEcCqPXIHkOHdDtfv3gZlZGTYFw8TLNwWt8mqUjduxx1ODLXVq1fbjw32IONxxMXFOWOOYZhefPHF+Pzzz8O+jnLiYzd5nmvmhpB/+ZzjqV69evb5w96HUrmoBFbKeJG+5557CixVeUs5kejcubPdZZjrN8vzjtO7PLsSM7QaNGjgjAkvVMnGvZ1IhQvKgsIpEmwXoRUrVth/pXJiqWr8+PFYtmyZ/Zx/+ZzjSZ04Kq8yDbBxA9uh3QUjMMt5XqiZI5DYrh0GPeM8P0GZUhrD5s4777Q7MXB46aWXgqrbDFNdOGfOHGdMQHp6uvPoGIYISz3mMdWvX9/+azDcGDhe4bbjZQJr5cqVzhjY22TJzI3hypAtCKt/YmNj85XeuC+s5mR15f79+52xUhl4v4mD58f999+f18mDf/mc44nz6Zs4KieVwI4DEyDsWccLN3vucWAbEv96QyxUdWFBuG6GFtutuE62tZl1svTWr1+/vJBzi2Q7XA/Xt3jx4gJ7DrrVrl3b3q4Xqx5vuOGGoLYz4ryDBg3Cf//734i3IScO3rC8/fbbmDt3rv2cJa2JEycGlcD43JTAOB/n141O5VOsALPbtqaPymuzSnGG5FeCW7vCtYH1eyU5b5nAkARrbWHawEYhKWhea+C2XfL2x26v4zzO+io4thGF6tBgOmFQcaobuQ5T+mI3dgbEbbfdZpfynn76afznP//J16YUyXauu+46ez1cX1G6s4eq6uzRo4fd0YX7MWnSJGdswLBhw+y/6gZdOfFjGBdeeCHat29vP+e52bt3bzRv3tx+zr98bm6KOB/nNx/fkMqj+CWwNkORYgXN4+3aoR2HKWsQ03NsoR0wGDZjewIL73OWs4bJgT4FIfV75WpgyrF52923ENnWtr1hiYZXIzlxiTPfIIxzRldk3moztjux/cldYvF2qnAL1bbEkpe3epAhZkp5DKDNmzfnVWEaBW2HWNXJDhUMWe9nu4jb9La78Rh4LF4MQvO5rkcffTQo3Bhs7Lno7l0plQs7Y/DcZucMUicOCacEVYhrMNndvvXMZCzcBbRNLKDsY5WQhrbJtsIrESNcN9fjBoYPnFm3JAa3ic0cgWlW4MU0auuMcNTbimkD/RBb+XvxeblLLKE6VXAa5wlVNcd1hmqPcjO9D01vRArXeYPr58cCGCpsowvVOSVcW5tp63O31bmD0FuK47Y4jXfSpsTIwXwkgdPCtRPKicP7TRzqxCHhFD/A1i7xhM4sbOC1r+HpYbvNj0q0QmfXMswqcs1QP0z8+lgV4lBef73b2ZVhRao/mJIWq+zcAWS6o5sLPi/U4TpVsPTGRmx2gjC4Lq6zoF6EJiTc8xS0HZbMuB0GSbj2KLaZ8SMBDEE3b2cPbodByPAKFYQMZpbITGnRDObjCCyxMdjULnZiK2onDqm8yrETRz+czs/N7tgQea9Ei92+lTIWnZaPzqtGDFnlWMT1Hm+8iLNUYf6Rkvm6p4I+62Xw82MMDXZ2MCHIdXGdXLcxdOjQoA8ss33JO09B22Eosc2roNBg8DBcGFisAiRu88orrwzq7MHtFOWzb1I5FbUTh1RehX8XIjtGDGkaVO3HUBmKyWjnqbKzxzdciNFO1WLI5yGWy8NOHE9fhK1TnK70IbZNRV7vccKLOL/3j99IEarEYaYzUIhtUs8++6wdCAwlfp6MnSrCdZgw85iqSIaQ9zsKWWVnqgzJ+/2EhW3Hu7ybd3sMr4K+c5FtXyz9hVLQdyKa14m9EovSeUT8gzdfCQkJ2Lp1K44cOeKMLboqVaqgadOm9mcH1QnoxFeuAcbeh2N7bsXkcJ0sIgow9kocira7Kn6AlQTDgCWYcF/sW1rKazsiBXH/oGVpYCk/0m+zF38L+nLEfMO9SUdTUpKPTux/bJwVGEdTpo8Kns+M/3ri0X5hnlsRdnTi19a4lKSjo/LGcT7nef+JR5NTUo4m3etMc54nv9LPNS+XD7GdEPvj18EqFdlfYGuVfkJOL62hvLajQYMGDWUxlGMbGM3CiAvYhtUWQ81nutgpA94OIQ5+M4fTPd/Me35ywd3uTwSmM0Oo7uqlqby2IyJSFvR7YCIi4kvlXAITEREpHQowERHxJQWYiIj4kgJMRER8SQEmIiK+pAATERFfUoCJiIgvKcAicMEFF+R9X6GInDj475r/vsWf9EHmCPCHGq+66io0atTIGSMiJ4K0tDR8/PHHBf5+nlRcCjAREfElVSGKiIgvKcBERMSXFGAiIuJLCjAREfElBZiIiPiSAkxERHxJASYiIr6kABMREV9SgImIiC8pwERExJcUYCIi4ksKMBER8SUFmIiI+JICTEREfEkBJiIivqQAExERX1KAiYiILynARETElxRgIiLiSwowERHxJQWYiIj4kgJMRER8SQEmIiK+pAATERFfUoCJiIgvKcBERMSXFGAiIuJLCjAREfElBZiIiPiSAkxERHxJASYiIr6kABMREV9SgImIiC8pwERExJcUYCIi4ksKMBER8SUFmIiI+JICTEREfEkBJiIivqQAExERX1KAiYiILynARETElxRgIiLiSwowERHxpZOs4WjgYTFUb4DWZ7dGfIt4NKhlPd+XgdSfU7Fu5TpkHAzMIiIiUhaKFWAnN+mOa37fE+0bVA+MOHIYBw8exsnVq+Nkp0x3cMdqzE/6AIu2HQ6MsFSvVw81DuzCLoWbRKht27bOoxPHmjVr7L8n4rGVFfOaibgVLcCq1MO5fxiOAR1irITKwOpFn2PON57SFktlXfvgsu7twXzLXjUDr/7rO+w60hxX3jMcrX98Fc/O3OzMLFIwBZiQAkxCibwNzAqv84eOtMKrBrYnT8XTj4/H1PkhqgqtYFs3fyrGP/kspiZvR40OAzBy2MVooNY2EREpRRHHSuuBw3FlPJA681m8MnM1sp3xYR3ZhdUzX7FKW6lAsz649brWONmZJCIiUlKRBdhZ12BApxjsSn4DbyQXGl1Bsu1lduHkdhfj3DrOSDlhvfzyy0hOTkb37t2dMSIiZSOCAKuO7r0SEJP9HaYXpe2qUR/c8sBDeMgahpwdExhXAasRR48ejZSUlHzD9OnTnTkqHoVEeFdccQUmTJiAZs2aOWNE5ERVeKTUvxDnWteC7d98jlRnVEQO7cL2rT/jZ3vYgHU/rrOHDWlFK8GVh0OHDuGpp55Cu3bt7GHYsGFo0qQJ5s6dizPOOMOZq/wxoBhUDFkp3H333Ycbb7wR0dHRzhgROZEVHmD1gNydm7F6VRH7vu/8DjOmvI23PcOMpbucGSquRYsWISkpCbGxsejatasztuK49dZbkZiYaO+nAEOGDLHfry5dujhjiicmJgYNGjRwnkXmpJNOQtOmTVG1alVnTOXTt29fnHXWWc6zyHB+LidSEoUH2Po5eOX5V7Fgp/O8kkhLS0NOTo7zTCqyRo0aISMjAyNHjsTSpUudsUV3yimnoFu3bhFXPzK8zjvvPLRv3x5RUVHO2MqlSpUqOPvss3HHHXdEHGKcj/NzOS4vUlw6e8LgRZE2btxo/yVTpWfaybztUNdff709jn/ZhuZuUwtVDcj5li9fnjePu8qSy0+aNMkuFdxwww32dNMu520Dc1c1mu0W1obnbfvjfnB/yHucHEKtL9T+16xZ05l6DPfXvS73tkrD008/jREjRmDLli3OmOLhTcu3336Lzp07FxpiJrzq1q2LL7/8EgcPls2n85977jl7MKVMDu+//77d1tepUye8/fbbeeM5n5d3Hj7mODdWvZrpHCZOnBhxiB85cgQvvPACUlNTIwoxE16cn8txeZHiUoCFwIvr4MGD7bt5U03HcbwQc5xpK9u2bZt90XCHGLGKb8mSJXnzzZs3zw4hd4jx8ZgxYzB16lR7nv79+9vjefFgiA0cONBui8vOzsZbb71lz8NxBbnyyivztlvQvDwO7o9ZL4c5c+Y4U4Frr73WvpCZaWwfjI+Pt5czvPvPYe3atTj//POdOQL42jRu3Ng+PjMfL158jbyvW0UQSYiVV3gZLVu2xDnnnINBgwbZpczdu3fjD3/4A+68807861//sse/+eabdrstw8hgyN177732TQPn4cCSKpczIcb5+Z488cQTeetPT0+3p0Uq0hBTeElpK78Aq38xht91C/ocvz4RYVWrVs2+GJsSAu92r776avsiawwYMACZmZkYP368MwZ4/vnn7b+84BvsQMCQGzt2rDMmEGi8uLPOn+HEgY85zsy3fv16TJkyxW53KyyowuHFyb3dUBjEDA6Gl3veUaNG4Z133rEfc3/d0zieFx0GEZn9ZzCHOk433gDweHh8xowZM+y/rVq1sv9WNAWFWHmHF+3btw/vvvuu/ZilzG+++Qa1atWyz9VPP/3UHs+/vKFi2Jl97tWrlx12//znP+3nZNZzySWX2H/Z5sfzZtmyZfZzrv+RRx4pcmm2sBBTeElZKDTA6nUZgP835P95hgE4t74zQ4Sqd2iP5vWjgArYh8PdC5EXdl6oeSdq8ILPu9vZs2cHXYh5p8oSkrmwE9vNWP3mtX37drs6MC4uzu4YwsfmQm6wupLLN2/e3BlTNNxGYdj5g9tYvHixMyY0hhSrBE2ot2nTBrVr17bHm/0Pd5yhuKssebPA5U01bUUUKsSOR3iRO2CIN1K5ubn2PobDEhbDiWHnDiMuu3///rzOKlw3Q89dciuucCGm8JKyUmiAxTQ6Ha3Pam0PpzdtgRb20Bj1qjkzRCQel3W1LvJbvsNXFbwzCEsULFkwtEw7DUsKLFmZtigzzJw5Myi8IsULNy/g7lIfB9PmVVybNxf+OT3uL0O3oGoitnfx2FiaMtV+7pIV9z/Srup8DdnmxeopVolyXbxZ4E1DRecOMd5UHI/wKi6+z6xZYNWtu32LNQjunpZsP+R7zR6cRW3/CsUbYhdeeKHCS8pMZFWIzjmXvXIKHn/ycWt4BXPC3/zl07z/QJwbk40V8xahYv+zD2AjOUsprDYkUzJytxm5h0ir/Exw8MLIx+7PnrkHd9VlaSuslMaSEtu7uG/h9oP7z9ejMCytsTqWFy+/dvs3IcbwqlOnji/Ci/g+8yaB4WTav9zD3Xff7cwJu+qa49gOxk44Tz75ZL6OHkXhDrFbbrlF4SVlJrIA2/MdFqQcRr3Em3BTYtFKCDH2MvVwOOVzfPCjM7KCM58DY7UZL+imqtDbQSEUlkx4sXbjhZzrysrKsqsgTc9G73zlgaW0on6+zVShGuH23xxnYbgcSwd+wRD797//jQULFvgivMhUFbLzR6RYTclOIVScmgU3E2L8VhSFl5SVCDtxHMa6917GnC1AfP97cMul8RF8MW8M2ve/Bff0jwe2zMHL761wxvsDq9F4F2s+bMn2L16c3T3x6I033rAv8G7u6kditSRDw7R5MSDZ0YON7AxIgwHA3mT8S0UJzkhxX3hHzDtw9z6OGzfOfs6LNbnD6a677gqq2gy3/2w3dF/4GNYMbYafeY24De/r5Qd79+71RbWnYTp7hGrfevjhh/NKWO7HxM9mUSTtqYVhaHEfFF5SViIMMMuRDCyYNB4zVh1A4wtvwqMPjcTgnq3t3/wKwt8D6zkYIx+6D4MTG+PAqhkYP2kBMnx2DvPiy9DiBZkXZl74Wa3Gi6+73erAgQNBVWOsWmPXcla/mXl4Aedz08uP+JxVku52NdPuZDqKmH1gcHJ6YZ/tihSrPLnP7jY4XsR4seE+cv8ZTmYau+Z7exdy/83HA8x8xHFuDDiGMNv3OA+rFF977TVfhYFfsWqQN0QdO3YMagfjOWo6hbBjzoMPPpg3jVXYLDG5O42IVFSF/6Bl9XqoV+MAdrl+Rtn+ReZBPdG+YQG/yJyxGvM/DP5F5hMdSxe8sLOU5g4rKT79oKWQftBSQuEXuD0SeBjG4YN2OLkdyd6MlckLMW/xSmzbtQvZVrblHtyDXVvWYmnyAnxqBdfni1Zic3blqjpISEiwG/vZ6P/DDz84Y6UkivrdhH7A9ik6EY+trJjXTMQt8irEUPjry0sX4fNpzpf1Tvsci5aG+JVmERGRUlayABMRETlOCm8DEzmO1AYmpDYwCUUlMBER8SUFmIiI+JKqEEVExJdUAhMREV9SgImIiC8pwERExJcUYCIi4ksKMBER8SUFmIiI+JICTEREfEkBJiIivqQAExERX1KAiYiILynARETElxRgIiLiSwowERHxJQWYiIj4kgJMRER8SQEmIiK+pAATERFfUoCJiIgvKcBERMSXFGAiIuJLCjAREfElBZiIiPiSAkxERHxJASYiIr6kABMREV86yRqOBh6KV6PEa3BaQl/UbtkZ1U9tjirVauDIoQM4+MsWZG36Hv9b8QXSkj9w5hYRkfKkAAuh1eV3o9Wld+BQ2irkbPwah7avRO7urTiaewAnRdVAVN2mqNb4bES3ugDVGnXAxn9PwMbPnnOWFhGR8qAAc6ndIgEdbngF2LsD+5ZOwaGMn5wp4VVrcCZqdRkCnNIQq966BVk/r3CmiIhIWVKAOeq3/y063/4v7J7/AvaumO6MjdwpCQNR9+I78f1Lf8DO1f9xxoqISFlRgFlqt+iIxPvnYuesB3Fg/ZfO2KKrccbFqH/F40h+qrdVElvujBURkbKgXoiWDkNfsUteJQkvOrB+AXYveAEdbnjZGVN6Xn75ZSQnJ6N79+7OmMiNHj0ay5cvx/XXX++MERHxv0ofYOywcdLeHWGrDWu26YvTrn4RzW5fgOajvrP/8jnHh2Kvx1of1xspBkxKSkq+oaxDh2HIUJw+vehVpqGcccYZmDVrVoH7zG25j5HBLCJSHAqwS+/A3m/fcp4Fi73yKWv4G6q36oaTok+xx/Evn3M8p4fCDiBcb1EcOnQITz31FNq1a5c3dOzYEe+8844zR+m79tprsW3bNgwcONAZU3wMrWnTpqFp06bOmGAMt7lz56J27dro379/3jHeeuutzhwiIkVTqQOs0fnX2F3lQ/U2ZDjVbNPHeRYap4cKMa6P6+X6KyoGTkJCAp5//nlnTPGYUtyYMWNQrVo1Z2x+Y8eOtf+OGDEC69evtx+LiJREpQ6w0865xP6clxerBwsLL4PzhapO5Hq5/opq48aNGDp0KBYtWuSMKZ5WrVrZf1l65JCTk2M/d2PINWnSBLNnz1Z4iUipqdQBxm/Y4IeUvU7p0M95FJlQ83O9XH95MyUi08bExw0aNHCmBnCe5557DiNHjnTGHKvic7dP8TnHF4RVnImJiQVWdXbr1s3+u3jxYvuviEhpqNQBVv3UZvY3bHhFNz7HeRSZUPNzvVx/eWK1IDtFLF26NK+NKSkpCVdccYUzR3hsB1u7dm3ecsOGDUNMTExe1V9JNG/eHNnZ2XaVJTummIAsrc4jIlI5VeoA43cb8uuhvEyHjUiFmp/r5fojxfYjtiMVtQTkNmDAAKSmpgZ1jGAAzZs3z3kWHudzL8eqRQYhO10UZR9Cady4sT1w/66++mo7IFndGB8frxATkWKr1AHGL+bldxt6Hc3Z6zyKTKj5uV6uP1KheiH27t074jYj0860ZMkSZ8wxmzdvdh4Vzt3NvVevXnYpLC4uzplafDy+KVOm5B0PqxwZkgyxsvyogIicuCp1gB38ZbP9xbxeOdt/cB5FJtT8XC/XX17YmSI6Otp5VnSsemRokQnQSEpukcrMzMQ333zjPAtg+xw1atTI/isiUhSVOsD4kyj8VnmvvatmOY8iE2p+rjdr0zLnWdljr8JQPQAjwRIQS3BvvfVWqXwmzGv79u1hS3Lc57S0NOeZiEjkKnWA/W/FbPsnUbz2r51tDXOcZwXjfJzfi+vl74WVl/T0dLujxPnnn++MOSbUuMKw3atNmzbOs5JhSYulQ9Mb0WDvRWL4iogUVaUOMP4YJX/Piz+J4pX5yZhCQ4zTOZ8X18f1luePXbJtiZ+zYui4v56JX1NVWBCZ0ps76NjFnh0vSoNp7xo0aJBd0iNT6mNHkZJ+Fk1EKqdKHWDEH6Osdd4Q51kwhlPmJ/fj4MbFeR01+JfPOT5UeBF/H4zrLYpQvRA5MIAixZ6ErAZk5wuzPEOJ4wrCAGHosUOFWY5Ksw2MPRwZVpMmTbLXz2OdOnWqvkpKRIpNP6di6fbwIuSu+7xYvwPmxd8Fi2p9GRY/WvRvjRcRkchV+hIYrZp8i/1jlPw9r5Lg8lwP1yciImWrqjU8EnhYeeXs2YE9G7/D6X/6B44c3INDO9Y4UyLHktepfe/H9y9dg93r838WS0RESpeqEF1qN0+wf9ySv+fFn0QJ9S31XuywYbeh1Wpol7yyNq9wpoiISFlSgIXAH6Pk73nxJ1H4rfL8Yl5+tyG/HorfsMEPKfNzXuwqz96G7LCx8bPnnKVFRKQ8KMAK0CjxGpyWcIn9rfL8Yl5+tyG/HorfsMEPQfNzZOXZVV5ERI5RgImIiC+pF6KIiPiSAkxERHxJASYiIr6kABMREV9SgImIiC8pwERExJcUYCIi4ksKMBER8SUFmIiI+JICTEREfEkBJiIivqQAExERX1KAiYiILynARETElxRgIiLiSwowERHxJQWYiIj4kn6RuQBXXHEFLrroInTo0AGNGjVC9erVcfDgQaSlpWHVqlVYuHAhPv30U2duEREpTwqwEG6++WYMHToU69evx/fff49169Zhx44ddngxxBo2bIjWrVujc+fOOOOMM/DWW2/htddec5YWEZHyoABzadu2LR5//HHs3LkTM2bMwM8//+xMCa9FixYYMGAA6tevj4ceeghr1qxxpoiISFmqag2PBB5Wbt26dcMbb7yBmTNn4p///Cf27NnjTCkY51uyZAmioqLw2GOPYeXKldiyZYszVUREyopKYBaWvBhaEyZMwLfffuuMLbrzzjsPd9xxB/74xz+qJCYiUsbUC9HCasMpU6aUKLyIy3M9XF9pe/nll5GcnIzu3bs7Y05c119/PZYvX47Ro0c7Y0RE8qv0AfZ///d/dpvX7NmznTElw/VwfewIEileqFNSUvINvIjzYi4iIvlV+gC74YYb7A4bpYnrYy/Gojh06BCeeuoptGvXLm/o2LEj3nnnHWeOwrF0xlKaSi4iUhlU6gDj57zYVT6S3oZFwfVxvVy/iIiUjUodYPyQMj/nVRa4Xq5fRETKRqUOMH7DBj+kXBa4Xq6/vEyfPh2TJk1CTEyMXS3KNjSOc+Nzdxubu6rRXf1o5nMv722n87bPmY4XZvrcuXPtD3kb7ITCcbfccos9X1Ha97jtUPObbZrjcB8DtxduXw33PBz43M2szz2P2ZaIHH+VOsD49VD8ho2ywPVy/eVl4MCBGDZsGLKzs+1vBmEbGscRg4ThUbt2bfTv39+exnkYdN4L8pVXXml/rs29PC/snNesl8OcOXPsacR1jBkzBlOnTrWncRs0ceLEoBBjuF522WW4+uqri9y+VxTcVzL7mpqailtvvTWoByfDuUuXLvZrxnnY/sjpJsT4+LnnnsPSpUvz1sPjF5GKo1IHmPluw7JgvnYqUtWqVbNDwH237y3FFBeDKDY21u7iz7Y5Gjt2LNauXYu+ffsGbSMjI8OeZrDkwos5L97u8aNGjbIDiMtyHVyXmc5tcFvcpglBio6Oxr/+9a+8fSgr3BcGlsFONdw2P6xOPKb4+HgkJSVh0aJF9jgeCx8z1Hi8rVq1ssezBGbw+NyvgYgcX5U6wIoaMkVR1HAM1Quxd+/epXKxP//88+1SiLfEs337drtUFBcX54wJjHNLTExETk4OFi9e7IwJ1rVrV3sd3p6cGzdutJdr3ry5Mwb2c44vayxBunn3hceUmZmZr4p18+bNdtAxvMx+ektuIlJxVOoA47fK84t5ywLXy/UfbywhseqwTZs2QaU7Dr169XLmOoYXcbfGjRvb1ZLp6enOmGCsJmWAeUuPpj3OraD1lCceEwd+bZh7n03VI7E0xm9U4T7zWDhd7V8iFUulDjD+JAq/Vb4scL1c//HGElxWVpZdreYu3ZmBpRFTjRaKt0TmxZDmRd5bejSDuyqvuLgNlqBKC4+Jg2kPdA/utjm+diwFc/y8efPsgPN29BCR46dSBxh/z4s/iVIWuF6uvyLgxbpJkybFqgpjiYxtWawqDMVUtTEIyxKr9rydYrhNth0WVWHHFAqDmDcBLLmJSMVQqQOMP0bJKjb+JEpp4vq43vL+sUtWz7E0xDYvt/fff9/++8gjjwR12GCVWGHVYuy0wPazu+++O6gr+rhx4+znLL2xpx6rI93r4nbefPPNoO0V1zfffGO3WQ0aNCgvhE3nkuJg2xfX523f4jp5XN7HxPl4E1BYiVREyk+lDjCaPHmy/XtepYnrK2qX61C9EIva7sIqL34Xo2nvMp0UTHsOudt92HvQ25EhFPYk5Drc+9epUyc7WIhBYLrlm+ncDksspdEJhetg+JJpjxoyZIj9I6Ls/FJUpmpw27ZteevjwOP4+OOPnbmAPn365E3jfAzq0qgSFZHSoZ9TsUybNg1fffVVqXyhL0PhwgsvtD/rJCIiZafSl8CIv6TMO3r+nldJcHmuh+sTEZGypV9ktrA9hL+kzF9U3rt3LzZs2OBMiRxLXsOHD7ermJYtW+aMFRGRsqIqRBf+MjN/jJK/58UP5kbyLfXssME2r/r169slL/0Ss4hI+VCAhcAfuWSHBDb281vl+cW8/G5D880d/JAyP+fFrvLsZceOIK+//rqztIiIlAcFWAH4e178SRR+qzw/g2S+HoofrOWHlPk5r/LuKi8iIgEKMBER8SX1QhQREV9SgImIiC8pwERExJcUYCIi4ksKMBER8SUFmIiI+JICTEREfEkBJiIivqQAExERX1KAiYiILynARETElxRgIiLiSwowERHxJQWYiIj4kgJMRER8SQEmIiK+pAATERFfUoCJiIgvKcBERMSXFGAiIuJLCjAREfElBZiIiPhSpQ6w6dOnIyUlJeTw8ssvo3v37khOTrbnO164H3PnzsUZZ5zhjPEH89qNHj3aGVM4HiOP1bsMny9fvhzXX3+9M6bo+DqGex+5fvd7H26fzf5xXSJy/FXqABs4cCDatWtnD2vXrsW8efPynt96661YtGgREhMT7fnk+GBoXXTRRbj66qvxzjvvOGMjx+UZfr169XLGBGNYDRo0CMOGDct778eOHetMLV8FhayI5KcqRKnQNm7ciJEjR2L9+vXOmMixFMgbkalTp9o3J16cfuWVV9rBwZsVEfEXBVgBQlUZmTt6d1Wjwbt5U21m5uFzXijdIq2y8gpVLReq2s2MM+t/8803883j3YdQxzFu3Dh7WrhSgXc7fMxxkfIuf//99ztTAni8zz33XF4J2Dt/qNfWzZSgw5WounXrhoyMjGKV7NzVz+7XjtzTvFWf5j000zmvOS6WEtu0aRO0Tu/5phKayDEKsCLgxYR39LyosqqJ1U5dunQJCoaYmBj07dvXrvLq378/srOzcddddzlT81dZPfXUU/Zz90WuJHgxnDhxIrKysvKqxPbv34/GjRs7cwS0bt06aB94HO594HGcfvrp9vRQVahmO6x6NdvhNiOtfot0P926du2KZcuW5c2/bdu2oNe2qJo3b47t27cHBU4kAcGgWbJkib0Pb731lh1K5rXj4127duXtI0N0yJAh9vFyeOSRR7B06VJ7Gs+PDRs22KXL3r1726VE83ryPKNzzjkn6Hxr0qRJ0PkmUpkpwIpgwIAB9sXH3LHz4sTn559/vv2cDh06hClTptgXJQ6zZ89G7dq18y5gDLekpKS8KiuuixdilhRKA8OG4fP88887Y4Dx48fbF2q3m266KW8fvvnmGztoGzVqZD8nHseMGTOcZ/mZUOO6Dc7foEGDAktFRqT76cbXatSoUc4z2CFiXtviYFi6w4iBwvV5S1ReDBkT1Ay8zMzMvPePrylfW4OlrejoaMTFxTljgM2bN9t/eX64jycUTnefbzxXGLwiogCLGC+SvLjxgmfu1jnwufsimpOTY7fbuPFCzQsYBz6+4YYbgtbBaqOCSh5FwYsbwyg9Pd0ZExr311THzZw5M9/2Qx2HG7fDZbisOY4xY8bYx9eqVStnrvAi3U8vd9UnX8eScoeRueFgabSgEC4oZMld7cfXpFq1avZ4rp/b434XpbrVXULkuSIiAQqwInL3VDQDq394cYoUq5286whVTVdcrJYraH94gZ02bVpedRVLHoVdlEPhMlzWfRwdO3aMuE2psP304oXcXf3K17GkvMedlpZmlz6Li6W3u+++O6/aj9Wz7vWxapDjeewM/4JKe6a9jMzry/dMRAIUYBHihZYXnZKUlFjaYKmjuFVAZnk3U6ozWD3FdhJ3CcI7D6u7UlNT89pZioPbMSXL4ohkP904H6snecE3VZ8lxapDlmjcJSFWo7L0WdSSIXE9XB97PRYW4rxhYbglJCQEvQZu3bp1s99vtXmJhKYAKwK28cTHxwddUPg40gsMQ5BVVLxguTtMsLef+3k4JkTZjmYuuuzE4L7oL1682P577bXX2n/JO483PNhNvajBzNIQL67uThRc3xtvvOE8K1gk++nGQGGwmLYmboulsZLgPnB7PH4y6+R7VJSSoWHeH9MmyveIHThMFaL39WFYmmmGuzqapUHuHzuvEM8zVSGKHKMAKwLeVfPu2t2GxTCJpOeawfYWliDYNmLWwd5+kVa7sdMDL2qm7WnlypVB1WBcN6uw2I5j1u+dh/vAzgCTJk2yp9esWbPIVYi8WLNHHYPQbIelowULFjhzFCyS/XTj9tg5hiHAeVlFt3DhQmdq8Xj3ga8HO+VE2pMyFL4/5jVhNS17TZoqRIZwixYt8o6XYcntmxLl+++/n/fe8rXkOcH9MecKg1FViCLBjmo4sQfron/0q6++OmqV8kJO16BBgwY/DiqBVQKsmmP1G7vLi4icKE6yBiaZnCBYxcbqNXdbEqudSrOXo4hIRaAAExERX1IVooiI+JICTEREfEkBJiIivqQAExERX1KAiYiILynARETElxRgIiLiSwowkePg3Hs+xSVv7ssbLnh8KaJOOdWZGplacWeg54Sf7XWVh7Z/esHeV26T2y4us9/Nev6fM6ZscP3FeV3dzL7yuHn8fK1LevxuXKfZx/J6Pws6Bu5PaR5feQj6bikNOGq9iUetNznkNOsfxVHrZM4b+DzUfKEG6yQ9ap2sRVom1MB9c+9DuH0ty4HHwGPhMYWaXthgXgtzDNY/mqPWP5qgeWLP7nu098SMvHm8r5v3veD7VtD0UPOU98Bj5LF63zM+57HymN3jizKU1vkVauA6Q71HxRnMa1AW++keuP7SOEfL8pzhukuyj6U58PU6HteSkgwqgblYFw9YFxE07zXMGRPMeoNxxu8exKL7E/DFjbXsYcv815ypZc86ye27NTLbn3d7M+TsTivRXebxcMbvHsLmeZPyjiN96XR0vOW9vOPgHeDZN7+Gdf+6357+3xcG2K893yMzveFvfmcfP6fzPYnrMjDfXf3OlAV52+Cw5t07nSnlj8fGY8zesgrfPXuFMzaAz3ev/xatr3mywr6Xh7L+h0N7f3GeVR57t6U4j05s2ZtX5DsvKzoFmMN9weSF1YvTW112J1a+/n/Yl17034oqDXVanYtqtU/Dpi8mOGOAXOuCsvL1m+2/fsIgcYf/5rmvoGp0LfsYqXnvW+wLvZknc+Vs+3nLS+6wn/M94D82c9x8zhBkqBmnNGnnPIpcg3MuQafbP0BUrXrOmPA4D+flMpEI9f65cTynm9fAuhvOV51k3bHnjTM3NBzHYO/x7Dr7mNtdP96+ETNhz1C3Sp95A+c3OI1VRmcOetSe5t0ecX6uk+vu9eKWfNs36+Vjb/hyXjPdvU90co3aQcu7bz686+Y+8t9gQdzHyfmrn9rUmXKM97Vwb9ON2+r+5LJ8rydfC3OcnIfbaXX53WGPgwp6Ddzc7yfxr1ku1PKFrZfPOd7MY9439zEYHJf4wPy8ec0+kHu/3Nt0z3O8KMAcvADOv6NF2BLVqW17Yv//NtoX0kh5/xG2uTb/70x55/GeWG4HMlLtvzViW9h/w3GfZO5/+OFORHNiFySSi0O47RZHrbizrPfkR+dZwI7/foToOqeFfX1KQ4b1/mZtWoZzhk0uMMQ4jfNwXi4TCb5vLMXs2fidMyYYx3N6Ye9vKDwvv7yntV1aSHlnJOaOaJB3rtY9PTGv1oAlWZZU3Re7ajGxdmhyeqg7cN5scJ1cN0u8nIfvwXn3foFf1i3KK93m7PkfEkYc+107ng98v0wpefXkvzhTAk7vfx/WffCAPY03jSxhm3OG+/O/5Z/lrZs3L23/FDr4iedn6z/8zT4+zv/tU79F04tucKYGcB53DYq3VO/G68GiBzqFfD29CjoO/mUNiTmObYvejbiUzdfdLMfXkPvC5bkfha2Xx9Txln/m1WBw+XDnHd+nU1t3z1eb4Q0o1kzx3yDn4WvSpPufQr525UkBFiHeifGCGumF3/wD5z9qc5IdPpgdVCqI5CLgZkoZvCMMd/dj9smsz1s1R+4TkSctLzIFHUskF4dItlsQ3iCwBMaQ5jLcp6JU3XAZ/iP0hl79dhdH9H7lOXoUGz55Grs3JIcNMRNenIfzcplIuN/7gkQ6X6RYQue5Q6FC8tdD+8OWCsOJ6xL4Nez1Hz1u/yWuo+ZpreyLKy9sfLz8levySslpyR8GhYC5GBNL4MTzgDj+p6SH7cdU0M0Lx/Gcdq+Px7v+oyfsx2Tm4TjzWnBeBmODhMvs58XlPY5fc/ahRoN4+zm3xdffyFjxuX2eVwtxHAVhlTuZ17uw9bKmgvtlbsj5HrhfT4PvU0yzDnYAu2sz+Drx35P79WZ1vFlf+tIk69/qpmLdbJUmBViEWCIIdeEPFyT8B87qoDXvBqq8iCef+6Jc2EUgFN6VMUh498OLsru6wlw03Nv0Vs2R+0TkScu7Rp7EobYZycUh0u2Gw+UZkO6LSzh8TUP94zeh734t3XewvKvkMZY0xIobXkVRlOCOBN9DU8pnFaA3IH/N2Z9Xuo8U18GB6zM3CL+5c4b1/jSwL94MBV7IC2ozK+w43aV+3rSFw/OB50VB6zPzcD1mnRx4g8N/2yXh3S7Pe/eFnee3qcrja8TpRcHlWSJyhwyFWy//HfNcj+Q8Mvvpff8PZP5sr8/9b817c0ilfbNVVAqwIgh14eeJFerCzze2sEbvwi4C4TBIWKXBYjz/QZqLMk9GDt3/tiJvfXxsxhveE5EnKy82oURycYh0u6HwIsVjZlVHuOpbN+9rai7OvJn49plLgv6Bu5nQDRfU+YQIsZKGF++S+VqGC3WO53S+H6WFFzm2jZlSvqmKKg1cj6l2MoO7qo21CeHej8LwnHZX9/FcLwjP30heN67Hvb8cyrLjAm9wWZW3/JU/2tvizWe4f2uh8Pxm1SBrNMzrSoWtN9LXgwq7TlVkCrAiKMqFnyL5B1zYRaAgvODzxOVFmRcqOpSdmfeP3j1EEg7hRPKPoTjb5T9Cc5Fyz8fXjK9dYXd3DCI2tPPi/PVDXQp9rQt7v/JxQix762rrYjHVHvi4uCUvU31nOqJ4cTynm7aKUHe8RS0tsCTE3o0sjZYmnrcM21ClYeL0iG8WPLgMS/SRdpjixZfvq7cq0H3+cB6+toWdU6WJ4cNqON6cRfLvORRv1SEVtt5wr0co/DcR6qaKN55cR0UPNgVYhFh16K0TLuhNDvUP2JRmjMIuApFg0d9clE3IFFR6C6Wg4wj3j8F9ISjOdlny4uvJhvJQFylevL0Xa/YwZFgxqPg+sI2NpapIL848zqJW3zCofpz2oFXq+tYKgmT7cXHCi7jfrAaqe8Z5+aoy+Zzni7vNiOcH5zU3J3zNWOVVGPd74z0PeUEsjYs420AYCO6OFdzG2Te/bj8ONb1R4u/zjqUg3nOO6+WNTjh8vXheuGtDuB1WsxuchzUm3o4H7H0ZyT4VB7fJGzHTM9aUpiI9B7lfoaoOC1tvqGPlPDxWLwYg2wHdHUDM6811uLdbESnAIvTLmvl22Jg7osLeZM5P7A5u8B8ze3wZhV0EvHgydrr1fedZANfPf+y8aw91MvIv12eek/vELuw4OK6wi0Ok2zU4ju1qBf0DYXUbL96mjY/b5F25aew37Yd8DUPxbt8cJ6tiIrmrD2IFFhvAf5r+SLHDy+Brxd6CrPI01a0cQgUTS6UsPbGKlfPwgsXXLBy+lpzO19Z0q+Y6+N6Y6t2Tq8fYoVZS3BbDluFojqHrI98gLfmDvOms0nUfZ5vBz0bU1sZledHmOcblzhvzH2xd+JYzNTTexPC9NcfJc3HDTKuk7MLXgm255vXkwJJHqFJMaWG7sHmNWJXLnpXmhrMgPG95DLxeuPeXA/9NFLZeHitLaGZZNlPwYwuhsAqVgWiaMvga8sbQXStSUZ1kDaXfCu1zrNri3b+3bpwXQf5jMiHEi0VBd//e+X+c9lc07nqtvZw5ObzzsEcY67VD/aPyzku8GLnbfnjis2ej+y6b9f7cnpmW9fMK1G6RkDdPYcdBfE14YSRuc/s379vHYrZd0Ha9Qs1rsJ3RvO68ALOev2q1mvleF/4jDtWwb+ZjoEe6PxUFS2EMsoLOARE5RgFWiZjgYImqtNtERETKm6oQRUTElxRgIiLiS6pCFBERX1IJTEREfEkBJiIivqQAExERX1KAiYiILynARETElxRgIiLiSwowERHxJQWYiIj4kgJMRER8SQEmIiK+pAATERFfUoCJiIgvKcBERMSXFGAiIuJLCjAREfElBZiIiPiSAkxERHxJASYiIr6kABMREV9SgImIiC8pwERExJcUYCIi4ksKMBER8SUFmIiI+JICTEREfEkBJiIivqQAExERX1KAiYiILynARETElxRgIiLiSwowERHxJQWYiIj4kgJMRER8SQEmIiK+pAATERFfUoCJiIgvKcBERMSXFGAiIuJLCjAREfElBZiIiPiSAkxERHxJASYiIr6kABMREV9SgImIiC8pwERExJcUYCIi4ksKMBER8SUFmIiI+JICTEREfEkBJiIivqQAExERX1KAiYiILynARETEl06yhqOBhxVbrUZnIWHEFMQ0O8cZI36WveUHrJg4BPvSfnTGFF3dunXRs2dPNGjQwBkjlUVGRgbmz5+P3bt3O2OKp2rVqoiJicHJJ5/sjJHj7fDhw8jOzsavv/7qjAnPNwHW7dFvrPA623rEXRb/O2qF2Eosfrir87zoBgwYgCNHjuCXX35xxkhlceqpp6JKlSqYMWOGM6Z4eBOk8Kp4GGKR3Jz4pgoxUPJSeJ04TipxaZolL4VX5cT3vTRK3gqviinS90VtYCIi4ksKMBER8SUFmIiI+JICTEREfEkBJiIivqQAExERX1KAiYiILynARETElxRgIiLiSwowERHxJQXYCSLj9Vr44sZa+GG5M0JEKpcqMYhrFFOpLuq++TLfS97c5zwqX0fSPsaGD5/BttUrkJPrjKzZELXPGoIzrn8YDeo5444zBtj3i4FGt+/DOR2dkT7A0C2uYcOGYc2aNc6zMnb+bRg/tANqOE/z5BxAZtoGLPvyQ3y6OB0HnNFS9tq2bYtJkyY5z4onNjbWeVSOqtfH6e0TcGbj2qgZxbg5gtz9Wdj20wqkbNyJg0cCsxVNdZzZ83KcbV2PstfOwZyUbGe8f2VmZjqPwlMJLKw9+OX9zpjzwGCkLrfC69c6iK7X0BrqAPt3IGv5WKT97MwqlUqudSdjBkTXQGzLDugz5FGMG3MdWudLOB9IuAq3jXkS458egfOcUVI2ohp1weWX9kBCi7p2eB05dBC5h6sgqmZdtEzogUt7tkf9Yl2Vf8X+/db5eCQXWXsOOuOse+1G7ZFoBVuvdjHOmBOLAiyMff++DEtnr7NeoUTEj05Fn9e34+LnUq1hOy55NRVdbxyCU6o6M0slsgULbr8VtzrD8JEP4+0vt9glr6iWF+PPN1+Qv5RW0Z11Njq0jEWNqChnhJSJOu1xcWIzVLeuuge3f485H03HR7M+wyczrb9zvsc26ySqUqc1LuzaEkV/J3KxLfkTTP/oEyRvM1VFQP2WrdGkXnVUO0F/yEMBFsq2R/HfD1ZYDxLQ+vF5OLNNw+AXKqohanf/O+L582RSuR1Ix9dTn8CL89OtSwhQo0Nf/K5xYJKIW9xZZyLGupDkpi3FnCWbkO2qKjySvQnJ/1mBDGtclYbt0O5UZ4IUSG1gIeyeWh/Jcw+ixpXf46IBrZ2xBVg+FF+8+AHQ5Clc9Pjtx+7Azfhu03HJzZcExu1NxuakR7F56ZfYtz8w6uSWQ9Dhtr+joWlPcy33255L8N+xY7H7NLPugziw9C4snzIFWVw+qiUaDp6ORj91xnJ3G9iRPdg9bwx+mv8RfknbY68WNRPQ9MYZaN+5YeA5NmHTQ+2xbltrtH7yc0R/2hU/LN5Rru1o/msD24I5w5/ANGf0Mb1x14u/R+toIH3+SDz8fqA1rEan63D7761SfH3nrMjJwpYlH+LFqd8iyx5RG+cN/jOuOi8esebEOWCV8l59Au85h1aj9eUYcm1PdIirDbvJxJKb/jVeevhtrLOXvxlXdIpHXG3nvv3IAaSvnIUpf5+LVHvEebjtuZvQ4ZQDWGWdN3t6DcEFzawjmfsG9pzP8fZMLs4x1miNy6//PS5oHYfYU5x151r7v2gqnnt/WaC9z7wue1fh7Xf3oOeQC9CsRrjXqHT5qg2sSjN0698FcVV2Y/W/52Gd82/fK+7c36Fb8yo4mPolPlu+E2jWDQO7xAH71mHOF6uR17JlxlthOP2bLYFRXQeiSyPr/Fs6HYuz2uPS37ZGTXuKi5m/ehxaJ7RDq9Nc7XB70rBySTI2mUutaxufrD/VKhmejro5nv0oQ2oDK5ZN2L2GdcgN0ahTBOFVRAcW/RlrvlqL6LOHoGmPIWh0ZkMc3jQFyx+6C7u9jbf730cKw+tYjQAOzO6Fhf8IhFd0m2vQtHML7H6nJ1Z5ex9mTsGqqVOwr84l9naaJiYiev8KbH25E9b85MzjkvXpZXZ4SXF9jTTrekN1Tg0UzWt0uw2PjbgY8daNSfqmLdiyKd0Krdpo1uMm3HtTB3ueDjfdi5t6WOEVbYWOmSe6DmLr2JOtdYzAYyOvQqfGVnhZS9vzpFvRF10TgVn6om+P1ojDTmvZwPIHrJiNS/g9bnK24VbHCa+APUjjMjudridWOAX2IQ32pSPBWvdvmqFWjrPu7VnIjbL2v+dNuP0Kb0VpHfT8E8PLeSrBYmqjNq+2B3ciM0x4UXrG/+y/1Wvki56iObQb27Ztg3lrj2Rn2M+3ZQQ2HnN6R7RvVB2Hfkmzx6fv+RVRdZqgcy+GrD3LMSc3QxeGVwX87U8FWFh1ERV0Dn2BH6zSAksMecPrXzjTIlelzT9w0T9S0WX439F+yN9xzpjPcaZ114T9U5C2ITBPnuUf4EDfefjt6/twCUtfOR9g3fus2myJ5qO34+LRk9F++Ge4ePw/0MAVcrboHujw9M7APNZ22g+fhy6DGMh7sHVpcmCePOuQtroN2lvzs6Trp16MFccB5P7qPLSdh5sHdUDt3HQsGGeVyJ56Ak889TBGvbHMLnnFWuHQ2/rbplGgBJD+5Zhj84x5HbM3c2wHDO7Xyb7wHUj9DM/8eVRgnodH4db7JuJbe8nNWPLR8xg56mFr2cDyY75Mt6fEnp6I4FuwGmh22h58/cYoDB8+HE98uA7TXrKWWebc6eZsxqf2Ot7AAj7fswazrXlH3u+s+9FReG8Vr4hRaNahJ+c45pRmiNv7Nd64d7i17rIvffnWr4dxyHkYUrF6IIZwYBtWJicj1flV/oPblyPZep68PnCXlZu+HHNmfoZ5X1vjrPGL//MVfmK2RTVBM+8PXdc/DbU2L8ZnH03H9HIqfUVKAVaAI0EXpOpOL0RrKMHNUXTLBGDDq/hpylAsfSAeC4Z3xk9pnHIQud5a0qjhOHNAIk4279KPC2CXkdqMRnwb5xadTrkKjbo4j406Cda9fjI2z/gLfhjbGQvurI9FSevsSUf2O2e1S90rXkDT06o7z6To4lDTefn25ewBftMZzVk1FxWHi+99Fa++6gx/sQKJM1knUV3rT+bewC1yXLfHcO+Q3ujAkbvXYd12629bVj1af3NTMf/Fj53qQK9v8XVqI/zuL/fiwUfH4eUXX8b4nnGBSXmltGOyVn2It78NVF4Was1cLEJ3jBj5IB7923hr3a/i/3UIFLGigu/uLFlYNf1tfJv/1BK3k6qgwL5f5XRFPrjTKuk1bI2ExG7odenluLJ/L5xpv6VVEFXNnuWYI1YY/pBezO79ZUsBlk8cou07kHXIWO2uUuuB1nYvRGu4+RpnXFHtQcbr8Vg49i6kLl2Hqmf9AS2HPI9G3quM0bkHTnW/Q7869QGnWvsYeBTW4eVDMf++y7Hm04+wr/r5aHTJP6zroWn78mqNBu3DTZOI1OiO5vZ5k4udP1s3ClFRgZ5kOelYNn8BFuQblmCtNXnBq1OwYBOrBGsjvtvvcdszr2LcqKsC3fHr1ITdQpizH2nOW+9lV1PedR0uTohHbNR+pKeuwoJ14QLqADavWuU8Llz87x/E3266Cp1aW+Gcm4kta7/Gsu3eor5j72asZOWAhLb/IOz705oN0LCAG+C4BqfZf/dnleWdgFWC7noF+nRtj1an1ULurnSkrl6N9GO974PtzEB6BQwvUoDlUx0NE6+yH+3+6Jn87VJFcIR34m6bxmP1YmtcnduR+OJidB7yFFp2uwS18zWiO6qGKRHt3+OpaTiIw0H16iuwccoHOIyGaDlmO7re/ne0vvQaNGjB2/vQqugjASVQAxfc3B3N+HDvOiyaa48MqGKFz8fv4b33vcNc2FFyYBnee2oUht/7Ej78ch0yrXyofcbl+PNQ1yeyrJJU6K4Gcfj95R3sEl3m4mcCVX3jJ+K9LZ7zzi3i87k3fndhM+tSl4vUGaMw6uEn8Mzf38b3GYed6fmFiTah3M3YYt8P18VZ7ZwSsle103FmU16SDyItreCKuqioEvyDrd8OZzeybq8ObsLXn87BV8nfY/WG7dgTVOPkElwVVaEowEKo0uVhtG5pPdj/KpKfehS/uD4YSEdycpxHjoZtA3fK2xZgtwmSI+uw+QtPG9nuTbCXrFkvrzcZ0mYibZvzuDCNOwW2s/xpbLKrHR1pk7ApqBNHOg7Y1zBXO561Pzu+DVQhSimq2wFXjXzMqVrLwqqk1wNtU0s2II1X9Kh4dB8a/Nmw2j1G4KbL+Kg1LujROjBt9yrMnfo8nlkcaL+qcWpzax0rsdlucopHz9suDlQ9BmmOOs6KD+eYEyIeV1slpuI69vmjuqhpF/MPY79TzYkaFyCxlftIJHK52LRqnd11Pqr5+eiTYJVqXVffKjEtkfjbBDSwxuVuX4GUX5wJWdmwLyk1TsVppmqvihWCp3sbqgpxkivwataybtMtR3KRa25o6jRHYx++tepGH87+L7HmscuxOdApyHrTGyKa/6D37jj2lVJ53ePX4afRnZHKtvAo6yTs1hq//jATh+u0QNYmKzTMfHumYOmdfwHPzegzrRJR4z3YtXiJFWp7cNhaZ1739VDd720HkfFmPL5fxHSqjtod/2Bd1JZj+w/AKY1WIMsKwsA6dmDrc/FYvdqarU4iGnVsg8M//gu7rMUO77fCOG+9rm70T3+PloHai3Llx6+Ssr+BwxEVbbquZ2HdjH/g+dnHWqpYBXdXb5ZiLFnp2PJLLqJiYhFXn13Y2YnC6d5+JDCN8RHbPA41rItY5lfP4IF3U4PXwV6C2/Ygt3odxEVvwNv3TUTsqJdx1RnWVHad32ydgHXiUN8q0UfxQ8l7V+GNu1+yAtXVjX7ySLy0hCtzcR/brnTstM7Hlfd9ijp/uwvnsQ0ux9ouP4oR2wz1o61j4Lq3zMHwJ6YFdaMPbKv8+PGrpKKaJeLS3zRxbmCPIPfgIeDk6ohyevgd2bUaC6yS+LGan/pIuKwHTuebczgbGTv2Iar+aaiaexAxMdbdabhu9IFRiGl/Kfq0tuazwmp3xk6rxP8z5q2piR6XnG1/40funnT8b29V1Gto3ezyP2s/8pYP0VW/PKkbfUnU7IG2f9uOrjfejlPZSLXfCq5dDK/qiG7UA02vmY6LhphwaY0zx0xF0+bWfU3uCmR89QUOd5mOLv0TnOmOOkPQafTtqG2dTzk/fYCtP1RH09EzcHrEwVEdDW5Yho49EnBylYPIWj4F27e3tLb9Oc5o4cxia4imf/4MLVta+70nGWlf/RtVLvwMv+kXNJMUE0PLDLl7M7Hlv5/hpTGjgsKLUj98Di99tArpe61wqh2HZi2bIc4qRmWuX4DZczjHZmzYlIkDNQLTmrWMw8n7M5E6fyKesMIrsI4ncP8bC7Aly1pHVG3Ecb7TauDArkwrZoDPXn4P36ZbJaQqNexpNfd8jTcWBUpxEVvyOj781iq1s3RQLw5xp7DicB3eeP0zpHK70dZ2m1sX+g0f4qOU8FWIUrjcLcn45N+LsTotO/AVUtWt8KpiBdmhQGJVsUpCTeq6L8s7sWLh99jGotvJMWjQqD6q7liCBWsj64iTvWYJVmYcxJEqUajb8DTUYpHlwE9YnLwJ2VbxK8q64bFWiS3fLEGqp2LJD1QCk+PKNyUwqXB8+2W+IUUh7tw+6MabYKu0tG3ZHCT/HK5XReWgEpiIiC/kIv27OVjKXp5WaanJb/qgR5v6ukAXQq+PiEiFkIstSz7B9OnTreETfLl2Z6l9rvlEpQATERFfUoCJiIgvKcBERMSXFGAiIuJLCjAREfElBZiIiPiSAkxERHxJASYiIr6kABMREV/yTYBlb/nB+r8vvrZRInLUeU+LLyMjA6eeeqrzTCoTvu98/0vq8GF9OXFFFOn74psv863V6CwkjJiCmGbnOGPEzxheKyYOwb60H50xRVe3bl307NkTDRoU8beRxPcYXvPnz8fu3SX75eKqVasiJiYGJ5/s/J6JHHcMr+zsbPz6a+E/pOmbABMREXFTG5iIiPiSAkxERHxJASYiIr6kABMREV9SgImIiA8B/x8t0aNJNxgREwAAAABJRU5ErkJggg==;" vertex="1" parent="1">
          <mxGeometry x="304" y="1282.95" width="262" height="263.82" as="geometry" />
        </mxCell>
        <mxCell id="dTqFi1dfQPmzT-X44cD1-70" value="" style="shape=image;verticalLabelPosition=bottom;labelBackgroundColor=default;verticalAlign=top;aspect=fixed;imageAspect=0;image=data:image/png,iVBORw0KGgoAAAANSUhEUgAAAaYAAAGzCAYAAABkarMrAAAAAXNSR0IArs4c6QAAAARnQU1BAACxjwv8YQUAAAAJcEhZcwAADsMAAA7DAcdvqGQAAFB2SURBVHhe7d0HfBRl/gbwRzCEYigSJFQhllClKEYQQTjAhniAZ0E9QD3xzoYFFMvfxp0KFlC5QyyI3qGnBhRRT+AAEZGICggEUAxIS7yAQCId4T/P7Lxhdtjd7KYxIc+Xz7A7M++8U3bz/uYtu3scgEPWJCIi4gsVnEcRERFfUGASERFfUWASERFfUWASERFfUWASERFfUWCK1WnDkPZ1BjKWzcPYPs4yEREpNlENF+89Lh2juiU4cx6/7UVe9krMeH0sRv0rHXnO4mPWvWnIGNjcfpo3ZzhSb5luPxcRkeJR9BpTxXgkNGiL/g9MxEfP90eY8FV2dBuEsa9Mx7zZY9HbWRTkPwuxcpf1uGsjPvtUQUlEpLjFFphWTUSLFi0OT6m9MfjhyVi5LbA6sceDeP2e5MBMWXX2pejZKRmJ8fHOAo+lo9H/LOvcz+qF4dOcZSIiUmyKVmPKy0T6uyPR/8KHMM8OTvFo3mMwynhoEhGRo6h4Bj/kpSHtmy2B54kN0SXwTEREJGbFNipv4c+5gScV4616Uwh1e+PBf85A+uIMZGQEpsXzpmP8Pb2R6CRx44ALO92UYfZ84iUPYvJMZxmnZYsx74OxGJIaqVcrAak3jcX0eYtd26Vjxj8fxwDPdsOmOOudgQ2o1QWjzDbWlHZvYLGVEmn2snSM94zKCz7mRAx4cjrmLXPyeOeOQCIREYmo2AJT/1MbBJ5s2YglgWf5EvqOxbxZozCgfUMkWFFr76692PsbEJ+YjC7Xj8LMd4ahrZM2lLb3pmHm6AFo2yAhsO1ea6EVABNP64k7XvkIY/uGCk5tMeydeZg4tCeSE7lTaztrW1RMQMP2/fGgZ7t9zNfk7bDnQywvWDz6j5uCB/skI7Gis+j4Ss4TERGJpHgCUxvWQAL1pMzPxyPdfuZo8yDe+r+edgGdt3Qibu7WAu3Oaod2rVMxeEw62AAY32oAHro3TM9U3Uvx/MBk5MwZi8GpzrbtWqDLkIlYwrHpFRPR877nMSgoNiWg/0svYXArBqSNmPnX3khtZ21nbdui23CkZTJAWdvdMzp/5N3YawPr2729MrBg2zw8xHlnGjAmsDgqVc/B4G4JyJz6EHpbx2wPFOk32lkpIiKRFC0w1W2O/vdMxIzX+6OhNbt31UQ8+FhmYJ0tGcMe7o9kxocfJmPI1aMx72dnFfKQPmEwbn93o/U8Hs0vuCN031StRMR/PhL9b3kJ6a4PSW35fDQG3DQZjDFISMXld7oCW5/RGH4eI1Ue5j3WH3f8K/Pw56t+no6Hrh4byKtWKgbcFqq2VUSNk1HHOuarH0hD5jH/wS4RkeIVW2BqNji/z8We5qTh8etT0fD4PGRaNZqbB44ObsY7bTB6NmNNagvmjRl5RBMfLXl6HuxQltQcvTvZizxW4r170kJ/cHfpSLy3JNDGltyqv/1Ig/qm2p+n2rt0MoZNDbFl3uuYble3rIDYaUBgWbHKxIdPhzlmERGJqOhNeWwqe/IS9PbUaGyXtbBrUtiWgXlz7CVHyluCjfZQ8zqoc5q9JNj6DKRFKOHT1mwKPGlwitMs1xPtTgk0K25a/lrY4JCWyZqaFZpqNSz+4e1bfkT6D85zERGJSWyByfUB29TeD2HycqvYj2+Ing98hMl/DlG8m47/Wl3wuLumFTSNQpdaTBSP6kl26mC7cgM1qjDyDnhHJcQj3tlv8jWuUXzeyYy+S6iDFoFnxWeLFaydpyIiEptC15jyMtMw8ooeeOhz1kkS0Pam0RgWqsZDv7lGt0WaYhr5FoVQ+/BOebko7t2KiEjhFbEpLw9p9/wj0IQX3xwDHhsS+rvyctODRriFm2Ia+ebo2aBO4IlVS/ks8CzfyndD7ydounC4ajciIj5S9D6mvNdx++tL7FpHfJvr8fxAV2hastEeDo5addC8sIPfGrfAIOfpkbqgd6vAx3PzNi5x+pOm40en26lh45BfwyoiIj5W9MBkyfvHg5i8iqGJ37QwGv1NEPo0DYuz+aQ5Ln+6kN88XrUtLn8g9MdvE/58M7rY/VJbsPC9w9/0Pf7zQKBM6HQzHmwTWBa135zHqtXhfGRYRERKUbEEJg6PHv3odNjj3Gp1wR1/NTWVeRj78cpAkDjvQaSNuwNd6gbWGImt+mPYKzMw8R5nwRHikXzNS0j7P/dXFzEATsRHf2lrrbUCY/preNA16i/vhcmYZ39yNxkDJqThwb7JwUExIRk9Bz6OtA9C/LTFgh8D5xHfHL3ujfR9FCIiUhKKKTBZlj6E52cFvsg1scftGNXNforMpwdh5EcbreAUj4bdhmD8nAxkfL0Yizkty8C8dx7H4E4NUd2M4PNalYaJqyqh+VWjMG+Z2S4dE4em2t8msTfTCjy3v+4ZFj4dd9z2UuCbIRKaY8BfpyPdbMtfn02fjrH39kdzflWR14LpWGI3Bcaj+cDJzrG6vytPRERKUvEFJsv0B15zPsvUEL3vfdz5/rs8pA3rhZ7DJiM9c4v9HXmoGo94Tgf2YktmOtKeuhlDnrITh5CL0f0GY9SnmdhywNmOAWnbRix5ezh69n4IM4OjUsDSsRjQYzDGfroSG7dZdTZ+uay938C2K+dMxEPXDbNCmNc8DL92JKb/4HxbOreJz0Ou85tTIiJSsqL6afWjIf/n3PnZKX3PnIhIuVGsNSYREZGiUmASERFfUWASERFfUWASERFfUWASERFf8e2oPBERKZ9UYxIREV9RYBIREV9RYBIREV9RYBIREV9RYBIREV9RYBIREV9RYBIREV9RYBIREV9RYBIREV9RYBIREV9RYBIREV9RYBIREV9RYBIREV9RYBIREV9RYBIREV9RYBIREV9RYBIREV9RYBIREV9RYBIREV9RYBIREV9RYBIREV9RYBIREV9RYBIREV9RYBIREV9RYBIREV9RYBIREV9RYBIREV9RYBIREV9RYBIREV9RYBIREV9RYBIREV9RYBIREV9RYBIREV9RYBIREV9RYBIREV9RYBIREV9RYBIREV9RYBIREV9RYBIREV9RYBIREV9RYBIREV9RYBIREV9RYBIREV9RYBIREV9RYBIREV9RYBIREV9RYBIREV9RYBIREV9RYBIRX6latSpuv/129OnTx1kSGdMxPbeTY8Nx1nQo8FRE5Ojo1asXzjrrLPv5cccdh/j4ePz222/Yv3+/vSySuLg4VKxYEXv37sWhQ4Hi7Ouvv8aMGTPs51L2qMYkIkdd5cqV7eCSlZWFzZs32wHp119/xaZNmwqcmI7puR23Zz7MT8ou1ZhE5Khjc1yTJk3wyiuv2LWea6+9Fj/99FNUtR7Wtk4++WT885//tGtbN954I9atW4dp06Y5KaSsUY1JRHxl9+7dePnll6NuimM6pud2cmxQjamE3Xnnnfj222/x2WefOUuCtWrVCkOGDEGlSpXs+by8PIwePRo///yzPe9m0r733nv5+TH/Zs2a2c/37duHl156CcuXL7fnja5du2LAgAHOHDB37ly89dZbztyRvPuJ9hi96VatWoXnnnvOfm7UrVsXw4YNQ0JCgj0f7pjdzPEXdNxSdrHGlJqa6swVXXp6umpMZRwDk6ZinqwC+NDTTz99yCp0D1kFa8g0XB5pvXe6+uqrDz388MOHqlWrZs9bQSlonutfeOGFQ1aACNrGvcwcF5ebNN7JvR9ux/Rmey7jOi5jXmYbrud+zLmY/fAYTRqzzH2+XO89Zvdk9sfrFOmYNZXtyQpM9nuhYcOGhxITEws9cXvmw/xC7UdT2ZjUlFfMrIIUVkGKxx57LL9WEIpVEOPyyy/H5MmTw9am3Jjv6aefju+//x47d+60t2/QoAHS0tLseeId4pYtW9CzZ0973goEOPPMM+2aj6mRsJbz4Ycf2su53su7H07jxo3L357z3CdHTZmaGnGfmZmZ+edi9pOcnGwfqzFx4sSg8+X5czRV69atnSXBOFKrfv36zpwcyzgK75dffrHfw+6J74/u3bujZs2a9jwfOc/lnG/atCk6duyI3Nxce3vmI2VbwYHp3jRkZKRjfHQfKQgybEoGMr4Yj97OfIH6jEd6RgbS7nXmy6ATTjjBDkgscP/v//7PbvYKhQUx/6g4rDUaLKCZ7+zZs+15bs+8165da88TgwYDCgMWgw4DBwPI1q1bnRQBbGIjd2AxvPth/u59UE5Ojl0omIDBfXGfbLJ0437cQYfBasWKFfZzgyOqeB5JSUnOksMYJM8//3x88sknYa+jHPs4HJzvNXOjx0fOcznVqlXLfv9wNJ4cG1RjKmYsfO+5556ItSBvrSQa7du3t4fGMn+zPe8QvdtzyCyDUZ06dZwl4YWqibj3E61wATBS0IkG+x1o6dKl9qOUT6wFjRkzBosXL7bn+ch5LicNfjj2lGhgGt2vBVqcezOmO/MFmnYzUlu0QP+nnPljlKlVMYjceeedduc/pxdeeCGo2cswzXYzZ850lgRkZ2c7zw5jcGAtxTyn2rVr248GgxYDiVe4/XiZQLRs2TJnCex9siblxqDJ4BkJm2ESExOPqG3xWNjcyGbDXbt2OUulPPB+8wPfH/fff3/+4Ag+cp7Lien0zQ/HFtWYjgITGDjSjAUyR7JxYh8NH73BKVSzXSTMm8GI/ULMk31ZJk/Wtnr37p0fvNyi2Q/zYX4LFiyIOJLOrXr16vZ+vdgEOGjQoKC+KWLa/v3745tvvol6H3Ls4I3IG2+8gVmzZtnzrBmNHz8+qMbEeVNjYjqm1w3MsaNQgcnuO5oyLL9PKMOZ0scF9yaF62PqPS49f5vAlAYrtzB9TMOQFpTWmrhvl/zjsfvDmMbJz+fYBxNqIIAZvECFafZjHqa2xOHaLPhvu+02u1b25JNP4r///e8RfTbR7Ofqq6+282F+sQzbDtXk2LVrV3uACI9jwoQJztKAm266yX7UcN/yiR83OO+889CyZUt7nu/NHj16oHHjxvY8HzlvbnaYjunNxxSk7Ct8janZYGRYAeTxFi3QgtOklUjoNqrAgQsMIqO6AfPuc7azpomBvviQeo+7HJh0OG2L++Yhz9q3Nwii7uVIT13opOuP0c5iP/M2X7Ffh/077hqGdzCCW6i+G9aUvM10DE6mVsbAsn79+vymRCPSfohNjhyIwODp/WwScZ/efi2eA8/FiwHOfC7p0UcfDQpaDFgcyecebSjlCwcx8L3NQQ2kwQ/lTxGa8lZiorv/6KmJmLcNaJ4aoa5i1WgGN8uzglIqbnbdDI/uFz6QTL8lNbjPadrNeM8KZAn1mjsLHLU24r1+ZSEcHTmqzctdwwg1GIHrmCZUExnzDNXf42ZG45nReRRu0APz5/B3Bgv2gYUa1BGuL8v0pbn7wtwBzlvr4r64jne+pobHyQy957pw/XBy7PB+84MGP5Q/hQ9MqxZ6gsl0/Mgyre4pYYeHD0u1gsm2xZgecwtNb4z/4nBT3mCWq979bMuxQmXZYGpGbDpzBxYz7NoU5CyAww1GYG2Lnb8cPGAwL+YZaVSdKfzdaSLthzUp7ocBIlx/D/ukOPSdwc3NO0iC+2GAY1AKFeAYcFmDMrU7M5lh96xhMWCp3+nYFuvgBzn2lOLgh944hZ/n/PnH6EfpWez+o4xRaLdkeH5zXsimvxjzPdpYOLMWYP74yHxtUKTPKhn8/BODAQcJmODGvJgn8zYGDx4c9EFa9t9400TaD4MN+5QiBQMGFAYNBiI2xRH3eemllwYNkuB+YvnslpRPsQ5+kGNPwd+VxwEFAxsGNb8xWAzGRLTwNJ3Zy+vOw3CniS/kfIjt8nHww5NdsHGSM2Q8xL4p5nyPEhbO/F44fgNCqBqCWc9AQezzefrpp+2CnsGGn4fiYIRwAw1MGtMkyODi/Q47Np2Zpjvyfn9dQfvxbu/m3R+DUqTv5GPfEmtroUT6zjxznThKL5ZBF1J28KaqTZs22LhxIw4ePOgsjV2FChXQsGFD+7NvGjxTdpVqYOJovFHdNmJiuMEJUQUmjtIbjObb/B+YioKFPGsc4b7QtbiU1n5EInH/UGBxYK082m8nF38K+vK8I6Z70w5lZKQfGt/n8DIrEBzKmDIsOJ1Z/sX4Q73DzFuh6dD4L6xlGWmHhuUvYzpnvs/4Q+kZGYfS7nXWOfPp43q70nL7EPsJcTxldbJqMfYXl1q1lZDri2sqrf1o0qRJUyxTKfYx0XTcfC77iJpjsPlMEgczwDuQwsFvgnCGoZu056RHHl5+LDCDAEINyy5OpbUfEZFY6PeYRETEV0q5xiQiIhKZApOIiPiKApOIiPiKApOIiPiKApOIiPiKApOIiPiKApOIiPiKAlMUzj333PzvsxORYwf/rvn3Lf6iD9hGgT+Ad9lll6FevXrOEhE5FmRlZeGDDz6I+PtlUvoUmERExFfUlCciIr6iwCQiIr6iwCQiIr6iwCQiIr6iwCQiIr6iwCQiIr6iwCQiIr6iwCQiIr6iwCQiIr6iwCQiIr6iwCQiIr6iwCQiIr6iwCQiIr6iwCQiIr6iwCQiIr6iwCQiIr6iwCQiIr6iwCQiIr6iwCQiIr6iwCQiIr6iwCQiIr6iwCQiIr6iwCQiIr6iwCQiIr6iwCQiIr6iwCQiIr6iwCQiIr6iwCQiIr6iwCQiIr6iwCQiIr6iwCQiIr6iwCQiIr6iwCQiIr6iwCQiIr6iwCQiIr6iwCQiIr6iwCQiIr6iwCQiIr6iwCQiIr6iwCQiIr6iwCQiIr6iwCQiIr6iwCQiIr6iwCQiIr5ynDUdCjwthMp1kNI6BcknJ6NONWt+Zw4yf8rE6mWrkbMnkERERCQWhQpMxzfojCv+0A0t61QOLDh4AHv2HMDxlSvjeKcOtufnFZiT9g7mbzoQWGCpXKsWquzehm0KWhKl5s2bO88knJUrVzrPRI4NsQWmCrVw1pVD0LdVghV5crBi/ieY+aWndsRaVMeeuKhzSzBu5S2fipf+/TW2HWyMS+8ZgpTvX8LT09Y7iUUiU2AqmAKTHGsqWtMjgacFsILSOYOH4rKUOGxOfxvjXv4Q36zbil2HK0QBB3Zh67plWDh/MX6u1gRt25+Nc047iBXfbkPDjmchces3WLB6h5NYJLI6deo4zyScLVu2OM9Ejg1RD35I6TcElyYDmdOexrhpK5DnLA/r4DasmDbOqh1lAo164tarU3C8s0pERCSc6ALT6Vegb7sEbEt/Fa+mFxiSguTZ22zD8S3Ox1k1nIVyzHrxxReRnp6Ozp07O0tERGITRWCqjM7d2yAh72tMiaVvqF5P3PLAQ3jImga2Tggs8+Hg9OHDhyMjI+OIacqUKU4K/1HhLyLHsoJDRe3zcFYjYPOXnyDTWRSVfduweeNP+MmefsTq71fb049ZsdW4SsO+ffvwxBNPoEWLFvZ00003oUGDBpg1axZOPfVUJ1XpY+BhAGLwlKK77777kJaWhjfeeAPt2rXDJZdcgr/+9a/OWhHxi4IDUy1g/9b1WLE8xjHeW7/G1Elv4A3PNHXRNieBf82fP98uwBITE9GxY0dnqX/ceuutSE1NtY9TotOoUSN7IMXIkSPx73//G/feey+uu+46LFiwwElR/Hr16oXTTz/dmYsO03M7kfKs4MC0ZibGPfsS5m515suJrKws7N2715mTsm7Dhg24++67sXjxYnz00Ue46qqr7InPS0KFChXQunVr3HHHHVEHJ6Zjem7H7UXKK737w6hXr579uHbtWvuRTNOa6Yfy9vPwDpzL+Mg+KnefVajmOKZbsmRJfhp30yG3nzBhAhISEjBo0CB7ven38vYxuZv8zH4L6iPz9q3xOHg85D1PTqHyC3X8VatWddYexuN15+XeV3EYOHCgXcN1T1xmsNmOzXdcZprzOL399tt2c56XN79w6SI5ePAgnnvuOWRmZkYVnExQYnpux+1FyisFphBYaA4YMACLFi3Kby7jMhawXGb6ojZt2oRnnnkmKDgRm9oWLlyYn2727Nl2cHEHJz4fMWIEJk+ebKfp06ePvXz8+PF2cOrXr5/d15WXl4fXX3/dTsNlkVx66aX5+42UlufB4zH5cpo5c6azFnZNggWyWcf+t+TkZHs7w3v8nFatWoVzzjnHSRHAa1O/fn37/Ew6Fr68Rt7rVhhsojvjjDPsJrr+/fvbE1+jiy666IhgYq6xScfX78orr7QDl8HXk9u+9tpr+ekYSK+//vqgYBeNaIOTgpJIsNILTLXPx5C7bkHPozeWIKxKlSrZhay5o2cBdPnll9uFp9G3b1/7g4xjxoxxlgDPPvus/ciC3IiPj7cLxlGjRjlLAoGKhTb7Dhh0OPE5l5l0a9aswaRJk+x+rYICUDg5OTlB+w2FAZYBgUHJnXbYsGF488037ec8Xvc6LmehyQBD5vgZcEOdpxsDO8+H52dMnTrVfmzatKn9WBTuJjrj008/tQe08Fq6rVu3Dk8++aQzB/v4+dozsBEDGfuheL7uJj5uw23Z38hAGIuCgpOCksiRCgxMtTr0xR8H/tEz9cVZtZ0EUarcqiUa144DfDj2wT0qjwU2C+ChQ4c6awN3/RylN2PGjKACNjs7267RmAKb2C/FZjCvzZs3281ySUlJdgHH56aANthsyO0bN27sLIkN91EQDprgPgrq9GfwYdOcCdbNmjVD9erV7eXm+MOdZyjupkPeBHB701xaHBhU2OTGmt6DDz6IatWqHZH/d9995zwL4LHytTfp2Leza9euI9IRl9WsWTM/iMUiXHBSUBIJrcDAlFDvFKScnmJPpzQ8GSfbU33UquQkiEoyLupoFd4bvsbnPh9EwRoA76QZjEw/CO/sWRMyfT1mmjZtWlBQihYLQhbM7loaJ9OnVFjr1xf8OTMeL4Mpg2o47E/iubH2426mM3j8vB7R4DVkUxibxNg0ybx4E8CAUBxM/xH3w5oO98NmvZ07dzopoleSX3/kDU7nnXeegpJIGNE15Tl/M3nLJuHxvz5uTeMwMyuwLBqN+/TDWQl5WDp7PsrCF4vzzpu1CjbfkanJuPtk3FO0TW8mIHDEH5+7PzvlntxNiMWtoFoVazbsT+KxhTuOaEcssnbFZlEWviU1vP3aa6+1azlsiizqCDs2hZYkd3C65ZZbFJREwoguMO34GnMzDqBW6g24ITW2O/oEe5taOJDxCd753lnoc+ZzTGy+YkFtmuy8HfuhsCbBQtiNBTTzys3NtZsCzUg/b7rSwFpVrJ/PMk2ZRrjjN+dZEG7Hvp2SwuY2NuXFigE3XHMdl23fvj1kM18sTHAaO3asgpJIGFEOfjiA1W+9iJkbgOQ+9+CWC5Oj+ELWBLTscwvu6ZMMbJiJF99a6iwvG9icxdqF+bAj+5dY6LpHptGrr75qF9xu7mZAYvMgg4HpU2Lg4wCJ7t2724HPYMHO0WB8pFgCYrR4LLxT54AB9zGOHj3anmfhTO6gc9dddwU1MYY7fvbLuZs2GYQZjBnUzDXiPrzXqyhYy3EHEzbt/e53v7Ofx4qDTzhSj8foHtHHIeY8hw8//NAebFFUDEZffvmlgpJIGFEGJsvBHMydMAZTl+9G/fNuwKMPDcWAbin2by4F4e8xdRuAoQ/dhwGp9bF7+VSMmTAXOWXsb5CFKoORGQjBAp3NWyxU3f1Cu3fvDmqiYhMXh1CzGcykYaHGeTPqjTjPpkF3v5Xp1zEDLMwxMCByfUGfTYoWmx55zO4+LhboLCx5jDx+Bh2zjkPQvaPtePxmGLxJR1zmxsDF4Mr+M6Zh097LL79cbH1MHDHHYMLh3Kzl3nnnnXZTbGH6mIgB2wwPZ35m2PxTTz1VYh/GFZFgBf9QYOVaqFVlN7a5fnbW/gXb/t3Qsm6EX7DNWYE57wb/gu2xjnfaLLBZq3IHISk8/VBgwfRDgXKsKdRPq+dj7ah1CpJPTkYdNunvzEHmT5lYvczzq7blhAJT8VNgKpgCkxxrom/KC2VPDlYvmo9P3nO+pPW9TzB/UfkMSiIiUjyKFphERESKWdGa8kRKmJryCqamPDnWqMYkIiK+osAkIiK+oqY8ERHxFdWYRETEVxSYRETEVxSYRETEVxSYRETEVxSYRETEVxSYRETEVxSYRETEVxSYRETEVxSYRETEVxSYRETEVxSYRETEVxSYRETEVxSYRETEVxSYRETEVxSYRETEVxSYRETEVxSYRETEVxSYRETEVxSYRETEVxSYRETEVxSYRETEVxSYRETEVxSYRETEVxSYRETEVxSYRETEV46zpkOBp+JVL/UKnNSmF6o3aY/KJzZGhUpVcHDfbuz5ZQNy132L/y39FFnp7zipRUSkOCgwhdD04rvR9MI7sC9rOfau/QL7Ni/D/u0bcWj/bhwXVwVxNRuiUv3WiG96LirVa4W1/xmLtR8/42wtIiJFocDkUv3kNmg1aBzw68/YuWgS9uX84KwJr1Kd01Ctw0DghLpY/votyP1pqbNGREQKQ4HJUbvl79D+9n9j+5zn8OvSKc7S6J3Qph9qnn8nvn3hSmxd8V9nqYiIxEqByVL95LZIvX8Wtk5/ELvXfOYsjV2VU89H7UseR/oTPaya0xJnqYiIxEKj8iytBo+za0pFCUq0e81cbJ/7HFoNetFZUnxefPFFpKeno3Pnzs4S/+Ax8dh4jFI0U6ZMsSeR8qzcByYOdDju15/DNt9VbdYLJ13+PBrdPheNh31tP3Key0Ox87HyY77RGj58ODIyMo6YlixZguuuu85JFTsWcMw7HObNfZj9+SXweY/raB2bn28GRI5lCkwX3oFfv3rdmQuWeOkT1vQ3VG7aCcfFn2Av4yPnuZzrQ+HACeYbi3379uGJJ55AixYt8qe2bdvizTffdFJEz9RgmjVr5iw5EgPWiBEjMHny5Pz9paamYv78+U6Ko4PB4O6778YzzzyTf1x9+vTBpk2bnBTFz1yvSEFcREpPuQ5M9c65wh4SHmr0HYNO1WY9nbnQuD5UcGJ+zJf5l6ZTTz0Vs2bNwoQJE5CQkOAsPRJrJAMGDMDrr7+OUaNGOUuPPgaIDh062MHRHZDXrFmDfv36lXrQvPXWW30RrEXKm3IdmE464wL7c0pebKYrKCgZTBeqWY/5Mv/SlJSUZAckBpybbroJeXl5zppgLGy3bNniu76Mpk2bIj4+HuvXr3eWiEh5VK4DE7/RgR+e9TqhVW/nWXRCpWe+zL808c6eQSdSLYi1KjbxrVq1yq6JFAYDmrv/57LLLnPWBGOznDtdQYMjvvzySztg9urVyz7OgniPw90U526ei3QczMPUMAcNGmSvNwGb6UL1MUW7X3c61mR5Tlwebls3bz+b2d7geu7nlltusdcxjfu8Ip2ziN+V68BU+cRG9jc6eMXXP8N5Fp1Q6Zkv8/cbU6tircRdcEYz0MI0FVavXt3u92H/D2tmXbp0OaLpkHmzWY7rmY79Zyy0IxWQDJSTJk1CYmIipk2bFrbQDnUcrCUysHi3ufTSS+1H01/FdN27d88/DjYRmtol1zENl4USy365bOHChXYanjvPaeLEiXbQNdvOnj3bblL1XvcGDRrgyiuvxOWXX26n4/Hx+o4fPz4oONFVV11lXzOmY9MjFebai/hJuQ5M/O47fs2QlxnoEK1Q6Zkv849WpUqV7MEI7rtc711ycTDNZe6Ck1NmZqY96CBScGKBzQLykUceya9tsZbGAo+DNwzmkZycjLS0tPz+GfYZ8TkLTG8NxI3pWCBv3rw5vwbjLfR5HCzoWSCb42AtkbVAb20rJycnv8AmpmNAKOg4Qollv1xmaq48J15fXjv3tm+//Tb27t1r13K9nnzyySOuMfftDpp8HZcuXRrUH1eUay/iF+U6MPELWfndd16H9v7qPItOqPTMl/lHK9SovB49euQXTsXNXXDSs88+axeSffv2dZYc6ZxzzrFHx5kCz1i7dq29rRGuD4u1NBamDI6R8Jx57qxZmADlvtvncbCgdxfIxLQs/FkrNBh8vaI9Dq+i7JdpeI14rQoS6Ro3btzYWRLg7Y8r6rUX8YNyHZj2/LLe/kJWr72bv3OeRSdUeubL/P3KW3CyIGSByGaqULU0LuO6aNSvX9+e2BznrgEywMTCBCjWcHinz9qAOQ72k7nz5sQmupJytPYbCQNVVlaWMxdQXNde5Ggq14GJP13Bbwn3+nX5dOdZdEKlZ7656xY7c/4R7s7byM3NDVlL4zKuiwZrB5xMX4p7Ksxns9xNXuY4WOPz5s2Jaby1jVCirb0YxbXfovLWkLyK+9qLHA3lOjD9b+kM+6crvHatmmFNM525yJiO6b2YL3+vyW9MzYh3/u6aEWsk7HRnoRYO1zGNt5+iU6dOdlOWwcKT/SEdO3Z0lhQPUyiHO45Q2PzmxWUc7JCdne0siU4s+y2KcNeYTXHeGpJXSV17kdJUrgMTf+SPv6fEn67w2vLhiAKDE9cznRfzY75+/RFB9icxkAwdOtRZAtx11132I2sn4Zh1HPxgghoL0P79+9vPDfZvsJ+Dgw7cBSyb4kaPHu3MHYnrp0+fHhQw+Zz7YyAx/SahjoM4SMI7UIIB2L2MfVVcNmPGjPyaIQMU8w8VxNxi2W9R8LUxrwfxunD0Xqj+La/CXnsRPynXgYn4I3/Vzh7ozAVj0Nny4f3Ys3ZB/gAHPnKey0MFJeLvMzHfWIQalcepOAs8g7UmjsDjKC2zH/afXHPNNRGbo8x2LDhNHwa/OuiFF14I+jAvC3z2DbFmxs8ImX2wsPzggw+cVKE1bNgwqH+Ez9mE5h4IwuPgsZI7LUfGeTv93333XXu5ScPCmoNM3AM/mC8Dlek/8uZhxLLfomBzIWtnJn++L7jvcMPY3Ypy7UX8Qj97Yen08HzsX/1JoX6HyYu/yxSXchEWPFqyzT0SGQMQgyaHTbuDkIj4X7mvMdHyibfYP/LH31MqCm7PfJifiIgUjgKTJXf9Unz7whX2j/yxxlMY3I7bMx/mJyIihaPA5Ni6YjbS//Y7uxmu1sUjQw6ICIXpal0y0t6O2zMfEREpPPUxhcAf+ePvKfGnK/gt4fxCVn73Hb9miN/owA/P8nNKHBLO0Xcc6LD242ecrUVEpCgUmCKol3oFTmpzgf0t4fxCVn73Hb9miN/owA/n8nNQfh0SLiJSVikwiYiIr6iPSUREfEWBSUREfEWBSUREfEWBSUREfEWBSUREfEWBSUREfEWBSUREfEWBSUREfEWBSUREfEWBSUREfEWBSUREfEWBSUREfEWBSUREfEWBSUREfEWBSUREfEWBSUREfEWBSUREfEW/YBvBJZdcgi5duqBVq1aoV68eKleujD179iArKwvLly/HvHnz8NFHHzmpRUSkOCgwhXDjjTdi8ODBWLNmDb799lusXr0aP//8sx2UGJzq1q2LlJQUtG/fHqeeeipef/11vPzyy87WIiJSFApMLs2bN8fjjz+OrVu3YurUqfjpp5+cNeGdfPLJ6Nu3L2rXro2HHnoIK1eudNaIiEhhVLSmRwJPy7dOnTrh1VdfxbRp0/Cvf/0LO3bscNZExnQLFy5EXFwcHnvsMSxbtgwbNmxw1oqISKxUY7KwpsRgNHbsWHz11VfO0tidffbZuOOOO3DNNdeo5iQiUkgalWdh892kSZOKFJSI2zMf5lfcXnzxRaSnp6Nz587OkmPXddddhyVLlmD48OHOkrKNrxlfO76GUjS8hrNmzbL7duXYVe4D05/+9Ce7T2nGjBnOkqJhPsyPAyiixQI4IyPjiImFMwtpETcT6I72e6U83SxJ6Sr3gWnQoEH2QIfixPw4qi8W+/btwxNPPIEWLVrkT23btsWbb77ppCiYKbCOlZqGHImv7YQJE5CWlhb0XlmxYoWTovjpfSWlrVwHJn5OiUPCoxl9Fwvmx3yZv0hxYfNVr169sGrVKowaNcpZGsB+zVhuYorDrbfeitTUVMyfP99ZIlI8ynVg4odn+TmlksB8mb9IcUlKSkJCQgI2b97sLBE5NpXrwMRvdOCHZ0sC82X+pWXKlCl2Ew8LLjZPst+By9w47+6XcDfNuJtrTDr39lzu3tbbp2EGLJj13g5q02l9yy232Oli6RPhvkOlN/s05+E+B+4v3LEa7jScOO9m8nOnMfuKxHudL7vsMmdNsIKumRdrJps2bUKHDh3sYytIpNebuJ5TpOPg+nDvq3B9TAVdV7NfHo9JY14j7zU3+/LiSFp3Ou9xmHy4D+bhzaugY5Sjq1wHJn7NEL/RoSQwX+ZfWvr164ebbroJeXl59jdRsN+By4iFDAub6tWro0+fPvY6pmFB4y2sLr30UvtzWe7t+UfLtCZfTjNnzrTXEfMYMWIEJk+ebK/jPmj8+PFBBS0Lt4suugiXX355zP1nseCxkjnWzMxMu9nJXXCxkGIBz2vGNOzf43pTQPH5M888g0WLFuXnw/OPJNR1Zv6sOfPc3aK9Zl7PPvus/chgEa4wjeX1btCgAa688kr7NTHHy2M1xxHpfRVKQdfVaNasGc4555z8c9+yZYv9GvGaM63ZNjk5+YhteXw8j7vvvjt/ex4ft3W/xhTq/RztMcrRU64Dk/nuu5Jgvr4oWpUqVbILKvddXEF30NHiH2RiYqI9lJ19X8Q+CvZVsM/CvY+cnJyg/gtzF8tCyb182LBhdmDhtt5+D+6D++I+3YVYfHw8/v3vf+cfQ0nhsbCQMzgYhfvmh6iJ58QCjwMITP8Iz4XPTW2kadOm9nLedRs8P/c18OK5stB85JFH8s+RebLA4+AWI5Zr5sX82K/Dbbt37x7ybj+W15uefPLJI463oOMIJZrrajCQmCDLfXM0K68dbwTMDQsfeVPBIOY+Zr6WDMxmH9ye15yuuuoq+9EI9X6O9hjl6CnXgSnW4BGLWINeqFF5PXr0yC8wioJ3pvwDN3/wBvsqWBiw78Lw9l+wENy7dy8WLFjgLAnWsWNHOw/vyMa1a9fa2zVu3NhZAnuey0sa75DdvMfCc+Idurtph9avX28XegxK5ji9Na1IeJ3Z1GYKPMPs34jlmoXDoMH3iAlQ7nOJ5fWOdLzRHIdbNNfV8O6XX4zMvwGmLQj38eWXXzpzAdnZ2Xawq1+/vrMkINT7OdpjlKOnXAcm/jHwC1lLAvNl/kcb7zTZpMO7TndtjBMLNC9vwcA/dP7B8w8/FDZXsrDz1vZMv4RbpHxKE8+JE79+yn3MpgmQWGhypBuPmefC9d5mMDdznaMRyzUrCAMUa7N8fXl8sb7exSma61raQr2f/XaMcqRyHZj40xX8lvCSwHyZ/9HGGldubq59Z+2ujZmJd5DeO2a3gkaAMfiy8PbW9szkblIrLO7DXeMoKp4TJ9P/4p7cfV+8dqy1cvns2bPtwitcP4S5ztEo7mvGu3+eD2tKRX293aKpvbhFe11LEvcfiR+OUQpWrgMTf0+JP11REpgv8/cD/iGyk7sw7ecsnNjfwOanUEyTFwu8ksRmFu9gEu6TfXOxKuicQmGwYGHPu+1wwl3nTp06BdWESuqamUI5ltc73PHyesda4y/MdS2MUPvgPJcXFExL6xilaMp1YOKP/LHpgz9dUZyYH/Mt7R8RNO3svHN2e/vtt+1HdhDzuAw2/URqniJ2HLO/giOg2HFsjB492p7n3Tc7rNlM5M6L+3nttdeC9ldY7E9gv0D//v3zC1HuuzCBlljDYH7e/iPmyfPyPiemYyFuCv9QQl1nbsfjdivsNWNeHBDjPW++Rgx8Zv+xvN7c7q677nLmAuc9YMCAoD6qcO8rr2iua3HgzcjAgQODrjH3GarvyKu0jlGKplwHJpo4caL9e0rFifkVNLTYK9SoPE4FBQ43NuNwdJPpXzB/pKa/hNxt6xyhVdAfMrEfg3m4j69du3b5HdD8IzfDkc167oc1DB5TUTEPM+rK9PewYOKPM7pHu0WL+bGJjh3wJj9OPI8PPvjASQX07Nkzfx3TMZgwTTi8RgzgLOzNdeYQ5hdeeMEu2N0Ke82Yt/uYObFPia8v90+xvN7cH4OtScPXmNu7R+SFe195RXtdi4rH+8UXX+SfG/fFfUYzWKi0jlGKRj97YXnvvffw+eefF8sXufKP/7zzzrM/FyLiZybAxDosXKSklfsaE/GXZ3kHzt9TKgpuz3yYn4iIFI4Ck4U/6seqPH/kjzWewuB23J756EcCRUQKT4HJwQ+Qsl2ezXBDhw6NekAE0zE9t+P24T6IKiIi0VEfUwj88UB2SrOjlN8Szi9k5XffmW+K4Idn+TklDgnnyCAOoHjllVecrUVEpCgUmCLg7ynxCzj5LeH8DI35miF+voMfnuXnlEp7SLiIyLFOgUlERHxFfUwiIuIrCkwiIuIrCkwiIuIrCkwiIuIrCkwiIuIrCkwiIuIrCkwiIuIrCkwiIuIrCkwiIuIrCkwiIuIrCkwiIuIrCkwiIuIrCkwiIuIrCkwiIuIrCkwiIuIrCkwiIuIrCkwiIuIrCkwiIuIrCkwiIuIrCkwiIuIrCkwiIuIrCkwiIuIr5TowTZkyBRkZGSGnF198EZ07d0Z6erqd7mjhccyaNQunnnqqs+TYxPPjeQ4fPtxZUnjMI9w1M6+peZ0Lem2Zl/t9wW2ZR0niMZX0fsrL+0rKrkOacMgqDA5Zf6wh1x3NicdkFSCHrAIk5PpjZeL58TytQBByfTSTVZAfsgr0Q1YACXnNzPpo98Frz/TcziwbPXr0oeuuuy4oXVEm5v35558Xa57RTOXlfaWpbE5qypNjAu/8H3nkESxatAivv/66szTYXXfdZa8fNWqUsyQ85tesWTM7/fz5852lwLBhw/Dmm286cyJSEhSYImDhxOYONnsY1p0tlixZkt+0417HZh82wfDRpAnVJONtHuJ8NJiPyd8wxxhqmcn/tddeOyKN9xhCnYdVO7DXRWru4jqTB8+Z14e818mbh/cY77//fmfNYZGO0WvNmjXo0aMHbr31VmdJMF676tWr4+2333aWRMb8cnNzUb9+fWdJaN5jdF9jHi/P8dFHH81f734/MO2ECRNQu3ZtjBgxIn+d2Y7XyHBfZ3ce5jqa15jrzevgPjZvfgbTRZNvpNc20usiUhgKTDHgHyQLvmeeeQYtWrTATTfdhA4dOgQVRgkJCejVqxcuv/xy9OnTB3l5efadusG0/fv3t7dlHk888YQ9b/7oi4oFyvjx4+1Clflz2rVr1xEFbEpKStAx8Dzcx8DzOOWUU+z1/fr1c5YGY2HJwp7nyXQvv/yyswY444wzgq5TgwYN8q9TcR1jLJo2bYo9e/agZ8+eIQviUKZOnYrk5OSwhXo0ryXPqXXr1vnnyRoYrwv3y5obt926dau9bWpqalDtzDBB3Z0Ha4fuY2rfvj0mTZpkr8/MzLQDHd+HfG24D76eQ4cOdVIHRDo2w+Tbtm1bu6YYzd+ASFEpMMWgb9++9h+vacphIcL5c845x56nffv22X/IvOPmNGPGDLvwZiHCiYVFWlpafgHEvDZt2mQXSsWBQYSF0LPPPussAcaMGYPNmzc7cwE33HBD/jF8+eWXdgCtV6+ePU88DxbM4bCAqlOnjl1A8jxp3Lhx+dfG3eTF/fAcGzdubM8X1zHGgtsxyHgLYm8B78bj5w0GTZs2LajWF+1ryWN2n6epsXXq1Ml+LIi5zt484uPj0bFjR2dJ4Bqb683Xjfs170Ou47l6A380x8YgZ/KlaP4GRIpKgSlKLIgYYLp3755/x82J8ybw0N69e7F27Vr7ucFCOCkpyZ74fNCgQUF5sC/DW2gUFgt/FjjZ2dnOktB4vKbph4Wud/+hzsONhS/TRNqPu/mJ52gU1zHGKlRBzNcjXI2QWLCziZA1A9b6TC0r2tfSe558zmXRYkBlUx+b/Mw+TPNfpCDNG4tIrx9Fc2zum4Vo/wZEikqBKUazZ8/Ov+M2EwsuU2uIBjvnvXlEKhxjxSaySMfDu/D33nsPq1atsvfN5h5vbSUa4fbDgpsFOJnz477cSusY3YoSJFgzuOaaa+z0V111lbO05F9L4j5Nc6F7imYQR0kojr8BkUgUmKLEPzoWpkW5azcFoWnSilWogtTcuRvr16+37+zd/QTeNKztsIkm3ECBaITaj8GmIB5nuH6H0jpGtwULFhzR/MV9cllWVpazJDLzHqDCvpax7tOkYx9ZSSvo2Irjb0AkGgpMMTCd4e4Cl8+j7fjlHzb7nFggs0ZgcPSbez4cUzCwb8M0m3BghbtAZwFM7rt6bxpvYGCneKyFDZvpWDC7B3bccsst9nmwYOP+TBDg9XE35ZXWMbqxxpOTk4OBAwcGXTsuc/ehGEzDc3QHT54bj4m1wWhfSx6ze9BBqH1WqlQpbLMc07Hfyn3cfORoOTNfWNEcm1dBfwO8Zu6+OJHCUGCKAf9gJ0+eHNSvwCARyx8im19YSHLUlMmDo98iFQZu7CNhAc4+F267bNmyoCYu5n333XfbI6VM/t40PAYWdqbfomrVqjE3k7Fgvvnmm+2+BbOfP/7xj3a/Bs+FHeLmHNkx7m7KK61j9GITGwO7uXY89nA3FTw/cvft8Jg5NNq8VtG8ljxmHrtZ790nt+e14nsq3ChBk94cNx95Pc0xFlZBxxZKcfwNiEQj5CdvNR07k1XYHZVvFyjvkxXE9O0KmjQVYlKNqRxgEw1H0HHItYiI3ykwHWPYFMQmIdPMwok0akpEyorjrIlVJxEREV9QjUlERHxFgUlERHxFgUlERHxFgUlERHxFgUlERHxFgUlERHxFgUlERHxFgUlERHxFgcnRqNufcMFrO4OmHuNzkNi6F+JOOBHnPr4Iza99zklddMzL5F8W8Hh5TbqN/QnVkgr/rdbclnnwepck5s/XjK9dYfG14WvE8z71svvt4z7rno+ctUXHa2qO0eyrON9jofD4w72G3HdRX1+R4nLEF+iVx8kqyA5ZhcQhq5A4Yh2XcZ31h3vEuvIw8dpYBdYhq8AKuT6WiXkwL+YZan1xTZFez2im0jhOvp+KcozFOfE8raAVcp0mTaU9qcYkUdmX+z/s+/UXZ658+G3vTuze8pMzd2zLW78UXz99iTMncnQpMBWSu5mHk7cJxr2ej6f1fxRdRmXkN5NYd6hBzSbcns06rW98JWR+xDy5DR8Nbs98zTKTT9OL784/Ns6zucjwHnuk5inm1+K6MTihQQt0f35Dflrmx3zD7YOY1qzn/tzHfXyV6kHb83oY3rzd1ykcbu9OX/nEhs6aw9xpOLn36cbj7PjIl6iSeDLOvHOqnV+N5DPtYzKvC4+Hy3mdw50HRboGbiY/bu89fzNxmbnGBeUb7jU27w/3a8VlqQ/MyU9rzpGiPU+R4qTAVAj8o29948tYMu4afHp9Ncy/vw2SOvTL/2Pl+ra3/Aur/32/vf6ze1JwUtuLUTG+mr0+HBb+B/bk2dus/OedztLYMZ/aLbrnH1ul6ifh1N8/5KwFap1+btCxJzRqFbag4XFkvDkUv27KwOzbG9l31SzUzr73U/yyer6dB6e9O/6HNjcf/oE8FoTxNU6yt+H6FRP/4qwJOKXPfVj9zgP2uvWzJ1jH92B+8KnR9Cz8b8nH+XnnbVhuFZZj7XWh8NhTrvwbvnmur53+qyd+h4ZdBjlrA5iG++D5Mg3Tcj5UoNiybAa+fKSjXVtiujl3nIxd/1vrrA0W6Tz4uHd7Vv55bJr/T6Rc8degoBDKfqtm+sVDHfK34zHsy9ti74frCsrX+/7ja7Bj7df2Oi++TiemdM5/ncx72R2cKNJ5ihQ3BSYXUyswd4XeO0ujyQV3IHvRFLsAo53Za+z5umf+3p7n+u1rvsKGOS/b8yxM+EfNpqFIWPisnzXOmSs85rPyn3fYz82xVUs63Z6nH9IeDjp2Fvw892gldehvP655/3H7kdZ9OhZVT2pqF1YsGPl8ybir7XOnrPR38/dJLEzNvDnnE5t3sx+5nMdo/PzN+3aQC/VacFnj7jcF5cdzWvP+SPs5mTRcxnXEtDzvOm0usucLy3sefI2r1Em257mvZa/caD+nnKWf2DcnlUKcRzg8dgYd7/stUr58//G43O8/9/U0+DrxpsQEPDLXjsHKfb0jnadIcVNgcjG1AnMnyrtW8wdr8I+VhSQLOhPAOHGey6vWPcV+3Jn9vbNF9IqrHydUPt6C3d0UVLvF+c7S6DCIeYM4m7wqVa9jF1Ys7FlwRToXXutIWMMxebMpMRwWxqwRRsrPpGE+Jk9OPG93wC4M734ZINgEaLDwN01qvEYF1Zq9TE3XfRNA4fLljQGDTUHXl8xx7s7JtB8N1hS9AbSg8xQpTgpMhcTmDBPAggLZzm32+mgKhqOBBRf7DMgc99aMufZ8LHh+7iDOadbNdfLvqtm05w3q0WLQdDe7sSkxkmgHKTAf9/FyKskOfzaHsUnNNJuySa6gWrMbgw+b1dw1Gioo32ivB5XHQS3ifwpMMWIBwUI33J22WW+a9QzeXcZ6t+zFO1tvwcYaSiz5srmMhdHS8dc5S2LHoMQaSLgmKa7nXXth+iC4DZsBl73yp/xmt0hYqPKaeJvk3E2TTMNzjqW5sqhYO2VzGPt5TLCORagmPCoo33DXIxQGL76O7NNz43uVeShgydGiwFQI7E+peerZQQMG+NzMs0+E63nHSyxsWQMoKlPosA+BTOFVMb6qPR8Nb2HEY461KS97UZpd0LsHJPAcOaKQQq2vl/qH/OsRibdgLeja8UaAgzBYszCBkPtp0Pla+zkxDWu4XOY+Bo6UjOaYCsN7g3L4tYruJiJcE15B+YY6V6bhuXoxsLGfjdszDZnrzTyYl8jRoMDk4u034eQOPgb/oHnH6u6zYB8TC2RipzPXs+2f684e8V+7Q5kFblGwoGCzDoMe8+369Gq7ANmXm+OkKBiPnXfh5thYwMXalMfj4MAG1orM+XN4dVb6O/nrv3rqArtfy6xvNuDpI/oyQjHnyIKV2/HabZz3urM2NI4c5Dl1/ttSexsWtD9Oe9JZG8DXhB345rw5MTiHqnUUFw5AMdeIrxVHGkbzHjCB1ft+ZBMsA0dB+Xrff8yDw/NDYVMmA53ZD68h36tm4ITI0XCcNfGTtlLCGOAYvFhg605URCQ81ZhKgWkeYZOTgpKISGSqMZUA1o68Q5w5IkzNIyIiBVNgEhERX1FTnoiI+IoCk4iI+IoCk4iI+IoCk4iI+IoCk4iI+IoCk4iI+IoCk4iI+IoCk4iI+IoCk4iI+IoCk4iI+IoCk4iI+IoCk4iI+IoCk4iI+IoCk4iI+IoCk4iI+IoCk4iI+IoCk4iI+IoCk4iI+IoCk4iI+IoCk4iI+IoCk4iI+IoCk4iI+IoCk4iI+IoCk4iI+IoCk4iI+IoCk4iI+IoCk4iI+IoCk4iI+IoCk4iI+IoCk4iI+IoCk4iI+IoCk4iI+IoCk4iI+IoCk4iI+IoCk4iI+IoCk4iI+IoCk4iI+IoCk4iI+IoCk4iI+IoCk4iI+IoCk4iI+IoCk4iI+IoCk4iI+IoCk4iI+IoCk4iI+IoCk4iI+IoCk4iI+IoCk4iI+IoCk4iI+IoCk4iI+IoCk4iI+IoCk4iI+IoCk4iI+Mpx1nQo8NTfqtU7HW1unoSERmc4S6Qsy9vwHZaOH4idWd87S2JXs2ZNdOvWDXXq1HGWSHmRk5ODOXPmYPv27c6SwqlYsSISEhJw/PHHO0vkaDtw4EDZCUydHv3SCkqtrWc8ZCn7DlnBaRkWPNzRmY9d3759cfDgQfzyyy/OEikvTjzxRFSoUAFTp051lhQOb24UlPynzDTlBWpKCkrHjuOKXPtlTUlBqXzi614cNWUFJX9SH5OIiPiKApOIiPiKApOIiPiKApOIiPiKApOIiPiKApOIiPiKApOIiPiKApOIiPiKApOIiPiKApOIiPiKAtMxIueVavj0+mr4bomzQETKlwoJSKqXcEwU6mXmS1wveG2n86x0Hcz6AD+++xQ2rViKvfudhVXrovrpA3HqdQ+jTi1n2VHGwPTtAqDe7TtxRltnYRnAYFpYN910E1auXOnMlbBzbsOYwa1QxZnNt3c3tmT9iMWfvYuPFmRjt7NYSl7z5s0xYcIEZ65wEhMTnWelqHJtnNKyDU6rXx1V4xhGDmL/rlxs+mEpMtZuxZ6DgWSxqYzTul2M1lZ5lLdqJmZm5DnLyybVmMLagV/ebo+ZDwxA5hIrKP1WA/G16lpTDWDXz8hdMgpZPzlJpVzZb92hmAnxVZDYpBV6DnwUo0dcjZQjIlcZ0OYy3Dbirxjz5M0421kkJSOuXgdcfGFXtDm5ph2UDu7bg/0HKiCuak00adMVF3ZridqFKpV/w65d1vvx4H7k7tjjLLPuoeu1RKoVsLq3SHCWlA0KTGHs/M9FWDRjtXWFUpE8PBM9X9mM85/JtKbNuOClTHS8fiBOqOgklnJkA+befitudaYhQx/GG59tsGtKcU3Ox59vPPfIWpXfnd4arZokokpcnLNASkSNljg/tREqW6Xuns3fYub7U/D+9I/x4TTrcea32GS9iSrUSMF5HZsg9ldiPzalf4gp73+I9E2maQeo3SQFDWpVRqUy9sMMCkyhbHoU37yz1HrSBimPz8ZpzeoGX6i4uqje+e9I5s9DSfm2OxtfTB6J5+dkW0UDUKVVL/y+fmCViFvS6achwSpI9mctwsyF65DnarI7mLcO6f9dihxrWYW6LdDiRGdFOaU+phC2T66N9Fl7UOXSb9Glb4qzNIIlg/Hp8+8ADZ5Al8dvP3zHbJZ3moILbrwgsOzXdKxPexTrF32GnbsCi45vMhCtbvs76pr+Ktd2v+u2EN+MGoXtJ5m892D3oruwZNIk5HL7uCaoO2AK6v3QHkvcfUwHd2D77BH4Yc77+CVrh50tqrZBw+unomX7uoF5rMO6h1pi9aYUpPz1E8R/1BHfLfi5VPupyl4f0wbMHDIS7zmLD+uBu57/A1Ligew5Q/Hw24Hepirtrsbtf7Bq3bWdd8XeXGxY+C6en/wVcu0F1XH2gD/jsrOTkWjeOLutWtlLI/GWc2pVUi7GwKu6oVVSddhdEpb92V/ghYffwGp7+xtxSbtkJFV37rMP7kb2sumY9PdZyLQXnI3bnrkBrU7YjeXW+2ZH94E4t5F1JrNexY5zuNxO5OKcY5UUXHzdH3BuShIST3Dy3m8d//zJeObtxYH+NHNdfl2ON/65A90GnotGVcJdo+JVpvqYKjRCpz4dkFRhO1b8ZzZWO3/7Xkln/R6dGlfAnszP8PGSrUCjTujXIQnYuRozP12B/J4js9wKclO+3BBY1LEfOtSz3n+LpmBBbktc+LsUVLXXuJj0lZOQ0qYFmp7k6ufakYVlC9OxzhS1rn18uOZEqyZ3Cmru9RxHCVGN6QjrsH0l22jrol67KIJSjHbP/zNWfr4K8a0HomHXgah3Wl0cWDcJSx66C9u9nZ673kYGg9Lhmjl2z+iOef8IBKX4ZlegYfuTsf3NbljuHY23ZRKWT56EnTUusPfTMDUV8buWYuOL7bDyByeNS+5HF9lBSQrrC2RZ5QjVODFQla7S6TY8dvP5SLZuOLLXbcCGddlWMKqORl1vwL03tLLTtLrhXtzQ1QpK8VYwMWniayCxhr3ayuNmPDb0MrSrbwUla2s7TbYV0uKrIpCkF3p1TUEStlrbBrbfbYXPpDZ/wA3OPtxqOEEpYAeyuM1WZ8iGFXQCx5CFLZxvY+V9ZiNU2+vkvTkX++Os4+92A26/xNtgWQPdrmVQcmYlWEJ1VGdpu2crtoQJSpSd8z/7sXKVI0JKbPZtx6ZNm2Be2oN5Ofb8ppzAzhNOaYuW9Spj3y9Z9vLsHb8hrkYDtO/O4GknOez4RujAoFSKv6mowBRWTcQFvTc+xXfW3T3v8POnVz511kWvQrN/oMs/MtFhyN/RcuDfccaIT3CadZeDXZOQ9WMgTb4l72B3r9n43Ss7cQFrS3vfweq32cTYBI2Hb8b5wyei5ZCPcf6Yf6COK3jZ4rui1ZNbA2ms/bQcMhsd+jPQ7sDGRemBNPlWI2tFM7S00rNmWpZG9fnHbuz/zXlqOxs39m+F6vuzMXe0VYN6YiRGPvEwhr262K4pJVqFfg/rsVm9wB179mcjDqcZ8QpmrOfSVhjQu51doO3O/BhP/XlYIM3Dw3DrfePxlb3leix8/1kMHfawtW1g+xGfZdtrEk9JRfCtVRU0OmkHvnh1GIYMGYKR767Gey9Y2yy2w5BVm1uPj+w8XsVczu9YiRlW2qH3O3k/OgxvLWdJF4dGrboxxWEnNELSr1/g1XuHWHmXfG2pzPrtAPY5T0Mq1Ii8EHZvwrL0dGRuD8zu2bwE6dZ8+prA3dP+7CWYOe1jzP7CWmYtX/Dfz/EDY1ZcAzTy/jBw7ZNQbf0CfPz+FEwphdoSKTBFcDCooKnsjMqzpiLczMQ3aQP8+BJ+mDQYix5Ixtwh7fFDFtfswX5va2XcEJzWNxXHm1fp+7mw6zTNhiO5mXNLTSdchnodnOdGjTbWvXk61k/9C74b1R5z76yN+Wmr7VUHdznvVpealzyHhidVduYkdkmo6ly+nXt3AGe2R2M2kcUl4fx7X8JLLznTX6xAw0TWm6im9bDl18AtbVKnx3DvwB5oxYXbV2P1ZuuxOZsArcf9mZjz/AdOs5zXV/gisx5+/5d78eCjo/Hi8y9iTLekwKr8WtVhucvfxRtfBRoRC7RyFuajM24e+iAe/dsYK++X8MdWgSpRXPBdmyUXy6e8ga+OfGuJ23EVEHHMVCmVyHu2WjWzuilok9oJ3S+8GJf26Y7T7Je0AuIq2UkOO2gFue+yCzmMvXAUmI6QhHj7jmE1cla4m7a6IsUelWdNN17hLIvVDuS8kox5o+5C5qLVqHj6lWgy8FnU85YeRvuuONH9Cv3m1MtPtI4x8CysA0sGY859F2PlR+9jZ+VzUO+Cf1jlnOlb8kpBnZbh1klUqnRGY/t9sx9bf7JuAOLiAiOr9mZj8Zy5mHvEtBCrrNVzX5qEuevYNFcdyZ3+gNueegmjh10WGHZeoyrsHri9u5DlvPRednPhXVfj/DbJSIzbhezM5Zi7Olzg2Y31y5c7zwuW/IcH8bcbLkO7FCvo7t+CDau+wOLN3qq549f1WMbKvIS2aw/s+86qdVA3wo1tUp2T7MdduSUZ4a0ab8dL0LNjSzQ9qRr2b8tG5ooVyD48yjzY1hxkl2JQIgWmI1RG3dTL7Gfb33/qyH6fGBzknbPbujFYscBaVuN2pD6/AO0HPoEmnS5A9SM6nx0Vw9Rgdu3w1Pj34EBQu/VSrJ30Dg6gLpqM2IyOt/8dKRdegTon83Y8tAoa+l4EVXDujZ3RiE9/XY35s+yFARWsoPLBW3jrbe80C3aI2L0Ybz0xDEPufQHvfrYaW6xyv/qpF+PPg12fKLJqPqG76JPwh4tb2TWwLQueCjS5jRmPtzZ43nduUb+fe+D35zWyirD9yJw6DMMeHomn/v4Gvs054Kw/UpiQJbR/PTbY97k1cXoLp0brVekUnNaQRfIeZGVFbjCLiyvCH2ztFmhdz7pt2rMOX3w0E5+nf4sVP27GjqAWIpfgpqNSocAUQoUODyOlifVk10tIf+JR/OL6wBod3LvXeeao2zxwZ7tpLrabAHFwNdZ/6umD2r4O9pZVa+WPrkLWNGRtcp4XpH67wH6WPIl1dvOfI2sC1gUNfsjGbrtscvWTWcfz81eBpjwpRjVb4bKhjzlNXLlYnvZKoO9n4Y/IYkkdl4zOg4M/21S968244SI+S8G5XVMC67Yvx6zJz+KpBYH+oSonNrbyWIb1dpdOMrrddn6gCTBIY9RwMj6w17whknG5VcMprMOfn6mJqna1/AB2Oc2NqHIuUpu6z0Sitx/rlq+2h4jHNT4HPdtYtVBX6VshoQlSf9cGdaxl+zcvRcYvzorcPNhFSpUTcZJpYqtgBbdTvB1BBTjOFciqVrNuvy0H92O/uVGp0Rj1ffTSarh4OLs+w8rHLsb6wCAZ68Wsi3j+of768+GvJsofBr4aPwxvj0z2IcdZb65OKfjtu2k4UONk5K6zgoFJt2MSFt35F/A9F3+aVYOpvwPbFiy0gtUOHLDyzB+mHWqYuW0Pcl5LxrfzGXUqo3rbK63Cagk2fwecUG8pcq0AF8jjZ2x8JhlW7dx6w6WiXttmOPD9v7HN2uzALivI5ufrGi7+5LdoEmhFKFVl8SuJ7G98cMTFmyHauVg99R94dsbhniA2hd3Vg7UOS242NvyyH3EJiUiqzaHaHHzgDOM+GFjHsJDYOAlVrMJpy+dP4YF/ZgbnwVFzm3Zgf+UaSIr/EW/cNx6Jw17EZadaazlEfL31BqyRhNpWDTyOH5b9dTlevfsFK1C6hotPHIoXFjIzF/e5bcvGVuv9uOy+j1Djb3fhbPZx7bX2y48cJDZC7XjrHJj3hpkYMvK9oOHigX2VnrL4lURxjVJx4ZkNnBvTg9i/Zx9wfGXEOSPeDm5bgblWzflwS01ttLmoK07hi3MgDzk/70Rc7ZNQcf8eJCRYd53hhosHFiGh5YXomWKls4LQ9pytVg39J8xeWRVdL2htf8PE/h3Z+N+vFVGrrnUTy3/WceRvH2JIemlxxWwJUrUrmv9tMzpefztOZCfQLisgbWNQqoz4el3R8Iop6DLQBI0UnDZiMho2tu5D9i9Fzuef4kCHKejQp42z3lFjINoNvx3VrffJ3h/ewcbvKqPh8Kk4JeqAUBl1Bi1G265tcHyFPchdMgmbNzex9v0JTj3ZSWKri4Z//hhNmljHvSMdWZ//BxXO+xhn9g5KJIXEYGSm/b9uwYZvPsYLI4YFBSXKfPcZvPD+cmT/agWd6klo1KQRkqxqz5Y1czFjJlOsx4/rtmB3lcC6Rk2ScPyuLcicMx4jraAUyGMk7n91LjbkWnnEVUcS051UBbu3bbHCB/Dxi2/hq2yrRlOhir2u6o4v8Or8QK0ragtfwbtfWbVs3s3XSkLSCWzAW41XX/kYmdxvvLXfxlYB/uO7eD8jfFOeFGz/hnR8+J8FWJGVF/gqospWUKpgBah9gUhUwaq5NKjpLpa3Yum8b7GJVa3jE1CnXm1U/Hkh5q6KbgBL3sqFWJazBwcrxKFm3ZNQjVWR3T9gQfo65FnVpTjrRsbKEhu+XIhMT0PQ0aQakxxVZabGJL5TZr/ENaQ4JJ3VE514c2vVbjYtnon0n8KNRjj2qcYkInLU7Uf21zOxiKMerdpNgzN7omuz2uW2gFZgEhHxhf3YsPBDTJkyxZo+xGerthbb523LGgUmERHxFQUmERHxFQUmERHxFQUmERHxFQUmERHxFQUmERHxFQUmERHxFQUmERHxFQUmERHxlTITmPI2fGf9Xya+1k+icsh5TQsvJycHJ554ojMn5Qlfd77+RXXggL6U1o/KzJe4Vqt3OtrcPAkJjc5wlkhZxqC0dPxA7Mz63lkSu5o1a6Jbt26oUyfG36aRMo9Bac6cOdi+vWi/9FqxYkUkJCTg+OOd352Qo443C2UmMImISPmgPiYREfEVBSYREfER4P8BaYJ4GZzAC5IAAAAASUVORK5CYII=;" vertex="1" parent="1">
          <mxGeometry x="580" y="1264" width="342" height="352.54" as="geometry" />
        </mxCell>
        <mxCell id="dTqFi1dfQPmzT-X44cD1-71" value="identificador&lt;div&gt;agenda&lt;/div&gt;&lt;div&gt;tipoRecurrencia (dia,semanal,mensual o anual)&lt;/div&gt;&lt;div&gt;repetirCada (numero respecto a tipoRecurrencia por defecto nuemro 1)&lt;/div&gt;&lt;div&gt;frecuenciaRepeticion&amp;nbsp;&lt;span style=&quot;background-color: initial;&quot;&gt;-&amp;gt;Días de la semana en que se repite (ej. Lunes, Miércoles, Viernes)&lt;/span&gt;&lt;/div&gt;&lt;div&gt;&lt;span style=&quot;background-color: initial;&quot;&gt;fechaFinRepeticion (poner una por defecto )&lt;/span&gt;&lt;/div&gt;" style="rounded=0;whiteSpace=wrap;html=1;align=left;" vertex="1" parent="1">
          <mxGeometry x="-710" y="1353.5" width="400" height="111" as="geometry" />
        </mxCell>
        <mxCell id="dTqFi1dfQPmzT-X44cD1-72" style="edgeStyle=orthogonalEdgeStyle;rounded=0;orthogonalLoop=1;jettySize=auto;html=1;exitX=1;exitY=0;exitDx=0;exitDy=0;entryX=0.162;entryY=-0.002;entryDx=0;entryDy=0;entryPerimeter=0;" edge="1" parent="1" source="dTqFi1dfQPmzT-X44cD1-55" target="dTqFi1dfQPmzT-X44cD1-67">
          <mxGeometry relative="1" as="geometry" />
        </mxCell>
        <mxCell id="dTqFi1dfQPmzT-X44cD1-73" value="identificador&lt;div&gt;numeroDeTurno&lt;/div&gt;&lt;div&gt;horaInicio&lt;/div&gt;&lt;div&gt;horaFinalizacion&lt;/div&gt;&lt;div&gt;Estado&lt;/div&gt;&lt;div&gt;Agenda&lt;/div&gt;" style="rounded=0;whiteSpace=wrap;html=1;align=left;" vertex="1" parent="1">
          <mxGeometry x="-1210" y="1490" width="110" height="90" as="geometry" />
        </mxCell>
        <mxCell id="dTqFi1dfQPmzT-X44cD1-74" value="1...1" style="text;html=1;align=center;verticalAlign=middle;whiteSpace=wrap;rounded=0;rotation=0;" vertex="1" parent="1">
          <mxGeometry x="-1355" y="1324" width="100" height="30" as="geometry" />
        </mxCell>
        <mxCell id="dTqFi1dfQPmzT-X44cD1-75" value="1...*" style="text;html=1;align=center;verticalAlign=middle;whiteSpace=wrap;rounded=0;rotation=0;" vertex="1" parent="1">
          <mxGeometry x="-1280" y="1282.95" width="100" height="30" as="geometry" />
        </mxCell>
        <mxCell id="dTqFi1dfQPmzT-X44cD1-76" value="Realiza -&amp;gt;" style="text;html=1;align=center;verticalAlign=middle;whiteSpace=wrap;rounded=0;rotation=0;" vertex="1" parent="1">
          <mxGeometry x="-1302.5" y="1289" width="60" height="30" as="geometry" />
        </mxCell>
        <mxCell id="dTqFi1dfQPmzT-X44cD1-77" value="&amp;lt;- Referencia" style="text;html=1;align=center;verticalAlign=middle;whiteSpace=wrap;rounded=0;rotation=0;" vertex="1" parent="1">
          <mxGeometry x="-1325" y="1349" width="100" height="30" as="geometry" />
        </mxCell>
        <mxCell id="dTqFi1dfQPmzT-X44cD1-78" value="1...1" style="text;html=1;align=center;verticalAlign=middle;whiteSpace=wrap;rounded=0;rotation=0;" vertex="1" parent="1">
          <mxGeometry x="-1455" y="945" width="100" height="30" as="geometry" />
        </mxCell>
        <mxCell id="dTqFi1dfQPmzT-X44cD1-79" value="&amp;lt;- Tiene" style="text;html=1;align=center;verticalAlign=middle;whiteSpace=wrap;rounded=0;rotation=0;" vertex="1" parent="1">
          <mxGeometry x="-1285" y="910" width="60" height="30" as="geometry" />
        </mxCell>
        <mxCell id="dTqFi1dfQPmzT-X44cD1-80" value="1...*" style="text;html=1;align=center;verticalAlign=middle;whiteSpace=wrap;rounded=0;rotation=0;" vertex="1" parent="1">
          <mxGeometry x="-1355" y="914" width="100" height="30" as="geometry" />
        </mxCell>
        <mxCell id="dTqFi1dfQPmzT-X44cD1-81" value="Pertenece&lt;span style=&quot;background-color: initial;&quot;&gt;&amp;nbsp;-&amp;gt;&lt;/span&gt;" style="text;html=1;align=center;verticalAlign=middle;whiteSpace=wrap;rounded=0;rotation=0;" vertex="1" parent="1">
          <mxGeometry x="-1330" y="880" width="100" height="30" as="geometry" />
        </mxCell>
      </root>
    </mxGraphModel>
  </diagram>
</mxfile>
